<svg width="304" height="379" viewBox="0 0 304 379" fill="none" xmlns="http://www.w3.org/2000/svg">
<path d="M8.25118 156.652C8.25118 206.377 218.937 76.2513 157.188 76.2513C95.4396 76.2513 302 206.377 302 156.652C302 40.7024 189.781 89.2085 157.188 188.214C128.309 92.5308 8.25118 47.0148 8.25118 156.652Z" fill="#6922FF"/>
<circle cx="156" cy="148" r="143" stroke="#6922FF" stroke-width="10"/>
<line x1="158" y1="-1.62003e-09" x2="158" y2="296" stroke="#6922FF" stroke-width="4"/>
<line x1="82.3092" y1="22.1034" x2="228.081" y2="274.588" stroke="#6922FF" stroke-width="4"/>
<line x1="28.2209" y1="74.7275" x2="280.705" y2="220.499" stroke="#6922FF" stroke-width="4"/>
<line x1="26.2209" y1="220.499" x2="278.705" y2="74.7275" stroke="#6922FF" stroke-width="4"/>
<line x1="228.081" y1="24.1034" x2="82.3092" y2="276.588" stroke="#6922FF" stroke-width="4"/>
<line x1="299.235" y1="151.345" x2="7.69131" y2="151.345" stroke="#6922FF" stroke-width="4"/>
<path d="M95.0586 179.809C91.9661 179.809 89.3213 178.751 87.124 176.635C85.0081 174.519 83.9502 171.386 83.9502 167.235C83.9502 166.34 83.9909 165.445 84.0723 164.55C84.235 163.573 84.4385 162.719 84.6826 161.986C84.9268 161.173 85.2116 160.521 85.5371 160.033C85.944 159.545 86.3509 159.301 86.7578 159.301C87.1647 159.301 87.5309 159.423 87.8564 159.667C88.2633 159.911 88.7516 160.196 89.3213 160.521C89.9723 160.847 90.8268 161.132 91.8848 161.376C92.9427 161.62 94.4076 161.742 96.2793 161.742C100.755 161.742 105.353 161.05 110.073 159.667C114.793 158.202 119.066 156.168 122.891 153.563C126.797 150.878 129.971 147.663 132.412 143.92C134.935 140.176 136.196 135.945 136.196 131.225C136.196 129.516 135.911 127.847 135.342 126.22C134.772 124.592 133.918 123.168 132.778 121.947C131.639 120.645 130.174 119.587 128.384 118.773C126.675 117.96 124.64 117.553 122.28 117.553C115.77 117.553 109.788 118.977 104.336 121.825C98.9648 124.674 94.082 128.539 89.6875 133.422C85.293 138.223 81.4274 143.798 78.0908 150.146C74.8356 156.493 72.1094 163.207 69.9121 170.287C67.7148 177.286 66.0465 184.407 64.9072 191.649C63.7679 198.892 63.1982 205.769 63.1982 212.279C63.1982 220.092 63.6865 227.335 64.6631 234.008C65.6396 240.6 67.2266 246.296 69.4238 251.098C71.6211 255.899 74.5508 259.683 78.2129 262.45C81.875 265.136 86.3916 266.479 91.7627 266.479C96.6455 266.479 100.959 265.258 104.702 262.816C108.446 260.294 111.701 256.916 114.468 252.685C117.316 248.453 119.717 243.529 121.67 237.914C123.704 232.217 125.454 226.155 126.919 219.726C128.384 213.297 129.645 206.664 130.703 199.828C131.761 192.992 132.697 186.319 133.511 179.809C133.755 178.181 134.935 176.96 137.051 176.146C139.167 175.251 141.405 174.804 143.765 174.804C144.741 174.804 145.758 174.926 146.816 175.17C147.874 175.414 148.77 175.78 149.502 176.269C150.316 176.757 150.885 177.408 151.211 178.222C151.618 179.035 151.699 180.053 151.455 181.273C150.804 184.529 150.112 189.696 149.38 196.776C148.647 203.775 148.281 212.198 148.281 222.045C148.281 230.264 148.322 237.344 148.403 243.285C148.566 249.226 148.77 254.353 149.014 258.666C149.258 262.979 149.502 266.601 149.746 269.53C149.99 272.379 150.234 274.779 150.479 276.732C150.967 277.465 151.211 278.035 151.211 278.441C151.211 279.255 150.804 280.028 149.99 280.761C149.176 281.493 148.159 282.144 146.938 282.714C145.718 283.284 144.334 283.731 142.788 284.057C141.323 284.382 139.899 284.545 138.516 284.545C136.318 284.545 134.65 284.097 133.511 283.202C132.371 282.307 131.517 280.801 130.947 278.686C130.459 276.651 130.133 273.925 129.971 270.507C129.808 267.007 129.645 262.735 129.482 257.689C127.611 261.677 125.291 265.38 122.524 268.798C119.757 272.216 116.665 275.186 113.247 277.709C109.829 280.313 106.086 282.348 102.017 283.812C98.029 285.277 93.8379 286.01 89.4434 286.01C82.6074 286.01 76.3411 284.708 70.6445 282.104C65.0293 279.499 60.1872 275.308 56.1182 269.53C52.0492 263.752 48.8753 256.225 46.5967 246.947C44.3994 237.589 43.3008 226.195 43.3008 212.768C43.3008 203.572 44.1553 194.376 45.8643 185.18C47.6546 175.902 50.1774 167.032 53.4326 158.568C56.7692 150.105 60.7975 142.211 65.5176 134.887C70.319 127.562 75.6901 121.215 81.6309 115.844C87.5716 110.473 94.0413 106.241 101.04 103.148C108.12 100.056 115.607 98.5098 123.501 98.5098C128.628 98.5098 133.185 99.3236 137.173 100.951C141.242 102.579 144.66 104.857 147.427 107.787C150.194 110.635 152.31 114.013 153.774 117.919C155.239 121.744 155.972 125.854 155.972 130.248C155.972 137.491 154.222 144.164 150.723 150.268C147.223 156.29 142.625 161.498 136.929 165.893C131.232 170.287 124.722 173.705 117.397 176.146C110.073 178.588 102.627 179.809 95.0586 179.809ZM198.818 285.521C195.726 285.521 193.203 285.155 191.25 284.423C189.297 283.772 187.791 282.877 186.733 281.737V363.036C186.733 365.315 186.286 367.146 185.391 368.529C184.495 369.994 183.356 371.133 181.973 371.947C180.671 372.761 179.246 373.29 177.7 373.534C176.154 373.86 174.771 374.022 173.55 374.022C171.027 374.022 169.44 373.371 168.789 372.069C168.138 370.767 167.812 369.18 167.812 367.309V192.748C167.812 190.958 167.65 189.534 167.324 188.476C167.08 187.418 166.795 186.604 166.47 186.034C166.226 185.383 165.941 184.895 165.615 184.569C165.371 184.162 165.249 183.715 165.249 183.227C165.249 182.82 165.493 182.453 165.981 182.128C166.47 181.802 167.121 181.518 167.935 181.273C168.748 181.029 169.603 180.867 170.498 180.785C171.475 180.622 172.41 180.541 173.306 180.541C177.293 180.541 180.467 181.64 182.827 183.837C185.269 185.953 186.571 188.435 186.733 191.283C189.338 187.458 192.471 184.285 196.133 181.762C199.795 179.239 204.271 177.978 209.561 177.978C214.443 177.978 218.675 179.117 222.256 181.396C225.918 183.674 228.929 186.807 231.289 190.795C233.73 194.701 235.521 199.34 236.66 204.711C237.881 210.082 238.491 215.86 238.491 222.045C238.491 229.044 237.881 235.757 236.66 242.187C235.439 248.534 233.893 253.987 232.021 258.544C236.172 258.3 239.59 257.73 242.275 256.835C244.961 255.94 247.199 254.719 248.989 253.173C250.861 251.545 252.448 249.592 253.75 247.313C255.133 245.035 256.558 242.431 258.022 239.501C259.162 237.141 260.098 235.432 260.83 234.374C261.644 233.316 262.62 232.787 263.76 232.787C264.818 232.787 265.876 233.113 266.934 233.764C268.073 234.415 269.049 235.229 269.863 236.205C270.758 237.182 271.45 238.24 271.938 239.379C272.508 240.437 272.793 241.413 272.793 242.309C272.793 245.157 271.816 248.412 269.863 252.074C267.91 255.736 264.899 259.195 260.83 262.45C256.842 265.705 251.756 268.472 245.571 270.751C239.468 272.948 232.266 274.047 223.965 274.047C220.547 277.709 216.6 280.517 212.124 282.47C207.648 284.504 203.213 285.521 198.818 285.521ZM203.213 194.701C201.423 194.701 199.673 195.23 197.964 196.288C196.336 197.346 194.79 198.811 193.325 200.683C191.86 202.473 190.558 204.67 189.419 207.274C188.361 209.879 187.466 212.686 186.733 215.697V269.774C188.524 267.17 191.453 265.176 195.522 263.793C199.591 262.41 204.515 261.474 210.293 260.985C211.758 258.788 213.019 256.184 214.077 253.173C215.216 250.08 216.152 246.907 216.885 243.651C217.617 240.396 218.146 237.222 218.472 234.13C218.879 231.037 219.082 228.311 219.082 225.951C219.082 220.255 218.634 215.412 217.739 211.425C216.925 207.437 215.786 204.223 214.321 201.781C212.856 199.258 211.147 197.468 209.194 196.41C207.323 195.271 205.329 194.701 203.213 194.701Z" fill="white"/>
</svg>
