<svg width="582" height="114" viewBox="0 0 582 114" fill="none" xmlns="http://www.w3.org/2000/svg">
<path d="M32.0352 49.2852C30.1797 49.2852 28.5928 48.6504 27.2744 47.3809C26.0049 46.1113 25.3701 44.2314 25.3701 41.7412C25.3701 41.2041 25.3945 40.667 25.4434 40.1299C25.541 39.5439 25.6631 39.0312 25.8096 38.5918C25.9561 38.1035 26.127 37.7129 26.3223 37.4199C26.5664 37.127 26.8105 36.9805 27.0547 36.9805C27.2988 36.9805 27.5186 37.0537 27.7139 37.2002C27.958 37.3467 28.251 37.5176 28.5928 37.7129C28.9834 37.9082 29.4961 38.0791 30.1309 38.2256C30.7656 38.3721 31.6445 38.4453 32.7676 38.4453C35.4531 38.4453 38.2119 38.0303 41.0439 37.2002C43.876 36.3213 46.4395 35.1006 48.7344 33.5381C51.0781 31.9268 52.9824 29.998 54.4473 27.752C55.9609 25.5059 56.7178 22.9668 56.7178 20.1348C56.7178 19.1094 56.5469 18.1084 56.2051 17.1318C55.8633 16.1553 55.3506 15.3008 54.667 14.5684C53.9834 13.7871 53.1045 13.1523 52.0303 12.6641C51.0049 12.1758 49.7842 11.9316 48.3682 11.9316C44.4619 11.9316 40.873 12.7861 37.6016 14.4951C34.3789 16.2041 31.4492 18.5234 28.8125 21.4531C26.1758 24.334 23.8564 27.6787 21.8545 31.4873C19.9014 35.2959 18.2656 39.3242 16.9473 43.5723C15.6289 47.7715 14.6279 52.0439 13.9443 56.3896C13.2607 60.7354 12.9189 64.8613 12.9189 68.7676C12.9189 73.4551 13.2119 77.8008 13.7979 81.8047C14.3838 85.7598 15.3359 89.1777 16.6543 92.0586C17.9727 94.9395 19.7305 97.21 21.9277 98.8701C24.125 100.481 26.835 101.287 30.0576 101.287C32.9873 101.287 35.5752 100.555 37.8213 99.0898C40.0674 97.5762 42.0205 95.5498 43.6807 93.0107C45.3896 90.4717 46.8301 87.5176 48.002 84.1484C49.2227 80.7305 50.2725 77.0928 51.1514 73.2354C52.0303 69.3779 52.7871 65.3984 53.4219 61.2969C54.0566 57.1953 54.6182 53.1914 55.1064 49.2852C55.2529 48.3086 55.9609 47.5762 57.2305 47.0879C58.5 46.5508 59.8428 46.2822 61.2588 46.2822C61.8447 46.2822 62.4551 46.3555 63.0898 46.502C63.7246 46.6484 64.2617 46.8682 64.7012 47.1611C65.1895 47.4541 65.5312 47.8447 65.7266 48.333C65.9707 48.8213 66.0195 49.4316 65.873 50.1641C65.4824 52.1172 65.0674 55.2178 64.6279 59.4658C64.1885 63.665 63.9688 68.7188 63.9688 74.627C63.9688 79.5586 63.9932 83.8066 64.042 87.3711C64.1396 90.9355 64.2617 94.0117 64.4082 96.5996C64.5547 99.1875 64.7012 101.36 64.8477 103.118C64.9941 104.827 65.1406 106.268 65.2871 107.439C65.5801 107.879 65.7266 108.221 65.7266 108.465C65.7266 108.953 65.4824 109.417 64.9941 109.856C64.5059 110.296 63.8955 110.687 63.1631 111.028C62.4307 111.37 61.6006 111.639 60.6729 111.834C59.7939 112.029 58.9395 112.127 58.1094 112.127C56.791 112.127 55.79 111.858 55.1064 111.321C54.4229 110.784 53.9102 109.881 53.5684 108.611C53.2754 107.391 53.0801 105.755 52.9824 103.704C52.8848 101.604 52.7871 99.041 52.6895 96.0137C51.5664 98.4062 50.1748 100.628 48.5146 102.679C46.8545 104.729 44.999 106.512 42.9482 108.025C40.8975 109.588 38.6514 110.809 36.21 111.688C33.8174 112.566 31.3027 113.006 28.666 113.006C24.5645 113.006 20.8047 112.225 17.3867 110.662C14.0176 109.1 11.1123 106.585 8.6709 103.118C6.22949 99.6514 4.3252 95.1348 2.95801 89.5684C1.63965 83.9531 0.980469 77.1172 0.980469 69.0605C0.980469 63.543 1.49316 58.0254 2.51855 52.5078C3.59277 46.9414 5.10645 41.6191 7.05957 36.541C9.06152 31.4629 11.4785 26.7266 14.3105 22.332C17.1914 17.9375 20.4141 14.1289 23.9785 10.9062C27.543 7.68359 31.4248 5.14453 35.624 3.28906C39.8721 1.43359 44.3643 0.505859 49.1006 0.505859C52.1768 0.505859 54.9111 0.994141 57.3037 1.9707C59.7451 2.94727 61.7959 4.31445 63.4561 6.07227C65.1162 7.78125 66.3857 9.80762 67.2646 12.1514C68.1436 14.4463 68.583 16.9121 68.583 19.5488C68.583 23.8945 67.5332 27.8984 65.4336 31.5605C63.334 35.1738 60.5752 38.2988 57.1572 40.9355C53.7393 43.5723 49.833 45.623 45.4385 47.0879C41.0439 48.5527 36.5762 49.2852 32.0352 49.2852ZM84.1836 86.4189C83.793 87.9814 83.0605 88.958 81.9863 89.3486C80.9121 89.6904 79.8379 89.6416 78.7637 89.2021C77.7383 88.7627 76.8594 88.0059 76.127 86.9316C75.4434 85.8574 75.248 84.6855 75.541 83.416C76.2734 80.0957 77.3232 76.4336 78.6904 72.4297C80.1064 68.377 81.498 64.3486 82.8652 60.3447C82.1328 59.2217 81.5469 58.0986 81.1074 56.9756C80.668 55.8037 80.4482 54.583 80.4482 53.3135C80.4482 52.0439 80.9121 50.7256 81.8398 49.3584C82.8164 47.9424 83.9639 46.6484 85.2822 45.4766C86.6494 44.3047 88.041 43.3525 89.457 42.6201C90.9219 41.8389 92.167 41.4482 93.1924 41.4482C94.999 41.4482 96.3418 42.0586 97.2207 43.2793C98.1484 44.5 98.6123 46.1357 98.6123 48.1865C98.6123 49.3096 98.417 50.4326 98.0264 51.5557C97.6846 52.6299 97.2939 53.6553 96.8545 54.6318C96.415 55.5596 96 56.3652 95.6094 57.0488C95.2676 57.7324 95.0723 58.1719 95.0234 58.3672C96.7812 61.4922 98.6123 64.251 100.517 66.6436C102.421 69.0361 104.154 71.4043 105.717 73.748C107.328 76.0918 108.646 78.582 109.672 81.2188C110.697 83.8555 111.21 86.9561 111.21 90.5205C111.21 91.3994 111.137 92.3027 110.99 93.2305C110.893 94.1582 110.722 95.0371 110.478 95.8672C112.235 95.5254 113.773 94.9883 115.092 94.2559C116.459 93.5234 117.631 92.6934 118.607 91.7656C119.633 90.7891 120.463 89.7393 121.098 88.6162C121.781 87.4932 122.343 86.3213 122.782 85.1006C123.319 83.6846 123.856 82.6592 124.394 82.0244C124.931 81.3896 125.541 81.0723 126.225 81.0723C126.859 81.0723 127.494 81.292 128.129 81.7314C128.812 82.1221 129.398 82.6348 129.887 83.2695C130.424 83.9043 130.839 84.5635 131.132 85.2471C131.474 85.9307 131.645 86.541 131.645 87.0781C131.645 87.8105 131.449 88.6895 131.059 89.7148C130.668 90.7402 130.131 91.79 129.447 92.8643C128.812 93.9385 128.08 94.9883 127.25 96.0137C126.42 96.9902 125.565 97.8447 124.687 98.5771C122.343 100.481 119.584 102.093 116.41 103.411C113.236 104.681 109.306 105.486 104.618 105.828C102.812 107.391 100.663 108.66 98.1729 109.637C95.7314 110.662 92.9727 111.175 89.8965 111.175C88.334 111.175 86.7227 110.979 85.0625 110.589C83.4512 110.198 81.8887 109.686 80.375 109.051C78.9102 108.465 77.5674 107.806 76.3467 107.073C75.126 106.341 74.1494 105.608 73.417 104.876C71.5615 103.118 70.3652 101.36 69.8281 99.6025C69.291 97.7959 69.1689 96.1846 69.4619 94.7686C69.7061 93.3525 70.2188 92.2051 71 91.3262C71.7812 90.3984 72.5869 89.9346 73.417 89.9346C73.9053 89.9346 74.6621 90.1543 75.6875 90.5938C76.7617 90.9844 77.9824 91.5215 79.3496 92.2051C80.7168 92.8398 82.2061 93.5234 83.8174 94.2559C85.4287 94.9883 87.04 95.6963 88.6514 96.3799C90.2627 97.0146 91.8252 97.5518 93.3389 97.9912C94.9014 98.3818 96.3174 98.5771 97.5869 98.5771C98.417 97.6006 99.1738 96.3066 99.8574 94.6953C100.541 93.084 100.883 91.3262 100.883 89.4219C100.883 87.0781 100.565 84.9053 99.9307 82.9033C99.2959 80.9014 98.4658 79.0459 97.4404 77.3369C96.415 75.6279 95.2432 74.041 93.9248 72.5762C92.6553 71.0625 91.3613 69.6465 90.043 68.3281C88.8711 71.209 87.8457 74.0654 86.9668 76.8975C86.0879 79.6807 85.1602 82.8545 84.1836 86.4189ZM110.038 36.4678C111.161 36.5654 112.406 36.6387 113.773 36.6875C114.945 36.7852 116.361 36.8584 118.021 36.9072C119.682 36.9072 121.537 36.9316 123.588 36.9805V11.5654C123.588 10.4912 123.49 9.63672 123.295 9.00195C123.148 8.36719 122.978 7.87891 122.782 7.53711C122.636 7.14648 122.465 6.85352 122.27 6.6582C122.123 6.41406 122.05 6.16992 122.05 5.92578C122.05 5.63281 122.196 5.38867 122.489 5.19336C122.782 4.99805 123.173 4.82715 123.661 4.68066C124.149 4.53418 124.662 4.43652 125.199 4.3877C125.785 4.29004 126.347 4.24121 126.884 4.24121C129.374 4.24121 131.327 4.90039 132.743 6.21875C134.208 7.48828 134.94 9.02637 134.94 10.833V37.127C139.53 37.127 144.364 37.0781 149.442 36.9805C154.569 36.8828 159.696 36.7119 164.823 36.4678C165.507 35.7354 166.044 35.4668 166.435 35.6621C166.874 35.8574 167.143 36.3213 167.24 37.0537C167.387 37.7861 167.411 38.6895 167.313 39.7637C167.216 40.8379 167.021 41.8877 166.728 42.9131C166.435 43.8896 166.02 44.7441 165.482 45.4766C164.994 46.209 164.433 46.5752 163.798 46.5752C157.792 46.7217 152.47 46.8193 147.831 46.8682C143.241 46.8682 138.944 46.8682 134.94 46.8682V94.4023C134.94 96.8438 135.404 98.6016 136.332 99.6758C137.26 100.75 138.505 101.287 140.067 101.287C141.581 101.287 142.875 100.75 143.949 99.6758C145.072 98.6016 146.024 97.2588 146.806 95.6475C147.636 94.0361 148.295 92.3027 148.783 90.4473C149.32 88.543 149.76 86.7607 150.102 85.1006C150.395 83.5381 150.883 82.415 151.566 81.7314C152.25 80.999 152.958 80.6328 153.69 80.6328C154.276 80.6328 154.887 80.8281 155.521 81.2188C156.156 81.5605 156.718 82.0244 157.206 82.6104C157.743 83.1963 158.158 83.8555 158.451 84.5879C158.793 85.3203 158.964 86.0527 158.964 86.7852C158.964 86.8828 158.964 87.0049 158.964 87.1514C158.964 87.2979 158.915 87.5176 158.817 87.8105C158.183 90.3008 157.304 92.9131 156.181 95.6475C155.106 98.3818 153.69 100.896 151.933 103.191C150.224 105.486 148.173 107.391 145.78 108.904C143.388 110.418 140.58 111.175 137.357 111.175C135.355 111.175 133.5 110.857 131.791 110.223C130.131 109.637 128.69 108.66 127.47 107.293C126.249 105.975 125.297 104.266 124.613 102.166C123.93 100.066 123.588 97.5273 123.588 94.5488V46.8682C121.928 46.8682 120.438 46.8682 119.12 46.8682C117.851 46.8193 116.776 46.7705 115.897 46.7217C114.872 46.6729 113.969 46.624 113.188 46.5752C112.016 46.5752 110.99 46.0625 110.111 45.0371C109.184 43.9629 108.549 42.791 108.207 41.5215C107.816 40.252 107.768 39.1045 108.061 38.0791C108.305 37.0049 108.964 36.4678 110.038 36.4678ZM183.5 111.175C181.742 111.175 179.936 110.906 178.08 110.369C176.273 109.832 174.613 108.904 173.1 107.586C171.635 106.268 170.414 104.534 169.438 102.386C168.51 100.188 168.046 97.4297 168.046 94.1094C168.046 89.2754 168.681 84.1729 169.95 78.8018C171.269 73.3818 173.148 67.4248 175.59 60.9307H164.164H162.479C162.431 62.3955 162.333 64.251 162.187 66.4971C162.089 68.7432 161.894 71.1357 161.601 73.6748C161.308 76.2139 160.917 78.7773 160.429 81.3652C159.989 83.9531 159.428 86.3457 158.744 88.543C158.256 90.1055 157.475 91.0088 156.4 91.2529C155.375 91.4971 154.35 91.3262 153.324 90.7402C152.299 90.1055 151.469 89.2021 150.834 88.0303C150.199 86.8584 150.053 85.6377 150.395 84.3682C150.785 82.8545 151.127 81.0234 151.42 78.875C151.713 76.6777 151.933 74.3828 152.079 71.9902C152.274 69.5488 152.421 67.1318 152.519 64.7393C152.616 62.2979 152.689 60.125 152.738 58.2207C150.883 57.1953 149.345 55.9014 148.124 54.3389C146.903 52.7275 146.293 50.8232 146.293 48.626C146.293 47.6006 146.488 46.6729 146.879 45.8428C147.318 44.9639 147.88 44.2314 148.563 43.6455C149.247 43.0107 150.053 42.5469 150.98 42.2539C151.908 41.9121 152.86 41.7412 153.837 41.7412C154.716 41.7412 155.619 41.8633 156.547 42.1074C157.523 42.3516 158.427 42.791 159.257 43.4258C160.136 44.0605 160.917 44.8906 161.601 45.916C162.284 46.9414 162.846 48.2109 163.285 49.7246C164.506 49.8711 165.531 49.9932 166.361 50.0908C167.24 50.1396 167.973 50.1885 168.559 50.2373C169.145 50.2861 169.633 50.3105 170.023 50.3105C170.414 50.3105 170.805 50.3105 171.195 50.3105H179.032C179.472 50.3105 180.106 50.5791 180.937 51.1162C181.815 51.6533 182.67 52.3613 183.5 53.2402C184.33 54.0703 185.014 54.9736 185.551 55.9502C186.137 56.9268 186.356 57.8545 186.21 58.7334C186.21 59.0264 186.039 59.7344 185.697 60.8574C185.355 61.9805 184.94 63.3965 184.452 65.1055C183.964 66.8145 183.427 68.792 182.841 71.0381C182.255 73.2354 181.718 75.5547 181.229 77.9961C180.741 80.4375 180.326 82.9766 179.984 85.6133C179.643 88.2012 179.472 90.7402 179.472 93.2305C179.472 94.2559 179.594 95.2568 179.838 96.2334C180.082 97.21 180.448 98.0889 180.937 98.8701C181.425 99.6025 182.035 100.188 182.768 100.628C183.549 101.067 184.452 101.287 185.478 101.287C187.187 101.287 188.651 100.75 189.872 99.6758C191.093 98.6016 192.118 97.2588 192.948 95.6475C193.778 94.0361 194.438 92.3027 194.926 90.4473C195.463 88.543 195.902 86.7607 196.244 85.1006C196.537 83.5381 197.025 82.415 197.709 81.7314C198.393 80.999 199.101 80.6328 199.833 80.6328C200.419 80.6328 201.029 80.8281 201.664 81.2188C202.299 81.5605 202.86 82.0244 203.349 82.6104C203.886 83.1963 204.301 83.8555 204.594 84.5879C204.936 85.3203 205.106 86.0527 205.106 86.7852C205.106 87.0293 205.082 87.2246 205.033 87.3711C204.984 87.5176 204.96 87.6641 204.96 87.8105C204.276 90.3008 203.373 92.9131 202.25 95.6475C201.176 98.3818 199.784 100.896 198.075 103.191C196.366 105.486 194.315 107.391 191.923 108.904C189.53 110.418 186.723 111.175 183.5 111.175ZM251.835 82.2441C251.933 81.6582 252.25 81.1699 252.787 80.7793C253.373 80.3887 254.032 80.1201 254.765 79.9736C255.497 79.8271 256.254 79.8271 257.035 79.9736C257.865 80.1201 258.573 80.4619 259.159 80.999C259.794 81.4873 260.233 82.1953 260.478 83.123C260.771 84.002 260.746 85.1494 260.404 86.5654C259.965 88.6162 259.232 90.5449 258.207 92.3516C257.23 94.1094 255.985 95.6719 254.472 97.0391C252.958 98.4062 251.176 99.4805 249.125 100.262C247.074 101.043 244.779 101.434 242.24 101.434C240.873 101.434 239.579 101.36 238.358 101.214C237.187 101.067 236.039 100.799 234.916 100.408C233.061 103.631 230.668 106.219 227.738 108.172C224.809 110.174 221.195 111.175 216.898 111.175C213.09 111.175 209.818 110.418 207.084 108.904C204.35 107.439 202.079 105.438 200.272 102.898C198.466 100.311 197.123 97.332 196.244 93.9629C195.414 90.5938 194.999 87.0293 194.999 83.2695C194.999 77.752 195.634 72.8203 196.903 68.4746C198.222 64.0801 199.735 60.3691 201.444 57.3418C203.153 54.2656 204.838 51.9219 206.498 50.3105C208.207 48.6992 209.477 47.8936 210.307 47.8936C211.283 47.8936 212.162 48.333 212.943 49.2119C213.773 50.042 214.359 51.043 214.701 52.2148C215.092 53.3379 215.189 54.4854 214.994 55.6572C214.848 56.8291 214.286 57.7324 213.31 58.3672C212.724 59.2949 212.016 60.3691 211.186 61.5898C210.404 62.8105 209.647 64.3486 208.915 66.2041C208.231 68.0107 207.646 70.2324 207.157 72.8691C206.669 75.5059 206.425 78.6797 206.425 82.3906C206.425 85.5645 206.693 88.3232 207.23 90.667C207.816 93.0107 208.598 94.9883 209.574 96.5996C210.6 98.1621 211.747 99.334 213.017 100.115C214.335 100.896 215.727 101.287 217.191 101.287C219.34 101.287 221.098 100.774 222.465 99.749C223.881 98.6748 225.077 97.2832 226.054 95.5742C222.538 92.5469 219.853 88.7139 217.997 84.0752C216.19 79.3877 215.287 74.334 215.287 68.9141C215.287 66.5703 215.531 64.3486 216.02 62.249C216.557 60.1006 217.313 58.2207 218.29 56.6094C219.315 54.998 220.585 53.7285 222.099 52.8008C223.612 51.8242 225.37 51.3359 227.372 51.3359C229.13 51.3359 230.79 51.9707 232.353 53.2402C233.915 54.5098 235.282 56.2676 236.454 58.5137C237.626 60.7598 238.529 63.4209 239.164 66.4971C239.848 69.5732 240.189 72.918 240.189 76.5312C240.189 79.3145 240.019 82.0732 239.677 84.8076C239.335 87.542 238.798 90.1787 238.065 92.7178C238.603 92.9131 239.091 93.0352 239.53 93.084C240.019 93.084 240.531 93.084 241.068 93.084C242.68 93.084 244.096 92.791 245.316 92.2051C246.586 91.6191 247.66 90.8379 248.539 89.8613C249.418 88.8848 250.126 87.7373 250.663 86.4189C251.2 85.1006 251.591 83.709 251.835 82.2441ZM223.197 68.3281C223.197 71.6973 223.71 74.8955 224.735 77.9229C225.81 80.9502 227.201 83.5869 228.91 85.833C229.203 83.4404 229.35 81.1455 229.35 78.9482C229.35 76.4092 229.301 74.0654 229.203 71.917C229.154 69.7197 228.983 67.8398 228.69 66.2773C228.446 64.7148 228.08 63.4941 227.592 62.6152C227.152 61.6875 226.542 61.2236 225.761 61.2236C224.052 61.2236 223.197 63.5918 223.197 68.3281ZM276.664 28.4111C276.664 26.9951 276.542 25.9697 276.298 25.335C276.103 24.7002 276.005 24.1143 276.005 23.5771C276.005 22.8447 276.396 22.2344 277.177 21.7461C277.958 21.2578 278.886 21.0137 279.96 21.0137C282.45 21.0137 284.452 21.6729 285.966 22.9912C287.528 24.2607 288.31 25.8232 288.31 27.6787V76.6777C290.019 76.4824 291.947 75.9941 294.096 75.2129C296.293 74.4316 298.539 73.3574 300.834 71.9902C303.129 70.5742 305.351 68.8408 307.499 66.79C309.696 64.7393 311.649 62.3467 313.358 59.6123C315.067 56.8779 316.435 53.8018 317.46 50.3838C318.534 46.917 319.071 43.084 319.071 38.8848C319.071 36.0527 318.607 33.123 317.68 30.0957C316.801 27.0684 315.385 24.3096 313.432 21.8193C311.479 19.3291 308.939 17.2783 305.814 15.667C302.738 14.0557 299.003 13.25 294.608 13.25C288.603 13.25 283.451 14.1777 279.154 16.0332C274.857 17.8887 271.342 20.3789 268.607 23.5039C265.922 26.6289 263.944 30.2666 262.675 34.417C261.405 38.5186 260.771 42.8643 260.771 47.4541C260.771 50.7744 261.039 53.582 261.576 55.877C262.162 58.123 262.797 59.9785 263.48 61.4434C264.164 62.8594 264.799 63.9092 265.385 64.5928C265.971 65.2764 266.312 65.667 266.41 65.7646C267.24 65.5205 267.826 65.6182 268.168 66.0576C268.51 66.4971 268.681 67.083 268.681 67.8154C268.681 68.499 268.437 69.5244 267.948 70.8916C267.509 72.2588 266.898 73.5527 266.117 74.7734C265.336 75.9453 264.433 76.8486 263.407 77.4834C262.382 78.0693 261.332 77.9473 260.258 77.1172C259.672 76.5801 258.769 75.6035 257.548 74.1875C256.327 72.7715 255.106 70.8916 253.886 68.5479C252.714 66.1553 251.664 63.2988 250.736 59.9785C249.809 56.6094 249.345 52.7275 249.345 48.333C249.345 41.3018 250.443 34.9541 252.641 29.29C254.838 23.5771 257.914 18.6943 261.869 14.6416C265.873 10.5889 270.634 7.46387 276.151 5.2666C281.669 3.06934 287.772 1.9707 294.462 1.9707C299.931 1.9707 304.887 2.87402 309.33 4.68066C313.822 6.4873 317.631 9.02637 320.756 12.2979C323.93 15.5205 326.371 19.3779 328.08 23.8701C329.789 28.3623 330.644 33.2695 330.644 38.5918C330.644 45.1348 329.472 51.1895 327.128 56.7559C324.784 62.2734 321.659 67.1807 317.753 71.4775C313.847 75.7744 309.33 79.3389 304.203 82.1709C299.125 85.0029 293.827 86.9316 288.31 87.957V107.732C288.31 109.002 287.895 109.881 287.064 110.369C286.234 110.906 285.258 111.175 284.135 111.175C283.256 111.175 282.377 111.053 281.498 110.809C280.619 110.564 279.813 110.247 279.081 109.856C278.397 109.466 277.812 109.002 277.323 108.465C276.884 107.977 276.664 107.439 276.664 106.854V28.4111ZM377.226 101.287C378.739 101.287 380.033 100.75 381.107 99.6758C382.23 98.6016 383.183 97.2588 383.964 95.6475C384.794 94.0361 385.453 92.3027 385.941 90.4473C386.479 88.543 386.918 86.7607 387.26 85.1006C387.602 83.5381 388.09 82.415 388.725 81.7314C389.408 80.999 390.141 80.6328 390.922 80.6328C391.508 80.6328 392.094 80.8281 392.68 81.2188C393.314 81.5605 393.876 82.0244 394.364 82.6104C394.901 83.1963 395.316 83.8555 395.609 84.5879C395.951 85.3203 396.122 86.0527 396.122 86.7852C396.122 86.8828 396.122 87.0049 396.122 87.1514C396.122 87.2979 396.073 87.5176 395.976 87.8105C395.341 90.3008 394.462 92.9131 393.339 95.6475C392.265 98.3818 390.873 100.896 389.164 103.191C387.455 105.486 385.38 107.391 382.938 108.904C380.546 110.418 377.738 111.175 374.516 111.175C371.879 111.175 369.584 110.613 367.631 109.49C365.678 108.367 364.14 106.878 363.017 105.022C361.503 106.731 359.672 108.172 357.523 109.344C355.424 110.564 352.958 111.175 350.126 111.175C347.196 111.175 344.608 110.589 342.362 109.417C340.165 108.245 338.31 106.658 336.796 104.656C335.282 102.605 334.135 100.213 333.354 97.4785C332.621 94.6953 332.255 91.7168 332.255 88.543C332.255 82.293 333.256 76.6777 335.258 71.6973C337.26 66.7168 339.921 62.4932 343.241 59.0264C346.562 55.5107 350.346 52.8252 354.594 50.9697C358.891 49.1143 363.334 48.1865 367.924 48.1865C369.975 48.1865 371.635 48.748 372.904 49.8711C374.174 50.9941 374.809 52.5322 374.809 54.4854C374.809 55.7549 374.662 56.6582 374.369 57.1953C374.125 57.6836 373.637 57.9277 372.904 57.9277C372.221 57.9277 371.513 57.8789 370.78 57.7812C370.048 57.6836 369.291 57.6348 368.51 57.6348C365.678 57.6348 362.797 58.2695 359.867 59.5391C356.938 60.7598 354.276 62.6641 351.884 65.252C349.54 67.791 347.611 71.0381 346.098 74.9932C344.584 78.8994 343.827 83.5625 343.827 88.9824C343.827 92.9375 344.584 95.9893 346.098 98.1377C347.611 100.237 349.687 101.287 352.323 101.287C354.374 101.287 356.083 100.53 357.45 99.0166C358.817 97.4541 359.916 95.623 360.746 93.5234V70.3789C360.746 69.6465 360.697 69.0361 360.6 68.5479C360.551 68.0596 360.478 67.6445 360.38 67.3027C360.331 66.9609 360.282 66.668 360.233 66.4238C360.185 66.1309 360.16 65.8623 360.16 65.6182C360.16 64.8369 360.526 64.2266 361.259 63.7871C362.04 63.2988 362.968 63.0547 364.042 63.0547C366.532 63.0547 368.51 63.7139 369.975 65.0322C371.439 66.3018 372.172 67.8398 372.172 69.6465V94.4023C372.172 95.2324 372.27 96.0625 372.465 96.8926C372.66 97.6738 372.953 98.4062 373.344 99.0898C373.734 99.7246 374.247 100.262 374.882 100.701C375.565 101.092 376.347 101.287 377.226 101.287ZM374.442 36.4678C375.565 36.5654 376.811 36.6387 378.178 36.6875C379.35 36.7852 380.766 36.8584 382.426 36.9072C384.086 36.9072 385.941 36.9316 387.992 36.9805V11.5654C387.992 10.4912 387.895 9.63672 387.699 9.00195C387.553 8.36719 387.382 7.87891 387.187 7.53711C387.04 7.14648 386.869 6.85352 386.674 6.6582C386.527 6.41406 386.454 6.16992 386.454 5.92578C386.454 5.63281 386.601 5.38867 386.894 5.19336C387.187 4.99805 387.577 4.82715 388.065 4.68066C388.554 4.53418 389.066 4.43652 389.604 4.3877C390.189 4.29004 390.751 4.24121 391.288 4.24121C393.778 4.24121 395.731 4.90039 397.147 6.21875C398.612 7.48828 399.345 9.02637 399.345 10.833V37.127C403.935 37.127 408.769 37.0781 413.847 36.9805C418.974 36.8828 424.101 36.7119 429.228 36.4678C429.911 35.7354 430.448 35.4668 430.839 35.6621C431.278 35.8574 431.547 36.3213 431.645 37.0537C431.791 37.7861 431.815 38.6895 431.718 39.7637C431.62 40.8379 431.425 41.8877 431.132 42.9131C430.839 43.8896 430.424 44.7441 429.887 45.4766C429.398 46.209 428.837 46.5752 428.202 46.5752C422.196 46.7217 416.874 46.8193 412.235 46.8682C407.646 46.8682 403.349 46.8682 399.345 46.8682V94.4023C399.345 96.8438 399.809 98.6016 400.736 99.6758C401.664 100.75 402.909 101.287 404.472 101.287C405.985 101.287 407.279 100.75 408.354 99.6758C409.477 98.6016 410.429 97.2588 411.21 95.6475C412.04 94.0361 412.699 92.3027 413.188 90.4473C413.725 88.543 414.164 86.7607 414.506 85.1006C414.799 83.5381 415.287 82.415 415.971 81.7314C416.654 80.999 417.362 80.6328 418.095 80.6328C418.681 80.6328 419.291 80.8281 419.926 81.2188C420.561 81.5605 421.122 82.0244 421.61 82.6104C422.147 83.1963 422.562 83.8555 422.855 84.5879C423.197 85.3203 423.368 86.0527 423.368 86.7852C423.368 86.8828 423.368 87.0049 423.368 87.1514C423.368 87.2979 423.319 87.5176 423.222 87.8105C422.587 90.3008 421.708 92.9131 420.585 95.6475C419.511 98.3818 418.095 100.896 416.337 103.191C414.628 105.486 412.577 107.391 410.185 108.904C407.792 110.418 404.984 111.175 401.762 111.175C399.76 111.175 397.904 110.857 396.195 110.223C394.535 109.637 393.095 108.66 391.874 107.293C390.653 105.975 389.701 104.266 389.018 102.166C388.334 100.066 387.992 97.5273 387.992 94.5488V46.8682C386.332 46.8682 384.843 46.8682 383.524 46.8682C382.255 46.8193 381.181 46.7705 380.302 46.7217C379.276 46.6729 378.373 46.624 377.592 46.5752C376.42 46.5752 375.395 46.0625 374.516 45.0371C373.588 43.9629 372.953 42.791 372.611 41.5215C372.221 40.252 372.172 39.1045 372.465 38.0791C372.709 37.0049 373.368 36.4678 374.442 36.4678ZM415.238 14.5684C415.238 13.4941 415.141 12.6396 414.945 12.0049C414.799 11.3701 414.628 10.8818 414.433 10.54C414.286 10.1494 414.115 9.85645 413.92 9.66113C413.773 9.41699 413.7 9.17285 413.7 8.92871C413.7 8.63574 413.847 8.3916 414.14 8.19629C414.433 8.00098 414.823 7.83008 415.312 7.68359C415.8 7.53711 416.312 7.43945 416.85 7.39062C417.436 7.29297 417.997 7.24414 418.534 7.24414C421.024 7.24414 422.978 7.90332 424.394 9.22168C425.858 10.4912 426.591 12.0293 426.591 13.8359V63.0547C427.616 60.9551 428.715 59.002 429.887 57.1953C431.107 55.3887 432.401 53.8262 433.769 52.5078C435.185 51.1406 436.674 50.0908 438.236 49.3584C439.848 48.5771 441.581 48.1865 443.437 48.1865C445.927 48.1865 447.978 48.6504 449.589 49.5781C451.2 50.5059 452.47 51.7021 453.397 53.167C454.325 54.6318 454.96 56.2676 455.302 58.0742C455.692 59.8809 455.888 61.6387 455.888 63.3477V94.4023C455.888 94.7441 455.912 95.3057 455.961 96.0869C456.01 96.8193 456.156 97.5762 456.4 98.3574C456.645 99.1387 457.011 99.8223 457.499 100.408C458.036 100.994 458.793 101.287 459.77 101.287C461.283 101.287 462.577 100.75 463.651 99.6758C464.774 98.6016 465.727 97.2588 466.508 95.6475C467.338 94.0361 467.997 92.3027 468.485 90.4473C469.022 88.543 469.462 86.7607 469.804 85.1006C470.097 83.5869 470.536 82.4883 471.122 81.8047C471.757 81.1211 472.416 80.7549 473.1 80.7061C473.832 80.6084 474.564 80.7793 475.297 81.2188C476.029 81.6582 476.664 82.2441 477.201 82.9766C477.738 83.6602 478.129 84.4414 478.373 85.3203C478.666 86.1992 478.715 87.0293 478.52 87.8105C477.836 90.3008 476.933 92.9131 475.81 95.6475C474.735 98.3818 473.344 100.896 471.635 103.191C469.926 105.486 467.875 107.391 465.482 108.904C463.09 110.418 460.282 111.175 457.06 111.175C455.058 111.175 453.275 110.784 451.713 110.003C450.199 109.271 448.881 108.27 447.758 107C446.684 105.73 445.854 104.241 445.268 102.532C444.73 100.823 444.462 99.0166 444.462 97.1123V66.6436C444.462 65.4717 444.438 64.373 444.389 63.3477C444.34 62.3223 444.193 61.4189 443.949 60.6377C443.754 59.8564 443.437 59.2461 442.997 58.8066C442.606 58.3184 442.045 58.0742 441.312 58.0742C440.238 58.0742 438.92 58.8066 437.357 60.2715C435.795 61.7363 434.257 63.6406 432.743 65.9844C431.229 68.3281 429.887 70.9893 428.715 73.9678C427.592 76.8975 426.884 79.8516 426.591 82.8301V104.729C426.591 105.462 426.566 106.219 426.518 107C426.518 107.732 426.371 108.392 426.078 108.978C425.834 109.612 425.419 110.125 424.833 110.516C424.296 110.955 423.49 111.175 422.416 111.175C421.684 111.175 420.878 111.077 419.999 110.882C419.169 110.735 418.388 110.418 417.655 109.93C416.972 109.49 416.386 108.831 415.897 107.952C415.458 107.122 415.238 105.999 415.238 104.583V14.5684ZM525.321 82.2441C525.419 81.6582 525.736 81.1699 526.273 80.7793C526.859 80.3887 527.519 80.1201 528.251 79.9736C528.983 79.8271 529.74 79.8271 530.521 79.9736C531.352 80.1201 532.06 80.4619 532.646 80.999C533.28 81.4873 533.72 82.1953 533.964 83.123C534.257 84.002 534.232 85.1494 533.891 86.5654C533.451 88.6162 532.719 90.5449 531.693 92.3516C530.717 94.1094 529.472 95.6719 527.958 97.0391C526.444 98.4062 524.662 99.4805 522.611 100.262C520.561 101.043 518.266 101.434 515.727 101.434C514.359 101.434 513.065 101.36 511.845 101.214C510.673 101.067 509.525 100.799 508.402 100.408C506.547 103.631 504.154 106.219 501.225 108.172C498.295 110.174 494.682 111.175 490.385 111.175C486.576 111.175 483.305 110.418 480.57 108.904C477.836 107.439 475.565 105.438 473.759 102.898C471.952 100.311 470.609 97.332 469.73 93.9629C468.9 90.5938 468.485 87.0293 468.485 83.2695C468.485 77.752 469.12 72.8203 470.39 68.4746C471.708 64.0801 473.222 60.3691 474.931 57.3418C476.64 54.2656 478.324 51.9219 479.984 50.3105C481.693 48.6992 482.963 47.8936 483.793 47.8936C484.77 47.8936 485.648 48.333 486.43 49.2119C487.26 50.042 487.846 51.043 488.188 52.2148C488.578 53.3379 488.676 54.4854 488.48 55.6572C488.334 56.8291 487.772 57.7324 486.796 58.3672C486.21 59.2949 485.502 60.3691 484.672 61.5898C483.891 62.8105 483.134 64.3486 482.401 66.2041C481.718 68.0107 481.132 70.2324 480.644 72.8691C480.155 75.5059 479.911 78.6797 479.911 82.3906C479.911 85.5645 480.18 88.3232 480.717 90.667C481.303 93.0107 482.084 94.9883 483.061 96.5996C484.086 98.1621 485.233 99.334 486.503 100.115C487.821 100.896 489.213 101.287 490.678 101.287C492.826 101.287 494.584 100.774 495.951 99.749C497.367 98.6748 498.563 97.2832 499.54 95.5742C496.024 92.5469 493.339 88.7139 491.483 84.0752C489.677 79.3877 488.773 74.334 488.773 68.9141C488.773 66.5703 489.018 64.3486 489.506 62.249C490.043 60.1006 490.8 58.2207 491.776 56.6094C492.802 54.998 494.071 53.7285 495.585 52.8008C497.099 51.8242 498.856 51.3359 500.858 51.3359C502.616 51.3359 504.276 51.9707 505.839 53.2402C507.401 54.5098 508.769 56.2676 509.94 58.5137C511.112 60.7598 512.016 63.4209 512.65 66.4971C513.334 69.5732 513.676 72.918 513.676 76.5312C513.676 79.3145 513.505 82.0732 513.163 84.8076C512.821 87.542 512.284 90.1787 511.552 92.7178C512.089 92.9131 512.577 93.0352 513.017 93.084C513.505 93.084 514.018 93.084 514.555 93.084C516.166 93.084 517.582 92.791 518.803 92.2051C520.072 91.6191 521.146 90.8379 522.025 89.8613C522.904 88.8848 523.612 87.7373 524.149 86.4189C524.687 85.1006 525.077 83.709 525.321 82.2441ZM496.684 68.3281C496.684 71.6973 497.196 74.8955 498.222 77.9229C499.296 80.9502 500.688 83.5869 502.396 85.833C502.689 83.4404 502.836 81.1455 502.836 78.9482C502.836 76.4092 502.787 74.0654 502.689 71.917C502.641 69.7197 502.47 67.8398 502.177 66.2773C501.933 64.7148 501.566 63.4941 501.078 62.6152C500.639 61.6875 500.028 61.2236 499.247 61.2236C497.538 61.2236 496.684 63.5918 496.684 68.3281ZM533.891 86.4189C533.5 87.9814 532.768 88.958 531.693 89.3486C530.619 89.6904 529.545 89.6416 528.471 89.2021C527.445 88.7627 526.566 88.0059 525.834 86.9316C525.15 85.8574 524.955 84.6855 525.248 83.416C525.98 80.0957 527.03 76.4336 528.397 72.4297C529.813 68.377 531.205 64.3486 532.572 60.3447C531.84 59.2217 531.254 58.0986 530.814 56.9756C530.375 55.8037 530.155 54.583 530.155 53.3135C530.155 52.0439 530.619 50.7256 531.547 49.3584C532.523 47.9424 533.671 46.6484 534.989 45.4766C536.356 44.3047 537.748 43.3525 539.164 42.6201C540.629 41.8389 541.874 41.4482 542.899 41.4482C544.706 41.4482 546.049 42.0586 546.928 43.2793C547.855 44.5 548.319 46.1357 548.319 48.1865C548.319 49.3096 548.124 50.4326 547.733 51.5557C547.392 52.6299 547.001 53.6553 546.562 54.6318C546.122 55.5596 545.707 56.3652 545.316 57.0488C544.975 57.7324 544.779 58.1719 544.73 58.3672C546.488 61.4922 548.319 64.251 550.224 66.6436C552.128 69.0361 553.861 71.4043 555.424 73.748C557.035 76.0918 558.354 78.582 559.379 81.2188C560.404 83.8555 560.917 86.9561 560.917 90.5205C560.917 91.3994 560.844 92.3027 560.697 93.2305C560.6 94.1582 560.429 95.0371 560.185 95.8672C561.942 95.5254 563.48 94.9883 564.799 94.2559C566.166 93.5234 567.338 92.6934 568.314 91.7656C569.34 90.7891 570.17 89.7393 570.805 88.6162C571.488 87.4932 572.05 86.3213 572.489 85.1006C573.026 83.6846 573.563 82.6592 574.101 82.0244C574.638 81.3896 575.248 81.0723 575.932 81.0723C576.566 81.0723 577.201 81.292 577.836 81.7314C578.52 82.1221 579.105 82.6348 579.594 83.2695C580.131 83.9043 580.546 84.5635 580.839 85.2471C581.181 85.9307 581.352 86.541 581.352 87.0781C581.352 87.8105 581.156 88.6895 580.766 89.7148C580.375 90.7402 579.838 91.79 579.154 92.8643C578.52 93.9385 577.787 94.9883 576.957 96.0137C576.127 96.9902 575.272 97.8447 574.394 98.5771C572.05 100.481 569.291 102.093 566.117 103.411C562.943 104.681 559.013 105.486 554.325 105.828C552.519 107.391 550.37 108.66 547.88 109.637C545.438 110.662 542.68 111.175 539.604 111.175C538.041 111.175 536.43 110.979 534.77 110.589C533.158 110.198 531.596 109.686 530.082 109.051C528.617 108.465 527.274 107.806 526.054 107.073C524.833 106.341 523.856 105.608 523.124 104.876C521.269 103.118 520.072 101.36 519.535 99.6025C518.998 97.7959 518.876 96.1846 519.169 94.7686C519.413 93.3525 519.926 92.2051 520.707 91.3262C521.488 90.3984 522.294 89.9346 523.124 89.9346C523.612 89.9346 524.369 90.1543 525.395 90.5938C526.469 90.9844 527.689 91.5215 529.057 92.2051C530.424 92.8398 531.913 93.5234 533.524 94.2559C535.136 94.9883 536.747 95.6963 538.358 96.3799C539.97 97.0146 541.532 97.5518 543.046 97.9912C544.608 98.3818 546.024 98.5771 547.294 98.5771C548.124 97.6006 548.881 96.3066 549.564 94.6953C550.248 93.084 550.59 91.3262 550.59 89.4219C550.59 87.0781 550.272 84.9053 549.638 82.9033C549.003 80.9014 548.173 79.0459 547.147 77.3369C546.122 75.6279 544.95 74.041 543.632 72.5762C542.362 71.0625 541.068 69.6465 539.75 68.3281C538.578 71.209 537.553 74.0654 536.674 76.8975C535.795 79.6807 534.867 82.8545 533.891 86.4189Z" fill="white"/>
</svg>
