<svg width="366" height="241" viewBox="0 0 366 241" fill="none" xmlns="http://www.w3.org/2000/svg">
<path d="M9.99995 127.439C9.99995 187.702 265.335 30 190.5 30C115.665 30 366 187.702 366 127.439C366 -13.0825 230 45.703 190.5 165.69C155.5 49.7294 9.99995 -5.43232 9.99995 127.439Z" fill="#6922FF"/>
<path d="M281.75 20.25C281.75 27.5833 281 32.5 279.5 35C278 37.6667 274.833 39 270 39C264.833 39 262.25 38.3333 262.25 37C261.083 44 252.25 68.9167 235.75 111.75C219.083 154.75 209.833 176.417 208 176.75C202.667 177.583 196.167 178 188.5 178C184.5 178 178.75 177.583 171.25 176.75C169.417 175.917 160.25 154.083 143.75 111.25C127.083 68.5833 118.167 43.8333 117 37C117 38.3333 114.417 39 109.25 39C104.417 39 101.25 37.6667 99.75 35C98.25 32.5 97.5 27.5833 97.5 20.25C97.5 11.75 98.4167 7 100.25 6C102.417 4 115.417 3 139.25 3C156.417 3 165 3.91667 165 5.75C168.667 7.91667 170.5 15.3333 170.5 28C170.5 29.8333 170.417 31.25 170.25 32.25C170.083 33.25 169.417 34.25 168.25 35.25C167.083 36.25 165.417 36.75 163.25 36.75C158.417 36.75 156 36.4167 156 35.75C155.333 35.75 155 36.5833 155 38.25C155 42.4167 157.25 51.9167 161.75 66.75C168.583 66.0833 177.667 65.75 189 65.75C201.167 65.75 210.667 66.0833 217.5 66.75C222 51.75 224.25 42.1667 224.25 38C224.25 36.6667 223.917 35.9167 223.25 35.75C222.25 36.4167 220.083 36.75 216.75 36.75C214.25 36.75 212.417 36.1667 211.25 35C209.917 33.8333 209.167 32.6667 209 31.5C208.833 30.3333 208.75 28.4167 208.75 25.75C208.75 14.75 210.583 8.08333 214.25 5.75C214.25 3.91667 222.833 3 240 3C263.833 3 276.833 4 279 6C280.833 7 281.75 11.75 281.75 20.25ZM208.5 95.75C202.167 96.25 196.083 96.5 190.25 96.5C183.417 96.5 177 96.1667 171 95.5C178.5 117.667 184.75 134.833 189.75 147C194.417 135.5 200.667 118.417 208.5 95.75Z" fill="white"/>
</svg>
