<svg width="1256" height="437" viewBox="0 0 1256 437" fill="none" xmlns="http://www.w3.org/2000/svg">
<path d="M-4.57764e-05 137C-4.57764e-05 211.835 255.335 16 180.5 16C105.665 16 356 211.835 356 137C356 -37.5 220 35.5 180.5 184.5C145.5 40.5 -4.57764e-05 -28 -4.57764e-05 137Z" fill="#6922FF"/>
<path d="M302.535 185.285C300.68 185.285 299.093 184.65 297.774 183.381C296.505 182.111 295.87 180.231 295.87 177.741C295.87 177.204 295.895 176.667 295.943 176.13C296.041 175.544 296.163 175.031 296.31 174.592C296.456 174.104 296.627 173.713 296.822 173.42C297.066 173.127 297.311 172.98 297.555 172.98C297.799 172.98 298.019 173.054 298.214 173.2C298.458 173.347 298.751 173.518 299.093 173.713C299.483 173.908 299.996 174.079 300.631 174.226C301.266 174.372 302.145 174.445 303.268 174.445C305.953 174.445 308.712 174.03 311.544 173.2C314.376 172.321 316.939 171.101 319.234 169.538C321.578 167.927 323.482 165.998 324.947 163.752C326.461 161.506 327.218 158.967 327.218 156.135C327.218 155.109 327.047 154.108 326.705 153.132C326.363 152.155 325.851 151.301 325.167 150.568C324.483 149.787 323.604 149.152 322.53 148.664C321.505 148.176 320.284 147.932 318.868 147.932C314.962 147.932 311.373 148.786 308.102 150.495C304.879 152.204 301.949 154.523 299.312 157.453C296.676 160.334 294.356 163.679 292.354 167.487C290.401 171.296 288.766 175.324 287.447 179.572C286.129 183.771 285.128 188.044 284.444 192.39C283.761 196.735 283.419 200.861 283.419 204.768C283.419 209.455 283.712 213.801 284.298 217.805C284.884 221.76 285.836 225.178 287.154 228.059C288.473 230.939 290.23 233.21 292.428 234.87C294.625 236.481 297.335 237.287 300.558 237.287C303.487 237.287 306.075 236.555 308.321 235.09C310.567 233.576 312.521 231.55 314.181 229.011C315.89 226.472 317.33 223.518 318.502 220.148C319.723 216.73 320.772 213.093 321.651 209.235C322.53 205.378 323.287 201.398 323.922 197.297C324.557 193.195 325.118 189.191 325.606 185.285C325.753 184.309 326.461 183.576 327.73 183.088C329 182.551 330.343 182.282 331.759 182.282C332.345 182.282 332.955 182.355 333.59 182.502C334.225 182.648 334.762 182.868 335.201 183.161C335.689 183.454 336.031 183.845 336.227 184.333C336.471 184.821 336.52 185.432 336.373 186.164C335.982 188.117 335.567 191.218 335.128 195.466C334.688 199.665 334.469 204.719 334.469 210.627C334.469 215.559 334.493 219.807 334.542 223.371C334.64 226.936 334.762 230.012 334.908 232.6C335.055 235.188 335.201 237.36 335.348 239.118C335.494 240.827 335.641 242.268 335.787 243.439C336.08 243.879 336.227 244.221 336.227 244.465C336.227 244.953 335.982 245.417 335.494 245.856C335.006 246.296 334.396 246.687 333.663 247.028C332.931 247.37 332.101 247.639 331.173 247.834C330.294 248.029 329.439 248.127 328.609 248.127C327.291 248.127 326.29 247.858 325.606 247.321C324.923 246.784 324.41 245.881 324.068 244.611C323.775 243.391 323.58 241.755 323.482 239.704C323.385 237.604 323.287 235.041 323.189 232.014C322.066 234.406 320.675 236.628 319.015 238.679C317.354 240.729 315.499 242.512 313.448 244.025C311.397 245.588 309.151 246.809 306.71 247.688C304.317 248.566 301.803 249.006 299.166 249.006C295.064 249.006 291.305 248.225 287.887 246.662C284.518 245.1 281.612 242.585 279.171 239.118C276.729 235.651 274.825 231.135 273.458 225.568C272.14 219.953 271.48 213.117 271.48 205.061C271.48 199.543 271.993 194.025 273.019 188.508C274.093 182.941 275.606 177.619 277.56 172.541C279.562 167.463 281.979 162.727 284.811 158.332C287.691 153.938 290.914 150.129 294.479 146.906C298.043 143.684 301.925 141.145 306.124 139.289C310.372 137.434 314.864 136.506 319.601 136.506C322.677 136.506 325.411 136.994 327.804 137.971C330.245 138.947 332.296 140.314 333.956 142.072C335.616 143.781 336.886 145.808 337.765 148.151C338.644 150.446 339.083 152.912 339.083 155.549C339.083 159.895 338.033 163.898 335.934 167.561C333.834 171.174 331.075 174.299 327.657 176.936C324.239 179.572 320.333 181.623 315.938 183.088C311.544 184.553 307.076 185.285 302.535 185.285ZM354.684 222.419C354.293 223.981 353.561 224.958 352.486 225.349C351.412 225.69 350.338 225.642 349.264 225.202C348.238 224.763 347.359 224.006 346.627 222.932C345.943 221.857 345.748 220.686 346.041 219.416C346.773 216.096 347.823 212.434 349.19 208.43C350.606 204.377 351.998 200.349 353.365 196.345C352.633 195.222 352.047 194.099 351.607 192.976C351.168 191.804 350.948 190.583 350.948 189.313C350.948 188.044 351.412 186.726 352.34 185.358C353.316 183.942 354.464 182.648 355.782 181.477C357.149 180.305 358.541 179.353 359.957 178.62C361.422 177.839 362.667 177.448 363.692 177.448C365.499 177.448 366.842 178.059 367.721 179.279C368.648 180.5 369.112 182.136 369.112 184.187C369.112 185.31 368.917 186.433 368.526 187.556C368.185 188.63 367.794 189.655 367.354 190.632C366.915 191.56 366.5 192.365 366.109 193.049C365.768 193.732 365.572 194.172 365.523 194.367C367.281 197.492 369.112 200.251 371.017 202.644C372.921 205.036 374.654 207.404 376.217 209.748C377.828 212.092 379.146 214.582 380.172 217.219C381.197 219.855 381.71 222.956 381.71 226.521C381.71 227.399 381.637 228.303 381.49 229.23C381.393 230.158 381.222 231.037 380.978 231.867C382.735 231.525 384.273 230.988 385.592 230.256C386.959 229.523 388.131 228.693 389.107 227.766C390.133 226.789 390.963 225.739 391.598 224.616C392.281 223.493 392.843 222.321 393.282 221.101C393.819 219.685 394.356 218.659 394.894 218.024C395.431 217.39 396.041 217.072 396.725 217.072C397.359 217.072 397.994 217.292 398.629 217.731C399.312 218.122 399.898 218.635 400.387 219.27C400.924 219.904 401.339 220.563 401.632 221.247C401.974 221.931 402.145 222.541 402.145 223.078C402.145 223.811 401.949 224.689 401.559 225.715C401.168 226.74 400.631 227.79 399.947 228.864C399.312 229.938 398.58 230.988 397.75 232.014C396.92 232.99 396.065 233.845 395.187 234.577C392.843 236.481 390.084 238.093 386.91 239.411C383.736 240.681 379.806 241.486 375.118 241.828C373.312 243.391 371.163 244.66 368.673 245.637C366.231 246.662 363.473 247.175 360.396 247.175C358.834 247.175 357.223 246.979 355.562 246.589C353.951 246.198 352.389 245.686 350.875 245.051C349.41 244.465 348.067 243.806 346.847 243.073C345.626 242.341 344.649 241.608 343.917 240.876C342.062 239.118 340.865 237.36 340.328 235.603C339.791 233.796 339.669 232.185 339.962 230.769C340.206 229.353 340.719 228.205 341.5 227.326C342.281 226.398 343.087 225.935 343.917 225.935C344.405 225.935 345.162 226.154 346.188 226.594C347.262 226.984 348.482 227.521 349.85 228.205C351.217 228.84 352.706 229.523 354.317 230.256C355.929 230.988 357.54 231.696 359.151 232.38C360.763 233.015 362.325 233.552 363.839 233.991C365.401 234.382 366.817 234.577 368.087 234.577C368.917 233.601 369.674 232.307 370.357 230.695C371.041 229.084 371.383 227.326 371.383 225.422C371.383 223.078 371.065 220.905 370.431 218.903C369.796 216.901 368.966 215.046 367.94 213.337C366.915 211.628 365.743 210.041 364.425 208.576C363.155 207.062 361.861 205.646 360.543 204.328C359.371 207.209 358.346 210.065 357.467 212.897C356.588 215.681 355.66 218.854 354.684 222.419ZM380.538 172.468C381.661 172.565 382.906 172.639 384.273 172.688C385.445 172.785 386.861 172.858 388.521 172.907C390.182 172.907 392.037 172.932 394.088 172.98V147.565C394.088 146.491 393.99 145.637 393.795 145.002C393.648 144.367 393.478 143.879 393.282 143.537C393.136 143.146 392.965 142.854 392.77 142.658C392.623 142.414 392.55 142.17 392.55 141.926C392.55 141.633 392.696 141.389 392.989 141.193C393.282 140.998 393.673 140.827 394.161 140.681C394.649 140.534 395.162 140.437 395.699 140.388C396.285 140.29 396.847 140.241 397.384 140.241C399.874 140.241 401.827 140.9 403.243 142.219C404.708 143.488 405.44 145.026 405.44 146.833V173.127C410.03 173.127 414.864 173.078 419.942 172.98C425.069 172.883 430.196 172.712 435.323 172.468C436.007 171.735 436.544 171.467 436.935 171.662C437.374 171.857 437.643 172.321 437.74 173.054C437.887 173.786 437.911 174.689 437.813 175.764C437.716 176.838 437.521 177.888 437.228 178.913C436.935 179.89 436.52 180.744 435.982 181.477C435.494 182.209 434.933 182.575 434.298 182.575C428.292 182.722 422.97 182.819 418.331 182.868C413.741 182.868 409.444 182.868 405.44 182.868V230.402C405.44 232.844 405.904 234.602 406.832 235.676C407.76 236.75 409.005 237.287 410.567 237.287C412.081 237.287 413.375 236.75 414.449 235.676C415.572 234.602 416.524 233.259 417.306 231.647C418.136 230.036 418.795 228.303 419.283 226.447C419.82 224.543 420.26 222.761 420.602 221.101C420.895 219.538 421.383 218.415 422.066 217.731C422.75 216.999 423.458 216.633 424.19 216.633C424.776 216.633 425.387 216.828 426.021 217.219C426.656 217.561 427.218 218.024 427.706 218.61C428.243 219.196 428.658 219.855 428.951 220.588C429.293 221.32 429.464 222.053 429.464 222.785C429.464 222.883 429.464 223.005 429.464 223.151C429.464 223.298 429.415 223.518 429.317 223.811C428.683 226.301 427.804 228.913 426.681 231.647C425.606 234.382 424.19 236.896 422.433 239.191C420.724 241.486 418.673 243.391 416.28 244.904C413.888 246.418 411.08 247.175 407.857 247.175C405.855 247.175 404 246.857 402.291 246.223C400.631 245.637 399.19 244.66 397.97 243.293C396.749 241.975 395.797 240.266 395.113 238.166C394.43 236.066 394.088 233.527 394.088 230.549V182.868C392.428 182.868 390.938 182.868 389.62 182.868C388.351 182.819 387.276 182.771 386.397 182.722C385.372 182.673 384.469 182.624 383.688 182.575C382.516 182.575 381.49 182.062 380.611 181.037C379.684 179.963 379.049 178.791 378.707 177.521C378.316 176.252 378.268 175.104 378.561 174.079C378.805 173.005 379.464 172.468 380.538 172.468ZM454 247.175C452.242 247.175 450.436 246.906 448.58 246.369C446.773 245.832 445.113 244.904 443.6 243.586C442.135 242.268 440.914 240.534 439.938 238.386C439.01 236.188 438.546 233.43 438.546 230.109C438.546 225.275 439.181 220.173 440.45 214.802C441.769 209.382 443.648 203.425 446.09 196.931H434.664H432.979C432.931 198.396 432.833 200.251 432.687 202.497C432.589 204.743 432.394 207.136 432.101 209.675C431.808 212.214 431.417 214.777 430.929 217.365C430.489 219.953 429.928 222.346 429.244 224.543C428.756 226.105 427.975 227.009 426.9 227.253C425.875 227.497 424.85 227.326 423.824 226.74C422.799 226.105 421.969 225.202 421.334 224.03C420.699 222.858 420.553 221.638 420.895 220.368C421.285 218.854 421.627 217.023 421.92 214.875C422.213 212.678 422.433 210.383 422.579 207.99C422.774 205.549 422.921 203.132 423.019 200.739C423.116 198.298 423.189 196.125 423.238 194.221C421.383 193.195 419.845 191.901 418.624 190.339C417.403 188.728 416.793 186.823 416.793 184.626C416.793 183.601 416.988 182.673 417.379 181.843C417.818 180.964 418.38 180.231 419.063 179.646C419.747 179.011 420.553 178.547 421.48 178.254C422.408 177.912 423.36 177.741 424.337 177.741C425.216 177.741 426.119 177.863 427.047 178.107C428.023 178.352 428.927 178.791 429.757 179.426C430.636 180.061 431.417 180.891 432.101 181.916C432.784 182.941 433.346 184.211 433.785 185.725C435.006 185.871 436.031 185.993 436.861 186.091C437.74 186.14 438.473 186.188 439.059 186.237C439.645 186.286 440.133 186.311 440.523 186.311C440.914 186.311 441.305 186.311 441.695 186.311H449.532C449.972 186.311 450.606 186.579 451.437 187.116C452.315 187.653 453.17 188.361 454 189.24C454.83 190.07 455.514 190.974 456.051 191.95C456.637 192.927 456.856 193.854 456.71 194.733C456.71 195.026 456.539 195.734 456.197 196.857C455.855 197.98 455.44 199.396 454.952 201.105C454.464 202.814 453.927 204.792 453.341 207.038C452.755 209.235 452.218 211.555 451.729 213.996C451.241 216.438 450.826 218.977 450.484 221.613C450.143 224.201 449.972 226.74 449.972 229.23C449.972 230.256 450.094 231.257 450.338 232.233C450.582 233.21 450.948 234.089 451.437 234.87C451.925 235.603 452.535 236.188 453.268 236.628C454.049 237.067 454.952 237.287 455.978 237.287C457.687 237.287 459.151 236.75 460.372 235.676C461.593 234.602 462.618 233.259 463.448 231.647C464.278 230.036 464.938 228.303 465.426 226.447C465.963 224.543 466.402 222.761 466.744 221.101C467.037 219.538 467.525 218.415 468.209 217.731C468.893 216.999 469.601 216.633 470.333 216.633C470.919 216.633 471.529 216.828 472.164 217.219C472.799 217.561 473.36 218.024 473.849 218.61C474.386 219.196 474.801 219.855 475.094 220.588C475.436 221.32 475.606 222.053 475.606 222.785C475.606 223.029 475.582 223.225 475.533 223.371C475.484 223.518 475.46 223.664 475.46 223.811C474.776 226.301 473.873 228.913 472.75 231.647C471.676 234.382 470.284 236.896 468.575 239.191C466.866 241.486 464.815 243.391 462.423 244.904C460.03 246.418 457.223 247.175 454 247.175ZM522.335 218.244C522.433 217.658 522.75 217.17 523.287 216.779C523.873 216.389 524.532 216.12 525.265 215.974C525.997 215.827 526.754 215.827 527.535 215.974C528.365 216.12 529.073 216.462 529.659 216.999C530.294 217.487 530.733 218.195 530.978 219.123C531.271 220.002 531.246 221.149 530.904 222.565C530.465 224.616 529.732 226.545 528.707 228.352C527.73 230.109 526.485 231.672 524.972 233.039C523.458 234.406 521.676 235.48 519.625 236.262C517.574 237.043 515.279 237.434 512.74 237.434C511.373 237.434 510.079 237.36 508.858 237.214C507.687 237.067 506.539 236.799 505.416 236.408C503.561 239.631 501.168 242.219 498.238 244.172C495.309 246.174 491.695 247.175 487.398 247.175C483.59 247.175 480.318 246.418 477.584 244.904C474.85 243.439 472.579 241.438 470.772 238.898C468.966 236.311 467.623 233.332 466.744 229.963C465.914 226.594 465.499 223.029 465.499 219.27C465.499 213.752 466.134 208.82 467.403 204.475C468.722 200.08 470.235 196.369 471.944 193.342C473.653 190.266 475.338 187.922 476.998 186.311C478.707 184.699 479.977 183.894 480.807 183.894C481.783 183.894 482.662 184.333 483.443 185.212C484.273 186.042 484.859 187.043 485.201 188.215C485.592 189.338 485.689 190.485 485.494 191.657C485.348 192.829 484.786 193.732 483.81 194.367C483.224 195.295 482.516 196.369 481.686 197.59C480.904 198.811 480.147 200.349 479.415 202.204C478.731 204.011 478.146 206.232 477.657 208.869C477.169 211.506 476.925 214.68 476.925 218.391C476.925 221.564 477.193 224.323 477.73 226.667C478.316 229.011 479.098 230.988 480.074 232.6C481.1 234.162 482.247 235.334 483.517 236.115C484.835 236.896 486.227 237.287 487.691 237.287C489.84 237.287 491.598 236.774 492.965 235.749C494.381 234.675 495.577 233.283 496.554 231.574C493.038 228.547 490.353 224.714 488.497 220.075C486.69 215.388 485.787 210.334 485.787 204.914C485.787 202.57 486.031 200.349 486.52 198.249C487.057 196.101 487.813 194.221 488.79 192.609C489.815 190.998 491.085 189.729 492.599 188.801C494.112 187.824 495.87 187.336 497.872 187.336C499.63 187.336 501.29 187.971 502.853 189.24C504.415 190.51 505.782 192.268 506.954 194.514C508.126 196.76 509.029 199.421 509.664 202.497C510.348 205.573 510.689 208.918 510.689 212.531C510.689 215.314 510.519 218.073 510.177 220.808C509.835 223.542 509.298 226.179 508.565 228.718C509.103 228.913 509.591 229.035 510.03 229.084C510.519 229.084 511.031 229.084 511.568 229.084C513.18 229.084 514.596 228.791 515.816 228.205C517.086 227.619 518.16 226.838 519.039 225.861C519.918 224.885 520.626 223.737 521.163 222.419C521.7 221.101 522.091 219.709 522.335 218.244ZM493.697 204.328C493.697 207.697 494.21 210.896 495.235 213.923C496.31 216.95 497.701 219.587 499.41 221.833C499.703 219.44 499.85 217.146 499.85 214.948C499.85 212.409 499.801 210.065 499.703 207.917C499.654 205.72 499.483 203.84 499.19 202.277C498.946 200.715 498.58 199.494 498.092 198.615C497.652 197.688 497.042 197.224 496.261 197.224C494.552 197.224 493.697 199.592 493.697 204.328ZM547.164 164.411C547.164 162.995 547.042 161.97 546.798 161.335C546.603 160.7 546.505 160.114 546.505 159.577C546.505 158.845 546.896 158.234 547.677 157.746C548.458 157.258 549.386 157.014 550.46 157.014C552.95 157.014 554.952 157.673 556.466 158.991C558.028 160.261 558.81 161.823 558.81 163.679V212.678C560.519 212.482 562.447 211.994 564.596 211.213C566.793 210.432 569.039 209.357 571.334 207.99C573.629 206.574 575.851 204.841 577.999 202.79C580.196 200.739 582.149 198.347 583.858 195.612C585.567 192.878 586.935 189.802 587.96 186.384C589.034 182.917 589.571 179.084 589.571 174.885C589.571 172.053 589.107 169.123 588.18 166.096C587.301 163.068 585.885 160.31 583.932 157.819C581.979 155.329 579.439 153.278 576.314 151.667C573.238 150.056 569.503 149.25 565.108 149.25C559.103 149.25 553.951 150.178 549.654 152.033C545.357 153.889 541.842 156.379 539.107 159.504C536.422 162.629 534.444 166.267 533.175 170.417C531.905 174.519 531.271 178.864 531.271 183.454C531.271 186.774 531.539 189.582 532.076 191.877C532.662 194.123 533.297 195.979 533.98 197.443C534.664 198.859 535.299 199.909 535.885 200.593C536.471 201.276 536.812 201.667 536.91 201.765C537.74 201.521 538.326 201.618 538.668 202.058C539.01 202.497 539.181 203.083 539.181 203.815C539.181 204.499 538.937 205.524 538.448 206.892C538.009 208.259 537.398 209.553 536.617 210.773C535.836 211.945 534.933 212.849 533.907 213.483C532.882 214.069 531.832 213.947 530.758 213.117C530.172 212.58 529.269 211.604 528.048 210.188C526.827 208.771 525.606 206.892 524.386 204.548C523.214 202.155 522.164 199.299 521.236 195.979C520.309 192.609 519.845 188.728 519.845 184.333C519.845 177.302 520.943 170.954 523.141 165.29C525.338 159.577 528.414 154.694 532.369 150.642C536.373 146.589 541.134 143.464 546.651 141.267C552.169 139.069 558.272 137.971 564.962 137.971C570.431 137.971 575.387 138.874 579.83 140.681C584.322 142.487 588.131 145.026 591.256 148.298C594.43 151.521 596.871 155.378 598.58 159.87C600.289 164.362 601.144 169.27 601.144 174.592C601.144 181.135 599.972 187.189 597.628 192.756C595.284 198.273 592.159 203.181 588.253 207.478C584.347 211.774 579.83 215.339 574.703 218.171C569.625 221.003 564.327 222.932 558.81 223.957V243.732C558.81 245.002 558.395 245.881 557.564 246.369C556.734 246.906 555.758 247.175 554.635 247.175C553.756 247.175 552.877 247.053 551.998 246.809C551.119 246.564 550.313 246.247 549.581 245.856C548.897 245.466 548.312 245.002 547.823 244.465C547.384 243.977 547.164 243.439 547.164 242.854V164.411ZM647.726 237.287C649.239 237.287 650.533 236.75 651.607 235.676C652.73 234.602 653.683 233.259 654.464 231.647C655.294 230.036 655.953 228.303 656.441 226.447C656.979 224.543 657.418 222.761 657.76 221.101C658.102 219.538 658.59 218.415 659.225 217.731C659.908 216.999 660.641 216.633 661.422 216.633C662.008 216.633 662.594 216.828 663.18 217.219C663.814 217.561 664.376 218.024 664.864 218.61C665.401 219.196 665.816 219.855 666.109 220.588C666.451 221.32 666.622 222.053 666.622 222.785C666.622 222.883 666.622 223.005 666.622 223.151C666.622 223.298 666.573 223.518 666.476 223.811C665.841 226.301 664.962 228.913 663.839 231.647C662.765 234.382 661.373 236.896 659.664 239.191C657.955 241.486 655.88 243.391 653.438 244.904C651.046 246.418 648.238 247.175 645.016 247.175C642.379 247.175 640.084 246.613 638.131 245.49C636.178 244.367 634.64 242.878 633.517 241.022C632.003 242.731 630.172 244.172 628.023 245.344C625.924 246.564 623.458 247.175 620.626 247.175C617.696 247.175 615.108 246.589 612.862 245.417C610.665 244.245 608.81 242.658 607.296 240.656C605.782 238.605 604.635 236.213 603.854 233.479C603.121 230.695 602.755 227.717 602.755 224.543C602.755 218.293 603.756 212.678 605.758 207.697C607.76 202.717 610.421 198.493 613.741 195.026C617.062 191.511 620.846 188.825 625.094 186.97C629.391 185.114 633.834 184.187 638.424 184.187C640.475 184.187 642.135 184.748 643.404 185.871C644.674 186.994 645.309 188.532 645.309 190.485C645.309 191.755 645.162 192.658 644.869 193.195C644.625 193.684 644.137 193.928 643.404 193.928C642.721 193.928 642.013 193.879 641.28 193.781C640.548 193.684 639.791 193.635 639.01 193.635C636.178 193.635 633.297 194.27 630.367 195.539C627.438 196.76 624.776 198.664 622.384 201.252C620.04 203.791 618.111 207.038 616.598 210.993C615.084 214.899 614.327 219.562 614.327 224.982C614.327 228.938 615.084 231.989 616.598 234.138C618.111 236.237 620.187 237.287 622.823 237.287C624.874 237.287 626.583 236.53 627.95 235.017C629.317 233.454 630.416 231.623 631.246 229.523V206.379C631.246 205.646 631.197 205.036 631.1 204.548C631.051 204.06 630.978 203.645 630.88 203.303C630.831 202.961 630.782 202.668 630.733 202.424C630.685 202.131 630.66 201.862 630.66 201.618C630.66 200.837 631.026 200.227 631.759 199.787C632.54 199.299 633.468 199.055 634.542 199.055C637.032 199.055 639.01 199.714 640.475 201.032C641.939 202.302 642.672 203.84 642.672 205.646V230.402C642.672 231.232 642.77 232.062 642.965 232.893C643.16 233.674 643.453 234.406 643.844 235.09C644.234 235.725 644.747 236.262 645.382 236.701C646.065 237.092 646.847 237.287 647.726 237.287ZM644.942 172.468C646.065 172.565 647.311 172.639 648.678 172.688C649.85 172.785 651.266 172.858 652.926 172.907C654.586 172.907 656.441 172.932 658.492 172.98V147.565C658.492 146.491 658.395 145.637 658.199 145.002C658.053 144.367 657.882 143.879 657.687 143.537C657.54 143.146 657.369 142.854 657.174 142.658C657.027 142.414 656.954 142.17 656.954 141.926C656.954 141.633 657.101 141.389 657.394 141.193C657.687 140.998 658.077 140.827 658.565 140.681C659.054 140.534 659.566 140.437 660.104 140.388C660.689 140.29 661.251 140.241 661.788 140.241C664.278 140.241 666.231 140.9 667.647 142.219C669.112 143.488 669.845 145.026 669.845 146.833V173.127C674.435 173.127 679.269 173.078 684.347 172.98C689.474 172.883 694.601 172.712 699.728 172.468C700.411 171.735 700.948 171.467 701.339 171.662C701.778 171.857 702.047 172.321 702.145 173.054C702.291 173.786 702.315 174.689 702.218 175.764C702.12 176.838 701.925 177.888 701.632 178.913C701.339 179.89 700.924 180.744 700.387 181.477C699.898 182.209 699.337 182.575 698.702 182.575C692.696 182.722 687.374 182.819 682.735 182.868C678.146 182.868 673.849 182.868 669.845 182.868V230.402C669.845 232.844 670.309 234.602 671.236 235.676C672.164 236.75 673.409 237.287 674.972 237.287C676.485 237.287 677.779 236.75 678.854 235.676C679.977 234.602 680.929 233.259 681.71 231.647C682.54 230.036 683.199 228.303 683.688 226.447C684.225 224.543 684.664 222.761 685.006 221.101C685.299 219.538 685.787 218.415 686.471 217.731C687.154 216.999 687.862 216.633 688.595 216.633C689.181 216.633 689.791 216.828 690.426 217.219C691.061 217.561 691.622 218.024 692.11 218.61C692.647 219.196 693.062 219.855 693.355 220.588C693.697 221.32 693.868 222.053 693.868 222.785C693.868 222.883 693.868 223.005 693.868 223.151C693.868 223.298 693.819 223.518 693.722 223.811C693.087 226.301 692.208 228.913 691.085 231.647C690.011 234.382 688.595 236.896 686.837 239.191C685.128 241.486 683.077 243.391 680.685 244.904C678.292 246.418 675.484 247.175 672.262 247.175C670.26 247.175 668.404 246.857 666.695 246.223C665.035 245.637 663.595 244.66 662.374 243.293C661.153 241.975 660.201 240.266 659.518 238.166C658.834 236.066 658.492 233.527 658.492 230.549V182.868C656.832 182.868 655.343 182.868 654.024 182.868C652.755 182.819 651.681 182.771 650.802 182.722C649.776 182.673 648.873 182.624 648.092 182.575C646.92 182.575 645.895 182.062 645.016 181.037C644.088 179.963 643.453 178.791 643.111 177.521C642.721 176.252 642.672 175.104 642.965 174.079C643.209 173.005 643.868 172.468 644.942 172.468ZM685.738 150.568C685.738 149.494 685.641 148.64 685.445 148.005C685.299 147.37 685.128 146.882 684.933 146.54C684.786 146.149 684.615 145.856 684.42 145.661C684.273 145.417 684.2 145.173 684.2 144.929C684.2 144.636 684.347 144.392 684.64 144.196C684.933 144.001 685.323 143.83 685.812 143.684C686.3 143.537 686.812 143.439 687.35 143.391C687.936 143.293 688.497 143.244 689.034 143.244C691.524 143.244 693.478 143.903 694.894 145.222C696.358 146.491 697.091 148.029 697.091 149.836V199.055C698.116 196.955 699.215 195.002 700.387 193.195C701.607 191.389 702.901 189.826 704.269 188.508C705.685 187.141 707.174 186.091 708.736 185.358C710.348 184.577 712.081 184.187 713.937 184.187C716.427 184.187 718.478 184.65 720.089 185.578C721.7 186.506 722.97 187.702 723.897 189.167C724.825 190.632 725.46 192.268 725.802 194.074C726.192 195.881 726.388 197.639 726.388 199.348V230.402C726.388 230.744 726.412 231.306 726.461 232.087C726.51 232.819 726.656 233.576 726.9 234.357C727.145 235.139 727.511 235.822 727.999 236.408C728.536 236.994 729.293 237.287 730.27 237.287C731.783 237.287 733.077 236.75 734.151 235.676C735.274 234.602 736.227 233.259 737.008 231.647C737.838 230.036 738.497 228.303 738.985 226.447C739.522 224.543 739.962 222.761 740.304 221.101C740.597 219.587 741.036 218.488 741.622 217.805C742.257 217.121 742.916 216.755 743.6 216.706C744.332 216.608 745.064 216.779 745.797 217.219C746.529 217.658 747.164 218.244 747.701 218.977C748.238 219.66 748.629 220.441 748.873 221.32C749.166 222.199 749.215 223.029 749.02 223.811C748.336 226.301 747.433 228.913 746.31 231.647C745.235 234.382 743.844 236.896 742.135 239.191C740.426 241.486 738.375 243.391 735.982 244.904C733.59 246.418 730.782 247.175 727.56 247.175C725.558 247.175 723.775 246.784 722.213 246.003C720.699 245.271 719.381 244.27 718.258 243C717.184 241.73 716.354 240.241 715.768 238.532C715.23 236.823 714.962 235.017 714.962 233.112V202.644C714.962 201.472 714.938 200.373 714.889 199.348C714.84 198.322 714.693 197.419 714.449 196.638C714.254 195.856 713.937 195.246 713.497 194.807C713.106 194.318 712.545 194.074 711.812 194.074C710.738 194.074 709.42 194.807 707.857 196.271C706.295 197.736 704.757 199.641 703.243 201.984C701.729 204.328 700.387 206.989 699.215 209.968C698.092 212.897 697.384 215.852 697.091 218.83V240.729C697.091 241.462 697.066 242.219 697.018 243C697.018 243.732 696.871 244.392 696.578 244.978C696.334 245.612 695.919 246.125 695.333 246.516C694.796 246.955 693.99 247.175 692.916 247.175C692.184 247.175 691.378 247.077 690.499 246.882C689.669 246.735 688.888 246.418 688.155 245.93C687.472 245.49 686.886 244.831 686.397 243.952C685.958 243.122 685.738 241.999 685.738 240.583V150.568ZM795.821 218.244C795.919 217.658 796.236 217.17 796.773 216.779C797.359 216.389 798.019 216.12 798.751 215.974C799.483 215.827 800.24 215.827 801.021 215.974C801.852 216.12 802.56 216.462 803.146 216.999C803.78 217.487 804.22 218.195 804.464 219.123C804.757 220.002 804.732 221.149 804.391 222.565C803.951 224.616 803.219 226.545 802.193 228.352C801.217 230.109 799.972 231.672 798.458 233.039C796.944 234.406 795.162 235.48 793.111 236.262C791.061 237.043 788.766 237.434 786.227 237.434C784.859 237.434 783.565 237.36 782.345 237.214C781.173 237.067 780.025 236.799 778.902 236.408C777.047 239.631 774.654 242.219 771.725 244.172C768.795 246.174 765.182 247.175 760.885 247.175C757.076 247.175 753.805 246.418 751.07 244.904C748.336 243.439 746.065 241.438 744.259 238.898C742.452 236.311 741.109 233.332 740.23 229.963C739.4 226.594 738.985 223.029 738.985 219.27C738.985 213.752 739.62 208.82 740.89 204.475C742.208 200.08 743.722 196.369 745.431 193.342C747.14 190.266 748.824 187.922 750.484 186.311C752.193 184.699 753.463 183.894 754.293 183.894C755.27 183.894 756.148 184.333 756.93 185.212C757.76 186.042 758.346 187.043 758.688 188.215C759.078 189.338 759.176 190.485 758.98 191.657C758.834 192.829 758.272 193.732 757.296 194.367C756.71 195.295 756.002 196.369 755.172 197.59C754.391 198.811 753.634 200.349 752.901 202.204C752.218 204.011 751.632 206.232 751.144 208.869C750.655 211.506 750.411 214.68 750.411 218.391C750.411 221.564 750.68 224.323 751.217 226.667C751.803 229.011 752.584 230.988 753.561 232.6C754.586 234.162 755.733 235.334 757.003 236.115C758.321 236.896 759.713 237.287 761.178 237.287C763.326 237.287 765.084 236.774 766.451 235.749C767.867 234.675 769.063 233.283 770.04 231.574C766.524 228.547 763.839 224.714 761.983 220.075C760.177 215.388 759.273 210.334 759.273 204.914C759.273 202.57 759.518 200.349 760.006 198.249C760.543 196.101 761.3 194.221 762.276 192.609C763.302 190.998 764.571 189.729 766.085 188.801C767.599 187.824 769.356 187.336 771.358 187.336C773.116 187.336 774.776 187.971 776.339 189.24C777.901 190.51 779.269 192.268 780.44 194.514C781.612 196.76 782.516 199.421 783.15 202.497C783.834 205.573 784.176 208.918 784.176 212.531C784.176 215.314 784.005 218.073 783.663 220.808C783.321 223.542 782.784 226.179 782.052 228.718C782.589 228.913 783.077 229.035 783.517 229.084C784.005 229.084 784.518 229.084 785.055 229.084C786.666 229.084 788.082 228.791 789.303 228.205C790.572 227.619 791.646 226.838 792.525 225.861C793.404 224.885 794.112 223.737 794.649 222.419C795.187 221.101 795.577 219.709 795.821 218.244ZM767.184 204.328C767.184 207.697 767.696 210.896 768.722 213.923C769.796 216.95 771.188 219.587 772.896 221.833C773.189 219.44 773.336 217.146 773.336 214.948C773.336 212.409 773.287 210.065 773.189 207.917C773.141 205.72 772.97 203.84 772.677 202.277C772.433 200.715 772.066 199.494 771.578 198.615C771.139 197.688 770.528 197.224 769.747 197.224C768.038 197.224 767.184 199.592 767.184 204.328ZM804.391 222.419C804 223.981 803.268 224.958 802.193 225.349C801.119 225.69 800.045 225.642 798.971 225.202C797.945 224.763 797.066 224.006 796.334 222.932C795.65 221.857 795.455 220.686 795.748 219.416C796.48 216.096 797.53 212.434 798.897 208.43C800.313 204.377 801.705 200.349 803.072 196.345C802.34 195.222 801.754 194.099 801.314 192.976C800.875 191.804 800.655 190.583 800.655 189.313C800.655 188.044 801.119 186.726 802.047 185.358C803.023 183.942 804.171 182.648 805.489 181.477C806.856 180.305 808.248 179.353 809.664 178.62C811.129 177.839 812.374 177.448 813.399 177.448C815.206 177.448 816.549 178.059 817.428 179.279C818.355 180.5 818.819 182.136 818.819 184.187C818.819 185.31 818.624 186.433 818.233 187.556C817.892 188.63 817.501 189.655 817.062 190.632C816.622 191.56 816.207 192.365 815.816 193.049C815.475 193.732 815.279 194.172 815.23 194.367C816.988 197.492 818.819 200.251 820.724 202.644C822.628 205.036 824.361 207.404 825.924 209.748C827.535 212.092 828.854 214.582 829.879 217.219C830.904 219.855 831.417 222.956 831.417 226.521C831.417 227.399 831.344 228.303 831.197 229.23C831.1 230.158 830.929 231.037 830.685 231.867C832.442 231.525 833.98 230.988 835.299 230.256C836.666 229.523 837.838 228.693 838.814 227.766C839.84 226.789 840.67 225.739 841.305 224.616C841.988 223.493 842.55 222.321 842.989 221.101C843.526 219.685 844.063 218.659 844.601 218.024C845.138 217.39 845.748 217.072 846.432 217.072C847.066 217.072 847.701 217.292 848.336 217.731C849.02 218.122 849.605 218.635 850.094 219.27C850.631 219.904 851.046 220.563 851.339 221.247C851.681 221.931 851.852 222.541 851.852 223.078C851.852 223.811 851.656 224.689 851.266 225.715C850.875 226.74 850.338 227.79 849.654 228.864C849.02 229.938 848.287 230.988 847.457 232.014C846.627 232.99 845.772 233.845 844.894 234.577C842.55 236.481 839.791 238.093 836.617 239.411C833.443 240.681 829.513 241.486 824.825 241.828C823.019 243.391 820.87 244.66 818.38 245.637C815.938 246.662 813.18 247.175 810.104 247.175C808.541 247.175 806.93 246.979 805.27 246.589C803.658 246.198 802.096 245.686 800.582 245.051C799.117 244.465 797.774 243.806 796.554 243.073C795.333 242.341 794.356 241.608 793.624 240.876C791.769 239.118 790.572 237.36 790.035 235.603C789.498 233.796 789.376 232.185 789.669 230.769C789.913 229.353 790.426 228.205 791.207 227.326C791.988 226.398 792.794 225.935 793.624 225.935C794.112 225.935 794.869 226.154 795.895 226.594C796.969 226.984 798.189 227.521 799.557 228.205C800.924 228.84 802.413 229.523 804.024 230.256C805.636 230.988 807.247 231.696 808.858 232.38C810.47 233.015 812.032 233.552 813.546 233.991C815.108 234.382 816.524 234.577 817.794 234.577C818.624 233.601 819.381 232.307 820.064 230.695C820.748 229.084 821.09 227.326 821.09 225.422C821.09 223.078 820.772 220.905 820.138 218.903C819.503 216.901 818.673 215.046 817.647 213.337C816.622 211.628 815.45 210.041 814.132 208.576C812.862 207.062 811.568 205.646 810.25 204.328C809.078 207.209 808.053 210.065 807.174 212.897C806.295 215.681 805.367 218.854 804.391 222.419Z" fill="white"/>
<path d="M418.65 340.55H414.8C414.233 340.55 413.783 340.333 413.45 339.9C413.15 339.433 413 338.817 413 338.05C413 336.35 413.7 335.5 415.1 335.5H420.95C422.183 335.5 423.05 335.15 423.55 334.45C424.05 333.75 424.3 332.983 424.3 332.15V325.7C424.3 324.867 424.05 324.1 423.55 323.4C423.05 322.7 422.183 322.35 420.95 322.35H410.4V354.95C410.4 356.55 409.417 357.35 407.45 357.35C405.483 357.35 404.5 356.55 404.5 354.95V320.3C404.5 319.1 404.8 318.3 405.4 317.9C406.033 317.5 406.783 317.3 407.65 317.3H422.2C423.067 317.3 423.967 317.483 424.9 317.85C425.833 318.217 426.733 318.683 427.6 319.25H427.55C428.417 319.883 429.083 320.717 429.55 321.75C430.017 322.75 430.25 323.917 430.25 325.25V332.55C430.25 335.25 429.35 337.267 427.55 338.6C427.183 338.867 426.783 339.117 426.35 339.35C425.95 339.583 425.533 339.817 425.1 340.05L433.1 353.25C433.2 353.417 433.3 353.633 433.4 353.9C433.5 354.167 433.55 354.383 433.55 354.55C433.55 355.35 432.983 356.117 431.85 356.85V356.8C431.083 357.267 430.433 357.5 429.9 357.5C429.133 357.5 428.517 357.117 428.05 356.35L428.1 356.4L418.65 340.55ZM443.241 349C443.241 349.8 443.491 350.55 443.991 351.25C444.525 351.95 445.408 352.3 446.641 352.3H452.891C454.125 352.3 454.991 352 455.491 351.4C456.025 350.767 456.291 350.05 456.291 349.25V348.7C456.291 347.133 457.208 346.35 459.041 346.35C460.875 346.35 461.791 347.133 461.791 348.7V349.3C461.791 350.7 461.558 351.85 461.091 352.75C460.658 353.65 459.991 354.433 459.091 355.1C457.325 356.367 455.558 357 453.791 357H445.391C443.625 357 441.908 356.367 440.241 355.1C439.441 354.433 438.825 353.6 438.391 352.6C437.958 351.567 437.741 350.383 437.741 349.05V334.8C437.741 332.1 438.575 330.1 440.241 328.8C441.075 328.2 441.925 327.733 442.791 327.4C443.691 327.033 444.558 326.85 445.391 326.85H453.791C454.591 326.85 455.475 327.017 456.441 327.35C457.408 327.65 458.308 328.067 459.141 328.6C459.941 329.167 460.575 329.95 461.041 330.95C461.541 331.95 461.791 333.133 461.791 334.5V341.25C461.791 342.017 461.558 342.7 461.091 343.3C460.658 343.9 459.841 344.2 458.641 344.2H447.841C446.641 344.2 446.008 343.417 445.941 341.85C445.941 340.283 446.575 339.5 447.841 339.5H456.341L456.291 334.85C456.291 334.017 456.025 333.267 455.491 332.6C454.991 331.9 454.125 331.55 452.891 331.55H446.641C445.408 331.55 444.525 331.9 443.991 332.6C443.491 333.267 443.241 334.017 443.241 334.85V349ZM473.661 354.9C473.661 356.5 472.745 357.3 470.911 357.3C469.078 357.3 468.161 356.5 468.161 354.9V334.8C468.161 333.433 468.378 332.25 468.811 331.25C469.245 330.25 469.928 329.433 470.861 328.8C472.628 327.533 474.395 326.9 476.161 326.9H484.211C485.911 326.9 487.678 327.533 489.511 328.8C491.311 330.067 492.211 332.067 492.211 334.8V354.9C492.211 356.5 491.295 357.3 489.461 357.3C487.628 357.3 486.711 356.5 486.711 354.9V335.25C486.711 334.383 486.445 333.55 485.911 332.75L485.961 332.8C485.528 332 484.645 331.6 483.311 331.6H477.061C475.695 331.6 474.795 332 474.361 332.8C473.895 333.5 473.661 334.317 473.661 335.25V354.9ZM504.179 348.65V355C504.179 356.567 503.262 357.35 501.429 357.35C499.596 357.35 498.679 356.567 498.679 355V319.4C498.679 317.8 499.596 317 501.429 317C503.262 317 504.179 317.8 504.179 319.4V340.6C505.012 339.6 505.929 338.533 506.929 337.4C507.962 336.233 508.979 335.067 509.979 333.9C511.012 332.7 512.029 331.533 513.029 330.4C514.029 329.233 514.962 328.15 515.829 327.15V327.2C516.429 326.5 517.029 326.15 517.629 326.15C517.962 326.15 518.279 326.233 518.579 326.4C518.912 326.533 519.262 326.733 519.629 327H519.579C520.379 327.667 520.779 328.333 520.779 329C520.779 329.233 520.729 329.5 520.629 329.8C520.529 330.067 520.362 330.3 520.129 330.5L504.179 348.65ZM520.879 353.65C521.112 354.083 521.229 354.533 521.229 355C521.229 355.867 520.729 356.517 519.729 356.95C519.062 357.35 518.462 357.55 517.929 357.55C517.562 357.55 517.212 357.417 516.879 357.15C516.546 356.917 516.279 356.617 516.079 356.25L511.079 346.6C510.779 346.1 510.629 345.6 510.629 345.1C510.629 344.267 511.062 343.567 511.929 343C512.162 342.833 512.396 342.683 512.629 342.55C512.896 342.417 513.179 342.317 513.479 342.25C513.846 342.183 514.196 342.25 514.529 342.45C514.862 342.65 515.146 342.917 515.379 343.25L520.879 353.65ZM531.039 355.05C531.039 356.617 530.122 357.4 528.289 357.4C526.422 357.4 525.489 356.617 525.489 355.05V319.2C525.489 317.633 526.422 316.85 528.289 316.85C530.122 316.85 531.039 317.633 531.039 319.2V355.05ZM543.587 354.9C543.587 356.5 542.67 357.3 540.837 357.3C538.97 357.3 538.037 356.5 538.037 354.9V329.1C538.037 327.5 538.97 326.7 540.837 326.7C542.67 326.7 543.587 327.5 543.587 329.1V354.9ZM544.637 320.4C544.637 321.467 544.27 322.367 543.537 323.1C542.803 323.833 541.903 324.2 540.837 324.2C539.77 324.2 538.853 323.833 538.087 323.1C537.353 322.367 536.987 321.467 536.987 320.4C536.987 319.3 537.353 318.383 538.087 317.65C538.853 316.917 539.77 316.55 540.837 316.55C541.903 316.55 542.803 316.917 543.537 317.65C544.27 318.383 544.637 319.3 544.637 320.4ZM570.975 354.9C570.975 355.7 570.691 356.3 570.125 356.7C569.558 357.1 568.941 357.3 568.275 357.3C566.441 357.3 565.525 356.5 565.525 354.9V319.4C565.525 317.8 566.441 317 568.275 317C570.108 317 571.025 317.8 571.025 319.4V326.9H581.575C583.275 326.9 585.041 327.533 586.875 328.8C588.675 330.067 589.575 332.067 589.575 334.8V349.7C589.575 352.467 588.758 354.367 587.125 355.4C585.491 356.467 583.625 357 581.525 357H575.625C574.425 357 573.791 356.217 573.725 354.65C573.725 353.083 574.358 352.3 575.625 352.3H580.625C581.858 352.3 582.741 352.083 583.275 351.65C583.808 351.183 584.075 350.517 584.075 349.65V335.25C584.075 334.383 583.808 333.55 583.275 332.75L583.325 332.8C582.891 332 582.008 331.6 580.675 331.6H571.025L570.975 354.9ZM601.35 354.9C601.35 356.5 600.434 357.3 598.6 357.3C596.734 357.3 595.8 356.5 595.8 354.9V329.1C595.8 327.5 596.734 326.7 598.6 326.7C600.434 326.7 601.35 327.5 601.35 329.1V354.9ZM602.4 320.4C602.4 321.467 602.034 322.367 601.3 323.1C600.567 323.833 599.667 324.2 598.6 324.2C597.534 324.2 596.617 323.833 595.85 323.1C595.117 322.367 594.75 321.467 594.75 320.4C594.75 319.3 595.117 318.383 595.85 317.65C596.617 316.917 597.534 316.55 598.6 316.55C599.667 316.55 600.567 316.917 601.3 317.65C602.034 318.383 602.4 319.3 602.4 320.4ZM613.698 354.9C613.698 356.5 612.781 357.3 610.948 357.3C609.048 357.3 608.098 356.5 608.098 354.9V334.2C608.098 331.467 608.915 329.567 610.548 328.5C612.181 327.433 614.065 326.9 616.198 326.9H621.898C623.131 326.9 623.748 327.683 623.748 329.25C623.815 330.817 623.198 331.6 621.898 331.6H616.598C615.398 331.6 614.615 331.833 614.248 332.3C613.881 332.767 613.698 333.417 613.698 334.25V354.9ZM650.516 357C649.483 357 648.499 356.867 647.566 356.6C646.633 356.3 645.733 355.883 644.866 355.35V355.4C643.233 354.367 642.416 352.467 642.416 349.7V347.25C642.416 345.883 642.649 344.7 643.116 343.7C643.616 342.667 644.299 341.85 645.166 341.25H645.116C645.949 340.683 646.833 340.267 647.766 340C648.699 339.7 649.599 339.55 650.466 339.55H661.516V334.9C661.516 334.067 661.249 333.317 660.716 332.65C660.216 331.95 659.349 331.6 658.116 331.6H652.266C650.999 331.6 650.116 331.917 649.616 332.55C649.149 333.15 648.916 333.867 648.916 334.7V335.1C648.916 336.833 647.983 337.7 646.116 337.7C644.249 337.7 643.316 336.833 643.316 335.1V334.65C643.316 333.283 643.549 332.133 644.016 331.2C644.516 330.267 645.183 329.483 646.016 328.85H645.966C646.833 328.283 647.733 327.817 648.666 327.45C649.633 327.083 650.549 326.9 651.416 326.9H659.016C659.849 326.9 660.733 327.083 661.666 327.45C662.633 327.817 663.533 328.283 664.366 328.85H664.316C665.183 329.483 665.849 330.317 666.316 331.35C666.783 332.35 667.016 333.517 667.016 334.85V354.9C667.016 356.5 666.099 357.3 664.266 357.3C663.899 357.3 663.549 357.283 663.216 357.25C662.916 357.217 662.633 357.133 662.366 357C662.133 356.833 661.933 356.617 661.766 356.35C661.633 356.05 661.566 355.667 661.566 355.2L661.516 344.25H651.416C650.683 344.25 650.116 344.333 649.716 344.5C649.316 344.667 648.999 344.933 648.766 345.3C648.499 345.867 648.299 346.317 648.166 346.65C648.066 346.95 648.016 347.3 648.016 347.7V349.65C648.016 350.517 648.266 351.183 648.766 351.65C649.299 352.083 650.199 352.3 651.466 352.3H657.066C658.299 352.3 658.916 353.083 658.916 354.65C658.916 355.317 658.766 355.883 658.466 356.35C658.166 356.783 657.699 357 657.066 357H650.516ZM689.734 339.5C690.567 339.5 691.45 339.7 692.384 340.1C693.35 340.467 694.25 340.933 695.084 341.5H695.034C695.9 342.133 696.567 342.95 697.034 343.95C697.5 344.95 697.734 346.15 697.734 347.55V349.05C697.734 351.783 696.834 353.8 695.034 355.1C694.167 355.767 693.284 356.25 692.384 356.55C691.484 356.85 690.6 357 689.734 357H681.234C680.367 357 679.484 356.85 678.584 356.55C677.684 356.25 676.8 355.767 675.934 355.1C674.134 353.833 673.234 351.817 673.234 349.05V348.45C673.234 347.017 674.15 346.317 675.984 346.35C677.85 346.35 678.784 347.05 678.784 348.45V349C678.784 349.8 679.034 350.55 679.534 351.25C680.034 351.95 680.917 352.3 682.184 352.3H688.784C690.05 352.3 690.934 351.95 691.434 351.25C691.934 350.55 692.184 349.8 692.184 349V347.6C692.184 347.167 692.117 346.75 691.984 346.35C691.884 345.95 691.7 345.6 691.434 345.3C691.167 344.967 690.817 344.7 690.384 344.5C689.95 344.3 689.417 344.2 688.784 344.2H681.484C679.784 344.2 678 343.6 676.134 342.4C674.367 341.267 673.484 339.317 673.484 336.55V334.85C673.484 333.517 673.717 332.35 674.184 331.35C674.65 330.317 675.317 329.483 676.184 328.85H676.134C676.967 328.283 677.85 327.817 678.784 327.45C679.717 327.083 680.617 326.9 681.484 326.9H689.484C690.35 326.9 691.234 327.083 692.134 327.45C693.067 327.817 693.967 328.283 694.834 328.85H694.784C695.65 329.483 696.317 330.317 696.784 331.35C697.25 332.35 697.484 333.517 697.484 334.85V335.3C697.484 336 697.25 336.517 696.784 336.85C696.317 337.15 695.634 337.317 694.734 337.35C692.9 337.383 691.984 336.7 691.984 335.3V334.9C691.984 334.067 691.717 333.317 691.184 332.65C690.684 331.95 689.817 331.6 688.584 331.6H682.384C681.15 331.6 680.267 331.95 679.734 332.65C679.234 333.317 678.984 334.067 678.984 334.9V336.1C678.984 336.967 679.234 337.75 679.734 338.45C680.267 339.15 681.15 339.5 682.384 339.5H689.734ZM710.795 331.6V349.8C710.795 350.667 710.979 351.333 711.345 351.8C711.712 352.267 712.495 352.5 713.695 352.5H714.995C716.295 352.5 716.912 353.267 716.845 354.8C716.845 356.367 716.229 357.15 714.995 357.15H713.345C712.279 357.15 711.279 357.017 710.345 356.75C709.412 356.45 708.512 356.033 707.645 355.5V355.55C706.012 354.483 705.195 352.583 705.195 349.85V331.6H703.245C702.045 331.6 701.412 330.817 701.345 329.25C701.345 327.683 701.979 326.9 703.245 326.9H705.195V321.55C705.195 319.95 706.145 319.15 708.045 319.15C709.879 319.15 710.795 319.95 710.795 321.55V326.9H714.945C716.245 326.9 716.862 327.683 716.795 329.25C716.795 330.817 716.179 331.6 714.945 331.6H710.795ZM726.589 354.9C726.589 356.5 725.672 357.3 723.839 357.3C721.939 357.3 720.989 356.5 720.989 354.9V334.2C720.989 331.467 721.805 329.567 723.439 328.5C725.072 327.433 726.955 326.9 729.089 326.9H734.789C736.022 326.9 736.639 327.683 736.639 329.25C736.705 330.817 736.089 331.6 734.789 331.6H729.489C728.289 331.6 727.505 331.833 727.139 332.3C726.772 332.767 726.589 333.417 726.589 334.25V354.9ZM756.866 326.9C757.733 326.9 758.616 327.083 759.516 327.45C760.45 327.817 761.35 328.283 762.216 328.85H762.166C763.033 329.483 763.7 330.317 764.166 331.35C764.633 332.35 764.866 333.517 764.866 334.85V349.05C764.866 351.783 763.966 353.8 762.166 355.1C760.4 356.367 758.633 357 756.866 357H748.866C748 357 747.116 356.85 746.216 356.55C745.316 356.25 744.433 355.767 743.566 355.1C741.766 353.833 740.866 351.817 740.866 349.05V334.85C740.866 333.517 741.1 332.35 741.566 331.35C742.033 330.317 742.7 329.483 743.566 328.85H743.516C744.35 328.283 745.233 327.817 746.166 327.45C747.1 327.083 748 326.9 748.866 326.9H756.866ZM755.966 352.3C757.2 352.3 758.066 351.95 758.566 351.25C759.1 350.55 759.366 349.8 759.366 349V334.9C759.366 334.067 759.1 333.317 758.566 332.65C758.066 331.95 757.2 331.6 755.966 331.6H749.766C748.533 331.6 747.65 331.95 747.116 332.65C746.616 333.317 746.366 334.067 746.366 334.9V349C746.366 349.8 746.616 350.55 747.116 351.25C747.65 351.95 748.533 352.3 749.766 352.3H755.966ZM776.889 355.05C776.889 356.617 775.972 357.4 774.139 357.4C772.272 357.4 771.339 356.617 771.339 355.05V319.2C771.339 317.633 772.272 316.85 774.139 316.85C775.972 316.85 776.889 317.633 776.889 319.2V355.05ZM799.786 326.9C800.653 326.9 801.536 327.083 802.436 327.45C803.37 327.817 804.27 328.283 805.136 328.85H805.086C805.953 329.483 806.62 330.317 807.086 331.35C807.553 332.35 807.786 333.517 807.786 334.85V349.05C807.786 351.783 806.886 353.8 805.086 355.1C803.32 356.367 801.553 357 799.786 357H791.786C790.92 357 790.036 356.85 789.136 356.55C788.236 356.25 787.353 355.767 786.486 355.1C784.686 353.833 783.786 351.817 783.786 349.05V334.85C783.786 333.517 784.02 332.35 784.486 331.35C784.953 330.317 785.62 329.483 786.486 328.85H786.436C787.27 328.283 788.153 327.817 789.086 327.45C790.02 327.083 790.92 326.9 791.786 326.9H799.786ZM798.886 352.3C800.12 352.3 800.986 351.95 801.486 351.25C802.02 350.55 802.286 349.8 802.286 349V334.9C802.286 334.067 802.02 333.317 801.486 332.65C800.986 331.95 800.12 331.6 798.886 331.6H792.686C791.453 331.6 790.57 331.95 790.036 332.65C789.536 333.317 789.286 334.067 789.286 334.9V349C789.286 349.8 789.536 350.55 790.036 351.25C790.57 351.95 791.453 352.3 792.686 352.3H798.886ZM822.159 353.5C821.292 353.5 820.392 353.35 819.459 353.05C818.559 352.75 817.675 352.317 816.809 351.75C815.009 350.583 814.109 348.617 814.109 345.85V334.55C814.109 333.15 814.342 331.95 814.809 330.95C815.309 329.95 815.975 329.167 816.809 328.6C817.675 328.067 818.559 327.65 819.459 327.35C820.359 327.05 821.242 326.9 822.109 326.9H830.509C831.342 326.9 832.209 327.083 833.109 327.45C834.009 327.817 834.842 328.283 835.609 328.85C836.375 329.483 836.992 330.317 837.459 331.35C837.925 332.383 838.159 333.55 838.159 334.85V356.05C838.159 357.45 837.925 358.633 837.459 359.6C837.025 360.6 836.409 361.433 835.609 362.1C834.842 362.733 834.009 363.217 833.109 363.55C832.242 363.917 831.375 364.1 830.509 364.1H822.109C820.342 364.1 818.559 363.583 816.759 362.55C815.825 362.017 815.142 361.333 814.709 360.5C814.309 359.667 814.109 358.7 814.109 357.6V357C814.109 356.333 814.325 355.8 814.759 355.4C815.192 355 815.875 354.8 816.809 354.8C818.675 355 819.609 355.733 819.609 357V357.55C819.609 357.917 819.859 358.317 820.359 358.75C820.892 359.183 821.775 359.4 823.009 359.4H829.259C830.492 359.4 831.359 359.05 831.859 358.35C832.392 357.65 832.659 356.867 832.659 356V334.9C832.659 334.067 832.392 333.317 831.859 332.65C831.359 331.95 830.492 331.6 829.259 331.6H823.009C821.775 331.6 820.892 331.95 820.359 332.65C819.859 333.317 819.609 334.067 819.609 334.9V345.45C819.609 346.283 819.859 347.067 820.359 347.8C820.892 348.5 821.775 348.85 823.009 348.85H828.209C829.409 348.85 830.009 349.617 830.009 351.15C830.009 351.85 829.859 352.417 829.559 352.85C829.292 353.283 828.842 353.5 828.209 353.5H822.159ZM870.061 357.3C869.994 357.3 869.911 357.283 869.811 357.25C869.711 357.25 869.611 357.25 869.511 357.25C869.344 357.25 869.111 357.25 868.811 357.25C868.511 357.25 868.227 357.233 867.961 357.2C867.394 357.167 866.911 357.017 866.511 356.75C866.111 356.45 865.827 356.1 865.661 355.7L857.261 329.9C857.094 329.2 857.177 328.583 857.511 328.05C857.877 327.483 858.444 327.067 859.211 326.8C859.444 326.733 859.677 326.683 859.911 326.65C860.144 326.617 860.344 326.6 860.511 326.6C861.544 326.6 862.261 327.167 862.661 328.3L866.311 339.65L870.161 351.55L877.661 328.3C878.027 327.133 878.694 326.55 879.661 326.55C880.027 326.55 880.494 326.633 881.061 326.8C881.927 327.033 882.527 327.433 882.861 328C883.194 328.533 883.244 329.167 883.011 329.9L874.661 355.7C874.361 356.633 873.577 357.133 872.311 357.2C872.244 357.2 872.161 357.2 872.061 357.2C871.994 357.233 871.927 357.25 871.861 357.25C871.594 357.283 871.361 357.3 871.161 357.3C870.961 357.3 870.777 357.3 870.611 357.3H870.061ZM892.948 349C892.948 349.8 893.198 350.55 893.698 351.25C894.232 351.95 895.115 352.3 896.348 352.3H902.598C903.832 352.3 904.698 352 905.198 351.4C905.732 350.767 905.998 350.05 905.998 349.25V348.7C905.998 347.133 906.915 346.35 908.748 346.35C910.582 346.35 911.498 347.133 911.498 348.7V349.3C911.498 350.7 911.265 351.85 910.798 352.75C910.365 353.65 909.698 354.433 908.798 355.1C907.032 356.367 905.265 357 903.498 357H895.098C893.332 357 891.615 356.367 889.948 355.1C889.148 354.433 888.532 353.6 888.098 352.6C887.665 351.567 887.448 350.383 887.448 349.05V334.8C887.448 332.1 888.282 330.1 889.948 328.8C890.782 328.2 891.632 327.733 892.498 327.4C893.398 327.033 894.265 326.85 895.098 326.85H903.498C904.298 326.85 905.182 327.017 906.148 327.35C907.115 327.65 908.015 328.067 908.848 328.6C909.648 329.167 910.282 329.95 910.748 330.95C911.248 331.95 911.498 333.133 911.498 334.5V341.25C911.498 342.017 911.265 342.7 910.798 343.3C910.365 343.9 909.548 344.2 908.348 344.2H897.548C896.348 344.2 895.715 343.417 895.648 341.85C895.648 340.283 896.282 339.5 897.548 339.5H906.048L905.998 334.85C905.998 334.017 905.732 333.267 905.198 332.6C904.698 331.9 903.832 331.55 902.598 331.55H896.348C895.115 331.55 894.232 331.9 893.698 332.6C893.198 333.267 892.948 334.017 892.948 334.85V349ZM951.409 331.6H941.759C940.392 331.6 939.492 332 939.059 332.8C938.592 333.5 938.359 334.317 938.359 335.25V349.65C938.359 350.517 938.625 351.183 939.159 351.65C939.692 352.083 940.575 352.3 941.809 352.3H946.959C948.159 352.3 948.759 353.083 948.759 354.65C948.759 355.317 948.609 355.883 948.309 356.35C948.042 356.783 947.592 357 946.959 357H940.909C938.809 357 936.942 356.467 935.309 355.4C933.675 354.4 932.859 352.5 932.859 349.7V334.8C932.859 333.433 933.075 332.25 933.509 331.25C933.942 330.25 934.625 329.433 935.559 328.8C937.325 327.533 939.092 326.9 940.859 326.9H951.409V319.4C951.409 317.8 952.325 317 954.159 317C955.992 317 956.909 317.8 956.909 319.4V354.9C956.909 356.5 955.992 357.3 954.159 357.3C953.459 357.3 952.825 357.183 952.259 356.95C951.692 356.683 951.409 356.117 951.409 355.25V331.6ZM971.073 357C970.039 357 969.056 356.867 968.123 356.6C967.189 356.3 966.289 355.883 965.423 355.35V355.4C963.789 354.367 962.973 352.467 962.973 349.7V347.25C962.973 345.883 963.206 344.7 963.673 343.7C964.173 342.667 964.856 341.85 965.723 341.25H965.673C966.506 340.683 967.389 340.267 968.323 340C969.256 339.7 970.156 339.55 971.023 339.55H982.073V334.9C982.073 334.067 981.806 333.317 981.273 332.65C980.773 331.95 979.906 331.6 978.673 331.6H972.823C971.556 331.6 970.673 331.917 970.173 332.55C969.706 333.15 969.473 333.867 969.473 334.7V335.1C969.473 336.833 968.539 337.7 966.673 337.7C964.806 337.7 963.873 336.833 963.873 335.1V334.65C963.873 333.283 964.106 332.133 964.573 331.2C965.073 330.267 965.739 329.483 966.573 328.85H966.523C967.389 328.283 968.289 327.817 969.223 327.45C970.189 327.083 971.106 326.9 971.973 326.9H979.573C980.406 326.9 981.289 327.083 982.223 327.45C983.189 327.817 984.089 328.283 984.923 328.85H984.873C985.739 329.483 986.406 330.317 986.873 331.35C987.339 332.35 987.573 333.517 987.573 334.85V354.9C987.573 356.5 986.656 357.3 984.823 357.3C984.456 357.3 984.106 357.283 983.773 357.25C983.473 357.217 983.189 357.133 982.923 357C982.689 356.833 982.489 356.617 982.323 356.35C982.189 356.05 982.123 355.667 982.123 355.2L982.073 344.25H971.973C971.239 344.25 970.673 344.333 970.273 344.5C969.873 344.667 969.556 344.933 969.323 345.3C969.056 345.867 968.856 346.317 968.723 346.65C968.623 346.95 968.573 347.3 968.573 347.7V349.65C968.573 350.517 968.823 351.183 969.323 351.65C969.856 352.083 970.756 352.3 972.023 352.3H977.623C978.856 352.3 979.473 353.083 979.473 354.65C979.473 355.317 979.323 355.883 979.023 356.35C978.723 356.783 978.256 357 977.623 357H971.073ZM999.54 354.9C999.54 356.5 998.624 357.3 996.79 357.3C994.957 357.3 994.04 356.5 994.04 354.9V319.4C994.04 317.8 994.957 317 996.79 317C998.624 317 999.54 317.8 999.54 319.4V326.9H1010.09C1011.79 326.9 1013.56 327.533 1015.39 328.8C1017.19 330.067 1018.09 332.067 1018.09 334.8V354.9C1018.09 356.5 1017.17 357.3 1015.34 357.3C1013.51 357.3 1012.59 356.5 1012.59 354.9V335.25C1012.59 334.383 1012.32 333.55 1011.79 332.75L1011.84 332.8C1011.41 332 1010.52 331.6 1009.19 331.6H999.54V354.9ZM1032.25 357C1031.22 357 1030.24 356.867 1029.3 356.6C1028.37 356.3 1027.47 355.883 1026.6 355.35V355.4C1024.97 354.367 1024.15 352.467 1024.15 349.7V347.25C1024.15 345.883 1024.39 344.7 1024.85 343.7C1025.35 342.667 1026.04 341.85 1026.9 341.25H1026.85C1027.69 340.683 1028.57 340.267 1029.5 340C1030.44 339.7 1031.34 339.55 1032.2 339.55H1043.25V334.9C1043.25 334.067 1042.99 333.317 1042.45 332.65C1041.95 331.95 1041.09 331.6 1039.85 331.6H1034C1032.74 331.6 1031.85 331.917 1031.35 332.55C1030.89 333.15 1030.65 333.867 1030.65 334.7V335.1C1030.65 336.833 1029.72 337.7 1027.85 337.7C1025.99 337.7 1025.05 336.833 1025.05 335.1V334.65C1025.05 333.283 1025.29 332.133 1025.75 331.2C1026.25 330.267 1026.92 329.483 1027.75 328.85H1027.7C1028.57 328.283 1029.47 327.817 1030.4 327.45C1031.37 327.083 1032.29 326.9 1033.15 326.9H1040.75C1041.59 326.9 1042.47 327.083 1043.4 327.45C1044.37 327.817 1045.27 328.283 1046.1 328.85H1046.05C1046.92 329.483 1047.59 330.317 1048.05 331.35C1048.52 332.35 1048.75 333.517 1048.75 334.85V354.9C1048.75 356.5 1047.84 357.3 1046 357.3C1045.64 357.3 1045.29 357.283 1044.95 357.25C1044.65 357.217 1044.37 357.133 1044.1 357C1043.87 356.833 1043.67 356.617 1043.5 356.35C1043.37 356.05 1043.3 355.667 1043.3 355.2L1043.25 344.25H1033.15C1032.42 344.25 1031.85 344.333 1031.45 344.5C1031.05 344.667 1030.74 344.933 1030.5 345.3C1030.24 345.867 1030.04 346.317 1029.9 346.65C1029.8 346.95 1029.75 347.3 1029.75 347.7V349.65C1029.75 350.517 1030 351.183 1030.5 351.65C1031.04 352.083 1031.94 352.3 1033.2 352.3H1038.8C1040.04 352.3 1040.65 353.083 1040.65 354.65C1040.65 355.317 1040.5 355.883 1040.2 356.35C1039.9 356.783 1039.44 357 1038.8 357H1032.25ZM1077.16 354.9C1077.16 356.5 1076.23 357.3 1074.36 357.3C1072.53 357.3 1071.61 356.5 1071.61 354.9V331.6H1069.21C1068.01 331.6 1067.38 330.817 1067.31 329.25C1067.31 327.683 1067.95 326.9 1069.21 326.9H1071.61V324.5C1071.61 323.133 1071.8 321.983 1072.16 321.05C1072.56 320.083 1073.2 319.35 1074.06 318.85V318.9C1074.93 318.367 1075.81 317.95 1076.71 317.65C1077.65 317.35 1078.63 317.2 1079.66 317.2H1080.86C1082.1 317.2 1082.71 317.983 1082.71 319.55C1082.78 321.117 1082.16 321.9 1080.86 321.9H1080.06C1079.43 321.9 1078.91 321.967 1078.51 322.1C1078.15 322.2 1077.86 322.367 1077.66 322.6C1077.46 322.833 1077.33 323.117 1077.26 323.45C1077.2 323.783 1077.16 324.15 1077.16 324.55V326.9H1080.91C1082.21 326.9 1082.83 327.683 1082.76 329.25C1082.76 330.817 1082.15 331.6 1080.91 331.6H1077.16V354.9ZM1094.56 357C1093.53 357 1092.54 356.867 1091.61 356.6C1090.68 356.3 1089.78 355.883 1088.91 355.35V355.4C1087.28 354.367 1086.46 352.467 1086.46 349.7V347.25C1086.46 345.883 1086.69 344.7 1087.16 343.7C1087.66 342.667 1088.34 341.85 1089.21 341.25H1089.16C1089.99 340.683 1090.88 340.267 1091.81 340C1092.74 339.7 1093.64 339.55 1094.51 339.55H1105.56V334.9C1105.56 334.067 1105.29 333.317 1104.76 332.65C1104.26 331.95 1103.39 331.6 1102.16 331.6H1096.31C1095.04 331.6 1094.16 331.917 1093.66 332.55C1093.19 333.15 1092.96 333.867 1092.96 334.7V335.1C1092.96 336.833 1092.03 337.7 1090.16 337.7C1088.29 337.7 1087.36 336.833 1087.36 335.1V334.65C1087.36 333.283 1087.59 332.133 1088.06 331.2C1088.56 330.267 1089.23 329.483 1090.06 328.85H1090.01C1090.88 328.283 1091.78 327.817 1092.71 327.45C1093.68 327.083 1094.59 326.9 1095.46 326.9H1103.06C1103.89 326.9 1104.78 327.083 1105.71 327.45C1106.68 327.817 1107.58 328.283 1108.41 328.85H1108.36C1109.23 329.483 1109.89 330.317 1110.36 331.35C1110.83 332.35 1111.06 333.517 1111.06 334.85V354.9C1111.06 356.5 1110.14 357.3 1108.31 357.3C1107.94 357.3 1107.59 357.283 1107.26 357.25C1106.96 357.217 1106.68 357.133 1106.41 357C1106.18 356.833 1105.98 356.617 1105.81 356.35C1105.68 356.05 1105.61 355.667 1105.61 355.2L1105.56 344.25H1095.46C1094.73 344.25 1094.16 344.333 1093.76 344.5C1093.36 344.667 1093.04 344.933 1092.81 345.3C1092.54 345.867 1092.34 346.317 1092.21 346.65C1092.11 346.95 1092.06 347.3 1092.06 347.7V349.65C1092.06 350.517 1092.31 351.183 1092.81 351.65C1093.34 352.083 1094.24 352.3 1095.51 352.3H1101.11C1102.34 352.3 1102.96 353.083 1102.96 354.65C1102.96 355.317 1102.81 355.883 1102.51 356.35C1102.21 356.783 1101.74 357 1101.11 357H1094.56ZM1117.18 331.6C1115.98 331.6 1115.34 330.817 1115.28 329.25C1115.28 327.683 1115.91 326.9 1117.18 326.9H1134.53C1135.59 326.9 1136.43 327.083 1137.03 327.45C1137.66 327.783 1138.01 328.25 1138.08 328.85C1138.11 329.383 1138.09 329.917 1138.03 330.45C1137.99 330.983 1137.88 331.383 1137.68 331.65L1122.33 352.3H1136.48C1137.68 352.3 1138.28 353.083 1138.28 354.65C1138.34 355.45 1138.21 356.05 1137.88 356.45C1137.54 356.817 1137.08 357 1136.48 357H1118.53C1116.36 357 1115.19 356.367 1115.03 355.1C1114.93 353.933 1115.04 352.983 1115.38 352.25L1130.78 331.6H1117.18ZM1148.23 355.05C1148.23 356.617 1147.31 357.4 1145.48 357.4C1143.61 357.4 1142.68 356.617 1142.68 355.05V319.2C1142.68 317.633 1143.61 316.85 1145.48 316.85C1147.31 316.85 1148.23 317.633 1148.23 319.2V355.05ZM1162.67 357C1161.64 357 1160.66 356.867 1159.72 356.6C1158.79 356.3 1157.89 355.883 1157.02 355.35V355.4C1155.39 354.367 1154.57 352.467 1154.57 349.7V347.25C1154.57 345.883 1154.81 344.7 1155.27 343.7C1155.77 342.667 1156.46 341.85 1157.32 341.25H1157.27C1158.11 340.683 1158.99 340.267 1159.92 340C1160.86 339.7 1161.76 339.55 1162.62 339.55H1173.67V334.9C1173.67 334.067 1173.41 333.317 1172.87 332.65C1172.37 331.95 1171.51 331.6 1170.27 331.6H1164.42C1163.16 331.6 1162.27 331.917 1161.77 332.55C1161.31 333.15 1161.07 333.867 1161.07 334.7V335.1C1161.07 336.833 1160.14 337.7 1158.27 337.7C1156.41 337.7 1155.47 336.833 1155.47 335.1V334.65C1155.47 333.283 1155.71 332.133 1156.17 331.2C1156.67 330.267 1157.34 329.483 1158.17 328.85H1158.12C1158.99 328.283 1159.89 327.817 1160.82 327.45C1161.79 327.083 1162.71 326.9 1163.57 326.9H1171.17C1172.01 326.9 1172.89 327.083 1173.82 327.45C1174.79 327.817 1175.69 328.283 1176.52 328.85H1176.47C1177.34 329.483 1178.01 330.317 1178.47 331.35C1178.94 332.35 1179.17 333.517 1179.17 334.85V354.9C1179.17 356.5 1178.26 357.3 1176.42 357.3C1176.06 357.3 1175.71 357.283 1175.37 357.25C1175.07 357.217 1174.79 357.133 1174.52 357C1174.29 356.833 1174.09 356.617 1173.92 356.35C1173.79 356.05 1173.72 355.667 1173.72 355.2L1173.67 344.25H1163.57C1162.84 344.25 1162.27 344.333 1161.87 344.5C1161.47 344.667 1161.16 344.933 1160.92 345.3C1160.66 345.867 1160.46 346.317 1160.32 346.65C1160.22 346.95 1160.17 347.3 1160.17 347.7V349.65C1160.17 350.517 1160.42 351.183 1160.92 351.65C1161.46 352.083 1162.36 352.3 1163.62 352.3H1169.22C1170.46 352.3 1171.07 353.083 1171.07 354.65C1171.07 355.317 1170.92 355.883 1170.62 356.35C1170.32 356.783 1169.86 357 1169.22 357H1162.67ZM1201.89 339.5C1202.73 339.5 1203.61 339.7 1204.54 340.1C1205.51 340.467 1206.41 340.933 1207.24 341.5H1207.19C1208.06 342.133 1208.73 342.95 1209.19 343.95C1209.66 344.95 1209.89 346.15 1209.89 347.55V349.05C1209.89 351.783 1208.99 353.8 1207.19 355.1C1206.33 355.767 1205.44 356.25 1204.54 356.55C1203.64 356.85 1202.76 357 1201.89 357H1193.39C1192.53 357 1191.64 356.85 1190.74 356.55C1189.84 356.25 1188.96 355.767 1188.09 355.1C1186.29 353.833 1185.39 351.817 1185.39 349.05V348.45C1185.39 347.017 1186.31 346.317 1188.14 346.35C1190.01 346.35 1190.94 347.05 1190.94 348.45V349C1190.94 349.8 1191.19 350.55 1191.69 351.25C1192.19 351.95 1193.08 352.3 1194.34 352.3H1200.94C1202.21 352.3 1203.09 351.95 1203.59 351.25C1204.09 350.55 1204.34 349.8 1204.34 349V347.6C1204.34 347.167 1204.28 346.75 1204.14 346.35C1204.04 345.95 1203.86 345.6 1203.59 345.3C1203.33 344.967 1202.98 344.7 1202.54 344.5C1202.11 344.3 1201.58 344.2 1200.94 344.2H1193.64C1191.94 344.2 1190.16 343.6 1188.29 342.4C1186.53 341.267 1185.64 339.317 1185.64 336.55V334.85C1185.64 333.517 1185.88 332.35 1186.34 331.35C1186.81 330.317 1187.48 329.483 1188.34 328.85H1188.29C1189.13 328.283 1190.01 327.817 1190.94 327.45C1191.88 327.083 1192.78 326.9 1193.64 326.9H1201.64C1202.51 326.9 1203.39 327.083 1204.29 327.45C1205.23 327.817 1206.13 328.283 1206.99 328.85H1206.94C1207.81 329.483 1208.48 330.317 1208.94 331.35C1209.41 332.35 1209.64 333.517 1209.64 334.85V335.3C1209.64 336 1209.41 336.517 1208.94 336.85C1208.48 337.15 1207.79 337.317 1206.89 337.35C1205.06 337.383 1204.14 336.7 1204.14 335.3V334.9C1204.14 334.067 1203.88 333.317 1203.34 332.65C1202.84 331.95 1201.98 331.6 1200.74 331.6H1194.54C1193.31 331.6 1192.43 331.95 1191.89 332.65C1191.39 333.317 1191.14 334.067 1191.14 334.9V336.1C1191.14 336.967 1191.39 337.75 1191.89 338.45C1192.43 339.15 1193.31 339.5 1194.54 339.5H1201.89ZM1221.5 357H1217.1V330.2H1221.5V357Z" fill="white"/>
<path d="M272.25 26.25C272.25 33.5833 271.5 38.5 270 41C268.5 43.6667 265.333 45 260.5 45C255.333 45 252.75 44.3333 252.75 43C251.583 50 242.75 74.9167 226.25 117.75C209.583 160.75 200.333 182.417 198.5 182.75C193.167 183.583 186.667 184 179 184C175 184 169.25 183.583 161.75 182.75C159.917 181.917 150.75 160.083 134.25 117.25C117.583 74.5833 108.667 49.8333 107.5 43C107.5 44.3333 104.917 45 99.75 45C94.9167 45 91.75 43.6667 90.25 41C88.75 38.5 88 33.5833 88 26.25C88 17.75 88.9167 13 90.75 12C92.9167 10 105.917 9 129.75 9C146.917 9 155.5 9.91667 155.5 11.75C159.167 13.9167 161 21.3333 161 34C161 35.8333 160.917 37.25 160.75 38.25C160.583 39.25 159.917 40.25 158.75 41.25C157.583 42.25 155.917 42.75 153.75 42.75C148.917 42.75 146.5 42.4167 146.5 41.75C145.833 41.75 145.5 42.5833 145.5 44.25C145.5 48.4167 147.75 57.9167 152.25 72.75C159.083 72.0833 168.167 71.75 179.5 71.75C191.667 71.75 201.167 72.0833 208 72.75C212.5 57.75 214.75 48.1667 214.75 44C214.75 42.6667 214.417 41.9167 213.75 41.75C212.75 42.4167 210.583 42.75 207.25 42.75C204.75 42.75 202.917 42.1667 201.75 41C200.417 39.8333 199.667 38.6667 199.5 37.5C199.333 36.3333 199.25 34.4167 199.25 31.75C199.25 20.75 201.083 14.0833 204.75 11.75C204.75 9.91667 213.333 9 230.5 9C254.333 9 267.333 10 269.5 12C271.333 13 272.25 17.75 272.25 26.25ZM199 101.75C192.667 102.25 186.583 102.5 180.75 102.5C173.917 102.5 167.5 102.167 161.5 101.5C169 123.667 175.25 140.833 180.25 153C184.917 141.5 191.167 124.417 199 101.75Z" fill="white"/>
</svg>
