<svg width="1239" height="570" viewBox="0 0 1239 570" fill="none" xmlns="http://www.w3.org/2000/svg">
<path d="M286.035 318.285C284.18 318.285 282.593 317.65 281.274 316.381C280.005 315.111 279.37 313.231 279.37 310.741C279.37 310.204 279.395 309.667 279.443 309.13C279.541 308.544 279.663 308.031 279.81 307.592C279.956 307.104 280.127 306.713 280.322 306.42C280.566 306.127 280.811 305.98 281.055 305.98C281.299 305.98 281.519 306.054 281.714 306.2C281.958 306.347 282.251 306.518 282.593 306.713C282.983 306.908 283.496 307.079 284.131 307.226C284.766 307.372 285.645 307.445 286.768 307.445C289.453 307.445 292.212 307.03 295.044 306.2C297.876 305.321 300.439 304.101 302.734 302.538C305.078 300.927 306.982 298.998 308.447 296.752C309.961 294.506 310.718 291.967 310.718 289.135C310.718 288.109 310.547 287.108 310.205 286.132C309.863 285.155 309.351 284.301 308.667 283.568C307.983 282.787 307.104 282.152 306.03 281.664C305.005 281.176 303.784 280.932 302.368 280.932C298.462 280.932 294.873 281.786 291.602 283.495C288.379 285.204 285.449 287.523 282.812 290.453C280.176 293.334 277.856 296.679 275.854 300.487C273.901 304.296 272.266 308.324 270.947 312.572C269.629 316.771 268.628 321.044 267.944 325.39C267.261 329.735 266.919 333.861 266.919 337.768C266.919 342.455 267.212 346.801 267.798 350.805C268.384 354.76 269.336 358.178 270.654 361.059C271.973 363.939 273.73 366.21 275.928 367.87C278.125 369.481 280.835 370.287 284.058 370.287C286.987 370.287 289.575 369.555 291.821 368.09C294.067 366.576 296.021 364.55 297.681 362.011C299.39 359.472 300.83 356.518 302.002 353.148C303.223 349.73 304.272 346.093 305.151 342.235C306.03 338.378 306.787 334.398 307.422 330.297C308.057 326.195 308.618 322.191 309.106 318.285C309.253 317.309 309.961 316.576 311.23 316.088C312.5 315.551 313.843 315.282 315.259 315.282C315.845 315.282 316.455 315.355 317.09 315.502C317.725 315.648 318.262 315.868 318.701 316.161C319.189 316.454 319.531 316.845 319.727 317.333C319.971 317.821 320.02 318.432 319.873 319.164C319.482 321.117 319.067 324.218 318.628 328.466C318.188 332.665 317.969 337.719 317.969 343.627C317.969 348.559 317.993 352.807 318.042 356.371C318.14 359.936 318.262 363.012 318.408 365.6C318.555 368.188 318.701 370.36 318.848 372.118C318.994 373.827 319.141 375.268 319.287 376.439C319.58 376.879 319.727 377.221 319.727 377.465C319.727 377.953 319.482 378.417 318.994 378.856C318.506 379.296 317.896 379.687 317.163 380.028C316.431 380.37 315.601 380.639 314.673 380.834C313.794 381.029 312.939 381.127 312.109 381.127C310.791 381.127 309.79 380.858 309.106 380.321C308.423 379.784 307.91 378.881 307.568 377.611C307.275 376.391 307.08 374.755 306.982 372.704C306.885 370.604 306.787 368.041 306.689 365.014C305.566 367.406 304.175 369.628 302.515 371.679C300.854 373.729 298.999 375.512 296.948 377.025C294.897 378.588 292.651 379.809 290.21 380.688C287.817 381.566 285.303 382.006 282.666 382.006C278.564 382.006 274.805 381.225 271.387 379.662C268.018 378.1 265.112 375.585 262.671 372.118C260.229 368.651 258.325 364.135 256.958 358.568C255.64 352.953 254.98 346.117 254.98 338.061C254.98 332.543 255.493 327.025 256.519 321.508C257.593 315.941 259.106 310.619 261.06 305.541C263.062 300.463 265.479 295.727 268.311 291.332C271.191 286.938 274.414 283.129 277.979 279.906C281.543 276.684 285.425 274.145 289.624 272.289C293.872 270.434 298.364 269.506 303.101 269.506C306.177 269.506 308.911 269.994 311.304 270.971C313.745 271.947 315.796 273.314 317.456 275.072C319.116 276.781 320.386 278.808 321.265 281.151C322.144 283.446 322.583 285.912 322.583 288.549C322.583 292.895 321.533 296.898 319.434 300.561C317.334 304.174 314.575 307.299 311.157 309.936C307.739 312.572 303.833 314.623 299.438 316.088C295.044 317.553 290.576 318.285 286.035 318.285ZM338.184 355.419C337.793 356.981 337.061 357.958 335.986 358.349C334.912 358.69 333.838 358.642 332.764 358.202C331.738 357.763 330.859 357.006 330.127 355.932C329.443 354.857 329.248 353.686 329.541 352.416C330.273 349.096 331.323 345.434 332.69 341.43C334.106 337.377 335.498 333.349 336.865 329.345C336.133 328.222 335.547 327.099 335.107 325.976C334.668 324.804 334.448 323.583 334.448 322.313C334.448 321.044 334.912 319.726 335.84 318.358C336.816 316.942 337.964 315.648 339.282 314.477C340.649 313.305 342.041 312.353 343.457 311.62C344.922 310.839 346.167 310.448 347.192 310.448C348.999 310.448 350.342 311.059 351.221 312.279C352.148 313.5 352.612 315.136 352.612 317.187C352.612 318.31 352.417 319.433 352.026 320.556C351.685 321.63 351.294 322.655 350.854 323.632C350.415 324.56 350 325.365 349.609 326.049C349.268 326.732 349.072 327.172 349.023 327.367C350.781 330.492 352.612 333.251 354.517 335.644C356.421 338.036 358.154 340.404 359.717 342.748C361.328 345.092 362.646 347.582 363.672 350.219C364.697 352.855 365.21 355.956 365.21 359.521C365.21 360.399 365.137 361.303 364.99 362.23C364.893 363.158 364.722 364.037 364.478 364.867C366.235 364.525 367.773 363.988 369.092 363.256C370.459 362.523 371.631 361.693 372.607 360.766C373.633 359.789 374.463 358.739 375.098 357.616C375.781 356.493 376.343 355.321 376.782 354.101C377.319 352.685 377.856 351.659 378.394 351.024C378.931 350.39 379.541 350.072 380.225 350.072C380.859 350.072 381.494 350.292 382.129 350.731C382.812 351.122 383.398 351.635 383.887 352.27C384.424 352.904 384.839 353.563 385.132 354.247C385.474 354.931 385.645 355.541 385.645 356.078C385.645 356.811 385.449 357.689 385.059 358.715C384.668 359.74 384.131 360.79 383.447 361.864C382.812 362.938 382.08 363.988 381.25 365.014C380.42 365.99 379.565 366.845 378.687 367.577C376.343 369.481 373.584 371.093 370.41 372.411C367.236 373.681 363.306 374.486 358.618 374.828C356.812 376.391 354.663 377.66 352.173 378.637C349.731 379.662 346.973 380.175 343.896 380.175C342.334 380.175 340.723 379.979 339.062 379.589C337.451 379.198 335.889 378.686 334.375 378.051C332.91 377.465 331.567 376.806 330.347 376.073C329.126 375.341 328.149 374.608 327.417 373.876C325.562 372.118 324.365 370.36 323.828 368.603C323.291 366.796 323.169 365.185 323.462 363.769C323.706 362.353 324.219 361.205 325 360.326C325.781 359.398 326.587 358.935 327.417 358.935C327.905 358.935 328.662 359.154 329.688 359.594C330.762 359.984 331.982 360.521 333.35 361.205C334.717 361.84 336.206 362.523 337.817 363.256C339.429 363.988 341.04 364.696 342.651 365.38C344.263 366.015 345.825 366.552 347.339 366.991C348.901 367.382 350.317 367.577 351.587 367.577C352.417 366.601 353.174 365.307 353.857 363.695C354.541 362.084 354.883 360.326 354.883 358.422C354.883 356.078 354.565 353.905 353.931 351.903C353.296 349.901 352.466 348.046 351.44 346.337C350.415 344.628 349.243 343.041 347.925 341.576C346.655 340.062 345.361 338.646 344.043 337.328C342.871 340.209 341.846 343.065 340.967 345.897C340.088 348.681 339.16 351.854 338.184 355.419ZM364.038 305.468C365.161 305.565 366.406 305.639 367.773 305.688C368.945 305.785 370.361 305.858 372.021 305.907C373.682 305.907 375.537 305.932 377.588 305.98V280.565C377.588 279.491 377.49 278.637 377.295 278.002C377.148 277.367 376.978 276.879 376.782 276.537C376.636 276.146 376.465 275.854 376.27 275.658C376.123 275.414 376.05 275.17 376.05 274.926C376.05 274.633 376.196 274.389 376.489 274.193C376.782 273.998 377.173 273.827 377.661 273.681C378.149 273.534 378.662 273.437 379.199 273.388C379.785 273.29 380.347 273.241 380.884 273.241C383.374 273.241 385.327 273.9 386.743 275.219C388.208 276.488 388.94 278.026 388.94 279.833V306.127C393.53 306.127 398.364 306.078 403.442 305.98C408.569 305.883 413.696 305.712 418.823 305.468C419.507 304.735 420.044 304.467 420.435 304.662C420.874 304.857 421.143 305.321 421.24 306.054C421.387 306.786 421.411 307.689 421.313 308.764C421.216 309.838 421.021 310.888 420.728 311.913C420.435 312.89 420.02 313.744 419.482 314.477C418.994 315.209 418.433 315.575 417.798 315.575C411.792 315.722 406.47 315.819 401.831 315.868C397.241 315.868 392.944 315.868 388.94 315.868V363.402C388.94 365.844 389.404 367.602 390.332 368.676C391.26 369.75 392.505 370.287 394.067 370.287C395.581 370.287 396.875 369.75 397.949 368.676C399.072 367.602 400.024 366.259 400.806 364.647C401.636 363.036 402.295 361.303 402.783 359.447C403.32 357.543 403.76 355.761 404.102 354.101C404.395 352.538 404.883 351.415 405.566 350.731C406.25 349.999 406.958 349.633 407.69 349.633C408.276 349.633 408.887 349.828 409.521 350.219C410.156 350.561 410.718 351.024 411.206 351.61C411.743 352.196 412.158 352.855 412.451 353.588C412.793 354.32 412.964 355.053 412.964 355.785C412.964 355.883 412.964 356.005 412.964 356.151C412.964 356.298 412.915 356.518 412.817 356.811C412.183 359.301 411.304 361.913 410.181 364.647C409.106 367.382 407.69 369.896 405.933 372.191C404.224 374.486 402.173 376.391 399.78 377.904C397.388 379.418 394.58 380.175 391.357 380.175C389.355 380.175 387.5 379.857 385.791 379.223C384.131 378.637 382.69 377.66 381.47 376.293C380.249 374.975 379.297 373.266 378.613 371.166C377.93 369.066 377.588 366.527 377.588 363.549V315.868C375.928 315.868 374.438 315.868 373.12 315.868C371.851 315.819 370.776 315.771 369.897 315.722C368.872 315.673 367.969 315.624 367.188 315.575C366.016 315.575 364.99 315.062 364.111 314.037C363.184 312.963 362.549 311.791 362.207 310.521C361.816 309.252 361.768 308.104 362.061 307.079C362.305 306.005 362.964 305.468 364.038 305.468ZM437.5 380.175C435.742 380.175 433.936 379.906 432.08 379.369C430.273 378.832 428.613 377.904 427.1 376.586C425.635 375.268 424.414 373.534 423.438 371.386C422.51 369.188 422.046 366.43 422.046 363.109C422.046 358.275 422.681 353.173 423.95 347.802C425.269 342.382 427.148 336.425 429.59 329.931H418.164H416.479C416.431 331.396 416.333 333.251 416.187 335.497C416.089 337.743 415.894 340.136 415.601 342.675C415.308 345.214 414.917 347.777 414.429 350.365C413.989 352.953 413.428 355.346 412.744 357.543C412.256 359.105 411.475 360.009 410.4 360.253C409.375 360.497 408.35 360.326 407.324 359.74C406.299 359.105 405.469 358.202 404.834 357.03C404.199 355.858 404.053 354.638 404.395 353.368C404.785 351.854 405.127 350.023 405.42 347.875C405.713 345.678 405.933 343.383 406.079 340.99C406.274 338.549 406.421 336.132 406.519 333.739C406.616 331.298 406.689 329.125 406.738 327.221C404.883 326.195 403.345 324.901 402.124 323.339C400.903 321.728 400.293 319.823 400.293 317.626C400.293 316.601 400.488 315.673 400.879 314.843C401.318 313.964 401.88 313.231 402.563 312.646C403.247 312.011 404.053 311.547 404.98 311.254C405.908 310.912 406.86 310.741 407.837 310.741C408.716 310.741 409.619 310.863 410.547 311.107C411.523 311.352 412.427 311.791 413.257 312.426C414.136 313.061 414.917 313.891 415.601 314.916C416.284 315.941 416.846 317.211 417.285 318.725C418.506 318.871 419.531 318.993 420.361 319.091C421.24 319.14 421.973 319.188 422.559 319.237C423.145 319.286 423.633 319.311 424.023 319.311C424.414 319.311 424.805 319.311 425.195 319.311H433.032C433.472 319.311 434.106 319.579 434.937 320.116C435.815 320.653 436.67 321.361 437.5 322.24C438.33 323.07 439.014 323.974 439.551 324.95C440.137 325.927 440.356 326.854 440.21 327.733C440.21 328.026 440.039 328.734 439.697 329.857C439.355 330.98 438.94 332.396 438.452 334.105C437.964 335.814 437.427 337.792 436.841 340.038C436.255 342.235 435.718 344.555 435.229 346.996C434.741 349.438 434.326 351.977 433.984 354.613C433.643 357.201 433.472 359.74 433.472 362.23C433.472 363.256 433.594 364.257 433.838 365.233C434.082 366.21 434.448 367.089 434.937 367.87C435.425 368.603 436.035 369.188 436.768 369.628C437.549 370.067 438.452 370.287 439.478 370.287C441.187 370.287 442.651 369.75 443.872 368.676C445.093 367.602 446.118 366.259 446.948 364.647C447.778 363.036 448.438 361.303 448.926 359.447C449.463 357.543 449.902 355.761 450.244 354.101C450.537 352.538 451.025 351.415 451.709 350.731C452.393 349.999 453.101 349.633 453.833 349.633C454.419 349.633 455.029 349.828 455.664 350.219C456.299 350.561 456.86 351.024 457.349 351.61C457.886 352.196 458.301 352.855 458.594 353.588C458.936 354.32 459.106 355.053 459.106 355.785C459.106 356.029 459.082 356.225 459.033 356.371C458.984 356.518 458.96 356.664 458.96 356.811C458.276 359.301 457.373 361.913 456.25 364.647C455.176 367.382 453.784 369.896 452.075 372.191C450.366 374.486 448.315 376.391 445.923 377.904C443.53 379.418 440.723 380.175 437.5 380.175ZM505.835 351.244C505.933 350.658 506.25 350.17 506.787 349.779C507.373 349.389 508.032 349.12 508.765 348.974C509.497 348.827 510.254 348.827 511.035 348.974C511.865 349.12 512.573 349.462 513.159 349.999C513.794 350.487 514.233 351.195 514.478 352.123C514.771 353.002 514.746 354.149 514.404 355.565C513.965 357.616 513.232 359.545 512.207 361.352C511.23 363.109 509.985 364.672 508.472 366.039C506.958 367.406 505.176 368.48 503.125 369.262C501.074 370.043 498.779 370.434 496.24 370.434C494.873 370.434 493.579 370.36 492.358 370.214C491.187 370.067 490.039 369.799 488.916 369.408C487.061 372.631 484.668 375.219 481.738 377.172C478.809 379.174 475.195 380.175 470.898 380.175C467.09 380.175 463.818 379.418 461.084 377.904C458.35 376.439 456.079 374.438 454.272 371.898C452.466 369.311 451.123 366.332 450.244 362.963C449.414 359.594 448.999 356.029 448.999 352.27C448.999 346.752 449.634 341.82 450.903 337.475C452.222 333.08 453.735 329.369 455.444 326.342C457.153 323.266 458.838 320.922 460.498 319.311C462.207 317.699 463.477 316.894 464.307 316.894C465.283 316.894 466.162 317.333 466.943 318.212C467.773 319.042 468.359 320.043 468.701 321.215C469.092 322.338 469.189 323.485 468.994 324.657C468.848 325.829 468.286 326.732 467.31 327.367C466.724 328.295 466.016 329.369 465.186 330.59C464.404 331.811 463.647 333.349 462.915 335.204C462.231 337.011 461.646 339.232 461.157 341.869C460.669 344.506 460.425 347.68 460.425 351.391C460.425 354.564 460.693 357.323 461.23 359.667C461.816 362.011 462.598 363.988 463.574 365.6C464.6 367.162 465.747 368.334 467.017 369.115C468.335 369.896 469.727 370.287 471.191 370.287C473.34 370.287 475.098 369.774 476.465 368.749C477.881 367.675 479.077 366.283 480.054 364.574C476.538 361.547 473.853 357.714 471.997 353.075C470.19 348.388 469.287 343.334 469.287 337.914C469.287 335.57 469.531 333.349 470.02 331.249C470.557 329.101 471.313 327.221 472.29 325.609C473.315 323.998 474.585 322.729 476.099 321.801C477.612 320.824 479.37 320.336 481.372 320.336C483.13 320.336 484.79 320.971 486.353 322.24C487.915 323.51 489.282 325.268 490.454 327.514C491.626 329.76 492.529 332.421 493.164 335.497C493.848 338.573 494.189 341.918 494.189 345.531C494.189 348.314 494.019 351.073 493.677 353.808C493.335 356.542 492.798 359.179 492.065 361.718C492.603 361.913 493.091 362.035 493.53 362.084C494.019 362.084 494.531 362.084 495.068 362.084C496.68 362.084 498.096 361.791 499.316 361.205C500.586 360.619 501.66 359.838 502.539 358.861C503.418 357.885 504.126 356.737 504.663 355.419C505.2 354.101 505.591 352.709 505.835 351.244ZM477.197 337.328C477.197 340.697 477.71 343.896 478.735 346.923C479.81 349.95 481.201 352.587 482.91 354.833C483.203 352.44 483.35 350.146 483.35 347.948C483.35 345.409 483.301 343.065 483.203 340.917C483.154 338.72 482.983 336.84 482.69 335.277C482.446 333.715 482.08 332.494 481.592 331.615C481.152 330.688 480.542 330.224 479.761 330.224C478.052 330.224 477.197 332.592 477.197 337.328ZM530.664 297.411C530.664 295.995 530.542 294.97 530.298 294.335C530.103 293.7 530.005 293.114 530.005 292.577C530.005 291.845 530.396 291.234 531.177 290.746C531.958 290.258 532.886 290.014 533.96 290.014C536.45 290.014 538.452 290.673 539.966 291.991C541.528 293.261 542.31 294.823 542.31 296.679V345.678C544.019 345.482 545.947 344.994 548.096 344.213C550.293 343.432 552.539 342.357 554.834 340.99C557.129 339.574 559.351 337.841 561.499 335.79C563.696 333.739 565.649 331.347 567.358 328.612C569.067 325.878 570.435 322.802 571.46 319.384C572.534 315.917 573.071 312.084 573.071 307.885C573.071 305.053 572.607 302.123 571.68 299.096C570.801 296.068 569.385 293.31 567.432 290.819C565.479 288.329 562.939 286.278 559.814 284.667C556.738 283.056 553.003 282.25 548.608 282.25C542.603 282.25 537.451 283.178 533.154 285.033C528.857 286.889 525.342 289.379 522.607 292.504C519.922 295.629 517.944 299.267 516.675 303.417C515.405 307.519 514.771 311.864 514.771 316.454C514.771 319.774 515.039 322.582 515.576 324.877C516.162 327.123 516.797 328.979 517.48 330.443C518.164 331.859 518.799 332.909 519.385 333.593C519.971 334.276 520.312 334.667 520.41 334.765C521.24 334.521 521.826 334.618 522.168 335.058C522.51 335.497 522.681 336.083 522.681 336.815C522.681 337.499 522.437 338.524 521.948 339.892C521.509 341.259 520.898 342.553 520.117 343.773C519.336 344.945 518.433 345.849 517.407 346.483C516.382 347.069 515.332 346.947 514.258 346.117C513.672 345.58 512.769 344.604 511.548 343.188C510.327 341.771 509.106 339.892 507.886 337.548C506.714 335.155 505.664 332.299 504.736 328.979C503.809 325.609 503.345 321.728 503.345 317.333C503.345 310.302 504.443 303.954 506.641 298.29C508.838 292.577 511.914 287.694 515.869 283.642C519.873 279.589 524.634 276.464 530.151 274.267C535.669 272.069 541.772 270.971 548.462 270.971C553.931 270.971 558.887 271.874 563.33 273.681C567.822 275.487 571.631 278.026 574.756 281.298C577.93 284.521 580.371 288.378 582.08 292.87C583.789 297.362 584.644 302.27 584.644 307.592C584.644 314.135 583.472 320.189 581.128 325.756C578.784 331.273 575.659 336.181 571.753 340.478C567.847 344.774 563.33 348.339 558.203 351.171C553.125 354.003 547.827 355.932 542.31 356.957V376.732C542.31 378.002 541.895 378.881 541.064 379.369C540.234 379.906 539.258 380.175 538.135 380.175C537.256 380.175 536.377 380.053 535.498 379.809C534.619 379.564 533.813 379.247 533.081 378.856C532.397 378.466 531.812 378.002 531.323 377.465C530.884 376.977 530.664 376.439 530.664 375.854V297.411ZM631.226 370.287C632.739 370.287 634.033 369.75 635.107 368.676C636.23 367.602 637.183 366.259 637.964 364.647C638.794 363.036 639.453 361.303 639.941 359.447C640.479 357.543 640.918 355.761 641.26 354.101C641.602 352.538 642.09 351.415 642.725 350.731C643.408 349.999 644.141 349.633 644.922 349.633C645.508 349.633 646.094 349.828 646.68 350.219C647.314 350.561 647.876 351.024 648.364 351.61C648.901 352.196 649.316 352.855 649.609 353.588C649.951 354.32 650.122 355.053 650.122 355.785C650.122 355.883 650.122 356.005 650.122 356.151C650.122 356.298 650.073 356.518 649.976 356.811C649.341 359.301 648.462 361.913 647.339 364.647C646.265 367.382 644.873 369.896 643.164 372.191C641.455 374.486 639.38 376.391 636.938 377.904C634.546 379.418 631.738 380.175 628.516 380.175C625.879 380.175 623.584 379.613 621.631 378.49C619.678 377.367 618.14 375.878 617.017 374.022C615.503 375.731 613.672 377.172 611.523 378.344C609.424 379.564 606.958 380.175 604.126 380.175C601.196 380.175 598.608 379.589 596.362 378.417C594.165 377.245 592.31 375.658 590.796 373.656C589.282 371.605 588.135 369.213 587.354 366.479C586.621 363.695 586.255 360.717 586.255 357.543C586.255 351.293 587.256 345.678 589.258 340.697C591.26 335.717 593.921 331.493 597.241 328.026C600.562 324.511 604.346 321.825 608.594 319.97C612.891 318.114 617.334 317.187 621.924 317.187C623.975 317.187 625.635 317.748 626.904 318.871C628.174 319.994 628.809 321.532 628.809 323.485C628.809 324.755 628.662 325.658 628.369 326.195C628.125 326.684 627.637 326.928 626.904 326.928C626.221 326.928 625.513 326.879 624.78 326.781C624.048 326.684 623.291 326.635 622.51 326.635C619.678 326.635 616.797 327.27 613.867 328.539C610.938 329.76 608.276 331.664 605.884 334.252C603.54 336.791 601.611 340.038 600.098 343.993C598.584 347.899 597.827 352.562 597.827 357.982C597.827 361.938 598.584 364.989 600.098 367.138C601.611 369.237 603.687 370.287 606.323 370.287C608.374 370.287 610.083 369.53 611.45 368.017C612.817 366.454 613.916 364.623 614.746 362.523V339.379C614.746 338.646 614.697 338.036 614.6 337.548C614.551 337.06 614.478 336.645 614.38 336.303C614.331 335.961 614.282 335.668 614.233 335.424C614.185 335.131 614.16 334.862 614.16 334.618C614.16 333.837 614.526 333.227 615.259 332.787C616.04 332.299 616.968 332.055 618.042 332.055C620.532 332.055 622.51 332.714 623.975 334.032C625.439 335.302 626.172 336.84 626.172 338.646V363.402C626.172 364.232 626.27 365.062 626.465 365.893C626.66 366.674 626.953 367.406 627.344 368.09C627.734 368.725 628.247 369.262 628.882 369.701C629.565 370.092 630.347 370.287 631.226 370.287ZM628.442 305.468C629.565 305.565 630.811 305.639 632.178 305.688C633.35 305.785 634.766 305.858 636.426 305.907C638.086 305.907 639.941 305.932 641.992 305.98V280.565C641.992 279.491 641.895 278.637 641.699 278.002C641.553 277.367 641.382 276.879 641.187 276.537C641.04 276.146 640.869 275.854 640.674 275.658C640.527 275.414 640.454 275.17 640.454 274.926C640.454 274.633 640.601 274.389 640.894 274.193C641.187 273.998 641.577 273.827 642.065 273.681C642.554 273.534 643.066 273.437 643.604 273.388C644.189 273.29 644.751 273.241 645.288 273.241C647.778 273.241 649.731 273.9 651.147 275.219C652.612 276.488 653.345 278.026 653.345 279.833V306.127C657.935 306.127 662.769 306.078 667.847 305.98C672.974 305.883 678.101 305.712 683.228 305.468C683.911 304.735 684.448 304.467 684.839 304.662C685.278 304.857 685.547 305.321 685.645 306.054C685.791 306.786 685.815 307.689 685.718 308.764C685.62 309.838 685.425 310.888 685.132 311.913C684.839 312.89 684.424 313.744 683.887 314.477C683.398 315.209 682.837 315.575 682.202 315.575C676.196 315.722 670.874 315.819 666.235 315.868C661.646 315.868 657.349 315.868 653.345 315.868V363.402C653.345 365.844 653.809 367.602 654.736 368.676C655.664 369.75 656.909 370.287 658.472 370.287C659.985 370.287 661.279 369.75 662.354 368.676C663.477 367.602 664.429 366.259 665.21 364.647C666.04 363.036 666.699 361.303 667.188 359.447C667.725 357.543 668.164 355.761 668.506 354.101C668.799 352.538 669.287 351.415 669.971 350.731C670.654 349.999 671.362 349.633 672.095 349.633C672.681 349.633 673.291 349.828 673.926 350.219C674.561 350.561 675.122 351.024 675.61 351.61C676.147 352.196 676.562 352.855 676.855 353.588C677.197 354.32 677.368 355.053 677.368 355.785C677.368 355.883 677.368 356.005 677.368 356.151C677.368 356.298 677.319 356.518 677.222 356.811C676.587 359.301 675.708 361.913 674.585 364.647C673.511 367.382 672.095 369.896 670.337 372.191C668.628 374.486 666.577 376.391 664.185 377.904C661.792 379.418 658.984 380.175 655.762 380.175C653.76 380.175 651.904 379.857 650.195 379.223C648.535 378.637 647.095 377.66 645.874 376.293C644.653 374.975 643.701 373.266 643.018 371.166C642.334 369.066 641.992 366.527 641.992 363.549V315.868C640.332 315.868 638.843 315.868 637.524 315.868C636.255 315.819 635.181 315.771 634.302 315.722C633.276 315.673 632.373 315.624 631.592 315.575C630.42 315.575 629.395 315.062 628.516 314.037C627.588 312.963 626.953 311.791 626.611 310.521C626.221 309.252 626.172 308.104 626.465 307.079C626.709 306.005 627.368 305.468 628.442 305.468ZM669.238 283.568C669.238 282.494 669.141 281.64 668.945 281.005C668.799 280.37 668.628 279.882 668.433 279.54C668.286 279.149 668.115 278.856 667.92 278.661C667.773 278.417 667.7 278.173 667.7 277.929C667.7 277.636 667.847 277.392 668.14 277.196C668.433 277.001 668.823 276.83 669.312 276.684C669.8 276.537 670.312 276.439 670.85 276.391C671.436 276.293 671.997 276.244 672.534 276.244C675.024 276.244 676.978 276.903 678.394 278.222C679.858 279.491 680.591 281.029 680.591 282.836V332.055C681.616 329.955 682.715 328.002 683.887 326.195C685.107 324.389 686.401 322.826 687.769 321.508C689.185 320.141 690.674 319.091 692.236 318.358C693.848 317.577 695.581 317.187 697.437 317.187C699.927 317.187 701.978 317.65 703.589 318.578C705.2 319.506 706.47 320.702 707.397 322.167C708.325 323.632 708.96 325.268 709.302 327.074C709.692 328.881 709.888 330.639 709.888 332.348V363.402C709.888 363.744 709.912 364.306 709.961 365.087C710.01 365.819 710.156 366.576 710.4 367.357C710.645 368.139 711.011 368.822 711.499 369.408C712.036 369.994 712.793 370.287 713.77 370.287C715.283 370.287 716.577 369.75 717.651 368.676C718.774 367.602 719.727 366.259 720.508 364.647C721.338 363.036 721.997 361.303 722.485 359.447C723.022 357.543 723.462 355.761 723.804 354.101C724.097 352.587 724.536 351.488 725.122 350.805C725.757 350.121 726.416 349.755 727.1 349.706C727.832 349.608 728.564 349.779 729.297 350.219C730.029 350.658 730.664 351.244 731.201 351.977C731.738 352.66 732.129 353.441 732.373 354.32C732.666 355.199 732.715 356.029 732.52 356.811C731.836 359.301 730.933 361.913 729.81 364.647C728.735 367.382 727.344 369.896 725.635 372.191C723.926 374.486 721.875 376.391 719.482 377.904C717.09 379.418 714.282 380.175 711.06 380.175C709.058 380.175 707.275 379.784 705.713 379.003C704.199 378.271 702.881 377.27 701.758 376C700.684 374.73 699.854 373.241 699.268 371.532C698.73 369.823 698.462 368.017 698.462 366.112V335.644C698.462 334.472 698.438 333.373 698.389 332.348C698.34 331.322 698.193 330.419 697.949 329.638C697.754 328.856 697.437 328.246 696.997 327.807C696.606 327.318 696.045 327.074 695.312 327.074C694.238 327.074 692.92 327.807 691.357 329.271C689.795 330.736 688.257 332.641 686.743 334.984C685.229 337.328 683.887 339.989 682.715 342.968C681.592 345.897 680.884 348.852 680.591 351.83V373.729C680.591 374.462 680.566 375.219 680.518 376C680.518 376.732 680.371 377.392 680.078 377.978C679.834 378.612 679.419 379.125 678.833 379.516C678.296 379.955 677.49 380.175 676.416 380.175C675.684 380.175 674.878 380.077 673.999 379.882C673.169 379.735 672.388 379.418 671.655 378.93C670.972 378.49 670.386 377.831 669.897 376.952C669.458 376.122 669.238 374.999 669.238 373.583V283.568ZM779.321 351.244C779.419 350.658 779.736 350.17 780.273 349.779C780.859 349.389 781.519 349.12 782.251 348.974C782.983 348.827 783.74 348.827 784.521 348.974C785.352 349.12 786.06 349.462 786.646 349.999C787.28 350.487 787.72 351.195 787.964 352.123C788.257 353.002 788.232 354.149 787.891 355.565C787.451 357.616 786.719 359.545 785.693 361.352C784.717 363.109 783.472 364.672 781.958 366.039C780.444 367.406 778.662 368.48 776.611 369.262C774.561 370.043 772.266 370.434 769.727 370.434C768.359 370.434 767.065 370.36 765.845 370.214C764.673 370.067 763.525 369.799 762.402 369.408C760.547 372.631 758.154 375.219 755.225 377.172C752.295 379.174 748.682 380.175 744.385 380.175C740.576 380.175 737.305 379.418 734.57 377.904C731.836 376.439 729.565 374.438 727.759 371.898C725.952 369.311 724.609 366.332 723.73 362.963C722.9 359.594 722.485 356.029 722.485 352.27C722.485 346.752 723.12 341.82 724.39 337.475C725.708 333.08 727.222 329.369 728.931 326.342C730.64 323.266 732.324 320.922 733.984 319.311C735.693 317.699 736.963 316.894 737.793 316.894C738.77 316.894 739.648 317.333 740.43 318.212C741.26 319.042 741.846 320.043 742.188 321.215C742.578 322.338 742.676 323.485 742.48 324.657C742.334 325.829 741.772 326.732 740.796 327.367C740.21 328.295 739.502 329.369 738.672 330.59C737.891 331.811 737.134 333.349 736.401 335.204C735.718 337.011 735.132 339.232 734.644 341.869C734.155 344.506 733.911 347.68 733.911 351.391C733.911 354.564 734.18 357.323 734.717 359.667C735.303 362.011 736.084 363.988 737.061 365.6C738.086 367.162 739.233 368.334 740.503 369.115C741.821 369.896 743.213 370.287 744.678 370.287C746.826 370.287 748.584 369.774 749.951 368.749C751.367 367.675 752.563 366.283 753.54 364.574C750.024 361.547 747.339 357.714 745.483 353.075C743.677 348.388 742.773 343.334 742.773 337.914C742.773 335.57 743.018 333.349 743.506 331.249C744.043 329.101 744.8 327.221 745.776 325.609C746.802 323.998 748.071 322.729 749.585 321.801C751.099 320.824 752.856 320.336 754.858 320.336C756.616 320.336 758.276 320.971 759.839 322.24C761.401 323.51 762.769 325.268 763.94 327.514C765.112 329.76 766.016 332.421 766.65 335.497C767.334 338.573 767.676 341.918 767.676 345.531C767.676 348.314 767.505 351.073 767.163 353.808C766.821 356.542 766.284 359.179 765.552 361.718C766.089 361.913 766.577 362.035 767.017 362.084C767.505 362.084 768.018 362.084 768.555 362.084C770.166 362.084 771.582 361.791 772.803 361.205C774.072 360.619 775.146 359.838 776.025 358.861C776.904 357.885 777.612 356.737 778.149 355.419C778.687 354.101 779.077 352.709 779.321 351.244ZM750.684 337.328C750.684 340.697 751.196 343.896 752.222 346.923C753.296 349.95 754.688 352.587 756.396 354.833C756.689 352.44 756.836 350.146 756.836 347.948C756.836 345.409 756.787 343.065 756.689 340.917C756.641 338.72 756.47 336.84 756.177 335.277C755.933 333.715 755.566 332.494 755.078 331.615C754.639 330.688 754.028 330.224 753.247 330.224C751.538 330.224 750.684 332.592 750.684 337.328ZM787.891 355.419C787.5 356.981 786.768 357.958 785.693 358.349C784.619 358.69 783.545 358.642 782.471 358.202C781.445 357.763 780.566 357.006 779.834 355.932C779.15 354.857 778.955 353.686 779.248 352.416C779.98 349.096 781.03 345.434 782.397 341.43C783.813 337.377 785.205 333.349 786.572 329.345C785.84 328.222 785.254 327.099 784.814 325.976C784.375 324.804 784.155 323.583 784.155 322.313C784.155 321.044 784.619 319.726 785.547 318.358C786.523 316.942 787.671 315.648 788.989 314.477C790.356 313.305 791.748 312.353 793.164 311.62C794.629 310.839 795.874 310.448 796.899 310.448C798.706 310.448 800.049 311.059 800.928 312.279C801.855 313.5 802.319 315.136 802.319 317.187C802.319 318.31 802.124 319.433 801.733 320.556C801.392 321.63 801.001 322.655 800.562 323.632C800.122 324.56 799.707 325.365 799.316 326.049C798.975 326.732 798.779 327.172 798.73 327.367C800.488 330.492 802.319 333.251 804.224 335.644C806.128 338.036 807.861 340.404 809.424 342.748C811.035 345.092 812.354 347.582 813.379 350.219C814.404 352.855 814.917 355.956 814.917 359.521C814.917 360.399 814.844 361.303 814.697 362.23C814.6 363.158 814.429 364.037 814.185 364.867C815.942 364.525 817.48 363.988 818.799 363.256C820.166 362.523 821.338 361.693 822.314 360.766C823.34 359.789 824.17 358.739 824.805 357.616C825.488 356.493 826.05 355.321 826.489 354.101C827.026 352.685 827.563 351.659 828.101 351.024C828.638 350.39 829.248 350.072 829.932 350.072C830.566 350.072 831.201 350.292 831.836 350.731C832.52 351.122 833.105 351.635 833.594 352.27C834.131 352.904 834.546 353.563 834.839 354.247C835.181 354.931 835.352 355.541 835.352 356.078C835.352 356.811 835.156 357.689 834.766 358.715C834.375 359.74 833.838 360.79 833.154 361.864C832.52 362.938 831.787 363.988 830.957 365.014C830.127 365.99 829.272 366.845 828.394 367.577C826.05 369.481 823.291 371.093 820.117 372.411C816.943 373.681 813.013 374.486 808.325 374.828C806.519 376.391 804.37 377.66 801.88 378.637C799.438 379.662 796.68 380.175 793.604 380.175C792.041 380.175 790.43 379.979 788.77 379.589C787.158 379.198 785.596 378.686 784.082 378.051C782.617 377.465 781.274 376.806 780.054 376.073C778.833 375.341 777.856 374.608 777.124 373.876C775.269 372.118 774.072 370.36 773.535 368.603C772.998 366.796 772.876 365.185 773.169 363.769C773.413 362.353 773.926 361.205 774.707 360.326C775.488 359.398 776.294 358.935 777.124 358.935C777.612 358.935 778.369 359.154 779.395 359.594C780.469 359.984 781.689 360.521 783.057 361.205C784.424 361.84 785.913 362.523 787.524 363.256C789.136 363.988 790.747 364.696 792.358 365.38C793.97 366.015 795.532 366.552 797.046 366.991C798.608 367.382 800.024 367.577 801.294 367.577C802.124 366.601 802.881 365.307 803.564 363.695C804.248 362.084 804.59 360.326 804.59 358.422C804.59 356.078 804.272 353.905 803.638 351.903C803.003 349.901 802.173 348.046 801.147 346.337C800.122 344.628 798.95 343.041 797.632 341.576C796.362 340.062 795.068 338.646 793.75 337.328C792.578 340.209 791.553 343.065 790.674 345.897C789.795 348.681 788.867 351.854 787.891 355.419Z" fill="white"/>
<path d="M401.424 472.208H397.728C397.184 472.208 396.752 472 396.432 471.584C396.144 471.136 396 470.544 396 469.808C396 468.176 396.672 467.36 398.016 467.36H403.632C404.816 467.36 405.648 467.024 406.128 466.352C406.608 465.68 406.848 464.944 406.848 464.144V457.952C406.848 457.152 406.608 456.416 406.128 455.744C405.648 455.072 404.816 454.736 403.632 454.736H393.504V486.032C393.504 487.568 392.56 488.336 390.672 488.336C388.784 488.336 387.84 487.568 387.84 486.032V452.768C387.84 451.616 388.128 450.848 388.704 450.464C389.312 450.08 390.032 449.888 390.864 449.888H404.832C405.664 449.888 406.528 450.064 407.424 450.416C408.32 450.768 409.184 451.216 410.016 451.76H409.968C410.8 452.368 411.44 453.168 411.888 454.16C412.336 455.12 412.56 456.24 412.56 457.52V464.528C412.56 467.12 411.696 469.056 409.968 470.336C409.616 470.592 409.232 470.832 408.816 471.056C408.432 471.28 408.032 471.504 407.616 471.728L415.296 484.4C415.392 484.56 415.488 484.768 415.584 485.024C415.68 485.28 415.728 485.488 415.728 485.648C415.728 486.416 415.184 487.152 414.096 487.856V487.808C413.36 488.256 412.736 488.48 412.224 488.48C411.488 488.48 410.896 488.112 410.448 487.376L410.496 487.424L401.424 472.208ZM425.032 480.32C425.032 481.088 425.272 481.808 425.752 482.48C426.264 483.152 427.112 483.488 428.296 483.488H434.296C435.48 483.488 436.312 483.2 436.792 482.624C437.304 482.016 437.56 481.328 437.56 480.56V480.032C437.56 478.528 438.44 477.776 440.2 477.776C441.96 477.776 442.84 478.528 442.84 480.032V480.608C442.84 481.952 442.616 483.056 442.168 483.92C441.752 484.784 441.112 485.536 440.248 486.176C438.552 487.392 436.856 488 435.16 488H427.096C425.4 488 423.752 487.392 422.152 486.176C421.384 485.536 420.792 484.736 420.376 483.776C419.96 482.784 419.752 481.648 419.752 480.368V466.688C419.752 464.096 420.552 462.176 422.152 460.928C422.952 460.352 423.768 459.904 424.6 459.584C425.464 459.232 426.296 459.056 427.096 459.056H435.16C435.928 459.056 436.776 459.216 437.704 459.536C438.632 459.824 439.496 460.224 440.296 460.736C441.064 461.28 441.672 462.032 442.12 462.992C442.6 463.952 442.84 465.088 442.84 466.4V472.88C442.84 473.616 442.616 474.272 442.168 474.848C441.752 475.424 440.968 475.712 439.816 475.712H429.448C428.296 475.712 427.688 474.96 427.624 473.456C427.624 471.952 428.232 471.2 429.448 471.2H437.608L437.56 466.736C437.56 465.936 437.304 465.216 436.792 464.576C436.312 463.904 435.48 463.568 434.296 463.568H428.296C427.112 463.568 426.264 463.904 425.752 464.576C425.272 465.216 425.032 465.936 425.032 466.736V480.32ZM454.235 485.984C454.235 487.52 453.355 488.288 451.595 488.288C449.835 488.288 448.955 487.52 448.955 485.984V466.688C448.955 465.376 449.163 464.24 449.579 463.28C449.995 462.32 450.651 461.536 451.547 460.928C453.243 459.712 454.939 459.104 456.635 459.104H464.363C465.995 459.104 467.691 459.712 469.451 460.928C471.179 462.144 472.043 464.064 472.043 466.688V485.984C472.043 487.52 471.163 488.288 469.403 488.288C467.643 488.288 466.763 487.52 466.763 485.984V467.12C466.763 466.288 466.507 465.488 465.995 464.72L466.043 464.768C465.627 464 464.779 463.616 463.499 463.616H457.499C456.187 463.616 455.323 464 454.907 464.768C454.459 465.44 454.235 466.224 454.235 467.12V485.984ZM483.532 479.984V486.08C483.532 487.584 482.652 488.336 480.892 488.336C479.132 488.336 478.252 487.584 478.252 486.08V451.904C478.252 450.368 479.132 449.6 480.892 449.6C482.652 449.6 483.532 450.368 483.532 451.904V472.256C484.332 471.296 485.212 470.272 486.172 469.184C487.164 468.064 488.14 466.944 489.1 465.824C490.092 464.672 491.068 463.552 492.028 462.464C492.988 461.344 493.884 460.304 494.716 459.344V459.392C495.292 458.72 495.868 458.384 496.444 458.384C496.764 458.384 497.068 458.464 497.356 458.624C497.676 458.752 498.012 458.944 498.364 459.2H498.316C499.084 459.84 499.468 460.48 499.468 461.12C499.468 461.344 499.42 461.6 499.324 461.888C499.228 462.144 499.068 462.368 498.844 462.56L483.532 479.984ZM499.564 484.784C499.788 485.2 499.9 485.632 499.9 486.08C499.9 486.912 499.42 487.536 498.46 487.952C497.82 488.336 497.244 488.528 496.732 488.528C496.38 488.528 496.044 488.4 495.724 488.144C495.404 487.92 495.148 487.632 494.956 487.28L490.156 478.016C489.868 477.536 489.724 477.056 489.724 476.576C489.724 475.776 490.14 475.104 490.972 474.56C491.196 474.4 491.42 474.256 491.644 474.128C491.9 474 492.172 473.904 492.46 473.84C492.812 473.776 493.148 473.84 493.468 474.032C493.788 474.224 494.06 474.48 494.284 474.8L499.564 484.784ZM509.318 486.128C509.318 487.632 508.438 488.384 506.678 488.384C504.886 488.384 503.99 487.632 503.99 486.128V451.712C503.99 450.208 504.886 449.456 506.678 449.456C508.438 449.456 509.318 450.208 509.318 451.712V486.128ZM521.363 485.984C521.363 487.52 520.483 488.288 518.723 488.288C516.931 488.288 516.035 487.52 516.035 485.984V461.216C516.035 459.68 516.931 458.912 518.723 458.912C520.483 458.912 521.363 459.68 521.363 461.216V485.984ZM522.371 452.864C522.371 453.888 522.019 454.752 521.315 455.456C520.611 456.16 519.747 456.512 518.723 456.512C517.699 456.512 516.819 456.16 516.083 455.456C515.379 454.752 515.027 453.888 515.027 452.864C515.027 451.808 515.379 450.928 516.083 450.224C516.819 449.52 517.699 449.168 518.723 449.168C519.747 449.168 520.611 449.52 521.315 450.224C522.019 450.928 522.371 451.808 522.371 452.864ZM547.656 485.984C547.656 486.752 547.384 487.328 546.84 487.712C546.296 488.096 545.704 488.288 545.064 488.288C543.304 488.288 542.424 487.52 542.424 485.984V451.904C542.424 450.368 543.304 449.6 545.064 449.6C546.824 449.6 547.704 450.368 547.704 451.904V459.104H557.832C559.464 459.104 561.16 459.712 562.92 460.928C564.648 462.144 565.512 464.064 565.512 466.688V480.992C565.512 483.648 564.728 485.472 563.16 486.464C561.592 487.488 559.8 488 557.784 488H552.12C550.968 488 550.36 487.248 550.296 485.744C550.296 484.24 550.904 483.488 552.12 483.488H556.92C558.104 483.488 558.952 483.28 559.464 482.864C559.976 482.416 560.232 481.776 560.232 480.944V467.12C560.232 466.288 559.976 465.488 559.464 464.72L559.512 464.768C559.096 464 558.248 463.616 556.968 463.616H547.704L547.656 485.984ZM576.816 485.984C576.816 487.52 575.936 488.288 574.176 488.288C572.384 488.288 571.488 487.52 571.488 485.984V461.216C571.488 459.68 572.384 458.912 574.176 458.912C575.936 458.912 576.816 459.68 576.816 461.216V485.984ZM577.824 452.864C577.824 453.888 577.472 454.752 576.768 455.456C576.064 456.16 575.2 456.512 574.176 456.512C573.152 456.512 572.272 456.16 571.536 455.456C570.832 454.752 570.48 453.888 570.48 452.864C570.48 451.808 570.832 450.928 571.536 450.224C572.272 449.52 573.152 449.168 574.176 449.168C575.2 449.168 576.064 449.52 576.768 450.224C577.472 450.928 577.824 451.808 577.824 452.864ZM588.67 485.984C588.67 487.52 587.79 488.288 586.03 488.288C584.206 488.288 583.294 487.52 583.294 485.984V466.112C583.294 463.488 584.078 461.664 585.646 460.64C587.214 459.616 589.022 459.104 591.07 459.104H596.542C597.726 459.104 598.318 459.856 598.318 461.36C598.382 462.864 597.79 463.616 596.542 463.616H591.454C590.302 463.616 589.55 463.84 589.198 464.288C588.846 464.736 588.67 465.36 588.67 466.16V485.984ZM624.015 488C623.023 488 622.079 487.872 621.183 487.616C620.287 487.328 619.423 486.928 618.591 486.416V486.464C617.023 485.472 616.239 483.648 616.239 480.992V478.64C616.239 477.328 616.463 476.192 616.911 475.232C617.391 474.24 618.047 473.456 618.879 472.88H618.831C619.631 472.336 620.479 471.936 621.375 471.68C622.271 471.392 623.135 471.248 623.967 471.248H634.575V466.784C634.575 465.984 634.319 465.264 633.807 464.624C633.327 463.952 632.495 463.616 631.311 463.616H625.695C624.479 463.616 623.631 463.92 623.151 464.528C622.703 465.104 622.479 465.792 622.479 466.592V466.976C622.479 468.64 621.583 469.472 619.791 469.472C617.999 469.472 617.103 468.64 617.103 466.976V466.544C617.103 465.232 617.327 464.128 617.775 463.232C618.255 462.336 618.895 461.584 619.695 460.976H619.647C620.479 460.432 621.343 459.984 622.239 459.632C623.167 459.28 624.047 459.104 624.879 459.104H632.175C632.975 459.104 633.823 459.28 634.719 459.632C635.647 459.984 636.511 460.432 637.311 460.976H637.263C638.095 461.584 638.735 462.384 639.183 463.376C639.631 464.336 639.855 465.456 639.855 466.736V485.984C639.855 487.52 638.975 488.288 637.215 488.288C636.863 488.288 636.527 488.272 636.207 488.24C635.919 488.208 635.647 488.128 635.391 488C635.167 487.84 634.975 487.632 634.815 487.376C634.687 487.088 634.623 486.72 634.623 486.272L634.575 475.76H624.879C624.175 475.76 623.631 475.84 623.247 476C622.863 476.16 622.559 476.416 622.335 476.768C622.079 477.312 621.887 477.744 621.759 478.064C621.663 478.352 621.615 478.688 621.615 479.072V480.944C621.615 481.776 621.855 482.416 622.335 482.864C622.847 483.28 623.711 483.488 624.927 483.488H630.303C631.487 483.488 632.079 484.24 632.079 485.744C632.079 486.384 631.935 486.928 631.647 487.376C631.359 487.792 630.911 488 630.303 488H624.015ZM661.664 471.2C662.464 471.2 663.312 471.392 664.208 471.776C665.136 472.128 666 472.576 666.8 473.12H666.752C667.584 473.728 668.224 474.512 668.672 475.472C669.12 476.432 669.344 477.584 669.344 478.928V480.368C669.344 482.992 668.48 484.928 666.752 486.176C665.92 486.816 665.072 487.28 664.208 487.568C663.344 487.856 662.496 488 661.664 488H653.504C652.672 488 651.824 487.856 650.96 487.568C650.096 487.28 649.248 486.816 648.416 486.176C646.688 484.96 645.824 483.024 645.824 480.368V479.792C645.824 478.416 646.704 477.744 648.464 477.776C650.256 477.776 651.152 478.448 651.152 479.792V480.32C651.152 481.088 651.392 481.808 651.872 482.48C652.352 483.152 653.2 483.488 654.416 483.488H660.752C661.968 483.488 662.816 483.152 663.296 482.48C663.776 481.808 664.016 481.088 664.016 480.32V478.976C664.016 478.56 663.952 478.16 663.824 477.776C663.728 477.392 663.552 477.056 663.296 476.768C663.04 476.448 662.704 476.192 662.288 476C661.872 475.808 661.36 475.712 660.752 475.712H653.744C652.112 475.712 650.4 475.136 648.608 473.984C646.912 472.896 646.064 471.024 646.064 468.368V466.736C646.064 465.456 646.288 464.336 646.736 463.376C647.184 462.384 647.824 461.584 648.656 460.976H648.608C649.408 460.432 650.256 459.984 651.152 459.632C652.048 459.28 652.912 459.104 653.744 459.104H661.424C662.256 459.104 663.104 459.28 663.968 459.632C664.864 459.984 665.728 460.432 666.56 460.976H666.512C667.344 461.584 667.984 462.384 668.432 463.376C668.88 464.336 669.104 465.456 669.104 466.736V467.168C669.104 467.84 668.88 468.336 668.432 468.656C667.984 468.944 667.328 469.104 666.464 469.136C664.704 469.168 663.824 468.512 663.824 467.168V466.784C663.824 465.984 663.568 465.264 663.056 464.624C662.576 463.952 661.744 463.616 660.56 463.616H654.608C653.424 463.616 652.576 463.952 652.064 464.624C651.584 465.264 651.344 465.984 651.344 466.784V467.936C651.344 468.768 651.584 469.52 652.064 470.192C652.576 470.864 653.424 471.2 654.608 471.2H661.664ZM681.884 463.616V481.088C681.884 481.92 682.06 482.56 682.412 483.008C682.764 483.456 683.516 483.68 684.668 483.68H685.916C687.164 483.68 687.756 484.416 687.692 485.888C687.692 487.392 687.1 488.144 685.916 488.144H684.332C683.308 488.144 682.348 488.016 681.452 487.76C680.556 487.472 679.692 487.072 678.86 486.56V486.608C677.292 485.584 676.508 483.76 676.508 481.136V463.616H674.636C673.484 463.616 672.876 462.864 672.812 461.36C672.812 459.856 673.42 459.104 674.636 459.104H676.508V453.968C676.508 452.432 677.42 451.664 679.243 451.664C681.004 451.664 681.884 452.432 681.884 453.968V459.104H685.868C687.116 459.104 687.708 459.856 687.644 461.36C687.644 462.864 687.052 463.616 685.868 463.616H681.884ZM697.045 485.984C697.045 487.52 696.165 488.288 694.405 488.288C692.581 488.288 691.669 487.52 691.669 485.984V466.112C691.669 463.488 692.453 461.664 694.021 460.64C695.589 459.616 697.397 459.104 699.445 459.104H704.917C706.101 459.104 706.693 459.856 706.693 461.36C706.757 462.864 706.165 463.616 704.917 463.616H699.829C698.677 463.616 697.925 463.84 697.573 464.288C697.221 464.736 697.045 465.36 697.045 466.16V485.984ZM726.112 459.104C726.944 459.104 727.792 459.28 728.656 459.632C729.552 459.984 730.416 460.432 731.248 460.976H731.2C732.032 461.584 732.672 462.384 733.12 463.376C733.568 464.336 733.792 465.456 733.792 466.736V480.368C733.792 482.992 732.928 484.928 731.2 486.176C729.504 487.392 727.808 488 726.112 488H718.432C717.6 488 716.752 487.856 715.888 487.568C715.024 487.28 714.176 486.816 713.344 486.176C711.616 484.96 710.752 483.024 710.752 480.368V466.736C710.752 465.456 710.976 464.336 711.424 463.376C711.872 462.384 712.512 461.584 713.344 460.976H713.296C714.096 460.432 714.944 459.984 715.84 459.632C716.736 459.28 717.6 459.104 718.432 459.104H726.112ZM725.248 483.488C726.432 483.488 727.264 483.152 727.744 482.48C728.256 481.808 728.512 481.088 728.512 480.32V466.784C728.512 465.984 728.256 465.264 727.744 464.624C727.264 463.952 726.432 463.616 725.248 463.616H719.296C718.112 463.616 717.264 463.952 716.752 464.624C716.272 465.264 716.032 465.984 716.032 466.784V480.32C716.032 481.088 716.272 481.808 716.752 482.48C717.264 483.152 718.112 483.488 719.296 483.488H725.248ZM745.333 486.128C745.333 487.632 744.453 488.384 742.693 488.384C740.901 488.384 740.005 487.632 740.005 486.128V451.712C740.005 450.208 740.901 449.456 742.693 449.456C744.453 449.456 745.333 450.208 745.333 451.712V486.128ZM767.315 459.104C768.147 459.104 768.995 459.28 769.859 459.632C770.755 459.984 771.619 460.432 772.451 460.976H772.403C773.235 461.584 773.875 462.384 774.323 463.376C774.771 464.336 774.995 465.456 774.995 466.736V480.368C774.995 482.992 774.131 484.928 772.403 486.176C770.707 487.392 769.011 488 767.315 488H759.635C758.803 488 757.955 487.856 757.091 487.568C756.227 487.28 755.379 486.816 754.547 486.176C752.819 484.96 751.955 483.024 751.955 480.368V466.736C751.955 465.456 752.179 464.336 752.627 463.376C753.075 462.384 753.715 461.584 754.547 460.976H754.499C755.299 460.432 756.147 459.984 757.043 459.632C757.939 459.28 758.803 459.104 759.635 459.104H767.315ZM766.451 483.488C767.635 483.488 768.467 483.152 768.947 482.48C769.459 481.808 769.715 481.088 769.715 480.32V466.784C769.715 465.984 769.459 465.264 768.947 464.624C768.467 463.952 767.635 463.616 766.451 463.616H760.499C759.315 463.616 758.467 463.952 757.955 464.624C757.475 465.264 757.235 465.984 757.235 466.784V480.32C757.235 481.088 757.475 481.808 757.955 482.48C758.467 483.152 759.315 483.488 760.499 483.488H766.451ZM788.792 484.64C787.96 484.64 787.096 484.496 786.2 484.208C785.336 483.92 784.488 483.504 783.656 482.96C781.928 481.84 781.064 479.952 781.064 477.296V466.448C781.064 465.104 781.288 463.952 781.736 462.992C782.216 462.032 782.856 461.28 783.656 460.736C784.488 460.224 785.336 459.824 786.2 459.536C787.064 459.248 787.912 459.104 788.744 459.104H796.808C797.608 459.104 798.44 459.28 799.304 459.632C800.168 459.984 800.968 460.432 801.704 460.976C802.44 461.584 803.032 462.384 803.48 463.376C803.928 464.368 804.152 465.488 804.152 466.736V487.088C804.152 488.432 803.928 489.568 803.48 490.496C803.064 491.456 802.472 492.256 801.704 492.896C800.968 493.504 800.168 493.968 799.304 494.288C798.472 494.64 797.64 494.816 796.808 494.816H788.744C787.048 494.816 785.336 494.32 783.608 493.328C782.712 492.816 782.056 492.16 781.64 491.36C781.256 490.56 781.064 489.632 781.064 488.576V488C781.064 487.36 781.272 486.848 781.688 486.464C782.104 486.08 782.76 485.888 783.656 485.888C785.448 486.08 786.344 486.784 786.344 488V488.528C786.344 488.88 786.584 489.264 787.064 489.68C787.576 490.096 788.424 490.304 789.608 490.304H795.608C796.792 490.304 797.624 489.968 798.104 489.296C798.616 488.624 798.872 487.872 798.872 487.04V466.784C798.872 465.984 798.616 465.264 798.104 464.624C797.624 463.952 796.792 463.616 795.608 463.616H789.608C788.424 463.616 787.576 463.952 787.064 464.624C786.584 465.264 786.344 465.984 786.344 466.784V476.912C786.344 477.712 786.584 478.464 787.064 479.168C787.576 479.84 788.424 480.176 789.608 480.176H794.6C795.752 480.176 796.328 480.912 796.328 482.384C796.328 483.056 796.184 483.6 795.896 484.016C795.64 484.432 795.208 484.64 794.6 484.64H788.792ZM834.778 488.288C834.714 488.288 834.634 488.272 834.538 488.24C834.442 488.24 834.346 488.24 834.25 488.24C834.09 488.24 833.866 488.24 833.578 488.24C833.29 488.24 833.018 488.224 832.762 488.192C832.218 488.16 831.754 488.016 831.37 487.76C830.986 487.472 830.714 487.136 830.554 486.752L822.49 461.984C822.33 461.312 822.41 460.72 822.73 460.208C823.082 459.664 823.626 459.264 824.362 459.008C824.586 458.944 824.81 458.896 825.034 458.864C825.258 458.832 825.45 458.816 825.61 458.816C826.602 458.816 827.29 459.36 827.674 460.448L831.178 471.344L834.874 482.768L842.074 460.448C842.426 459.328 843.066 458.768 843.994 458.768C844.346 458.768 844.794 458.848 845.338 459.008C846.17 459.232 846.746 459.616 847.066 460.16C847.386 460.672 847.434 461.28 847.21 461.984L839.194 486.752C838.906 487.648 838.154 488.128 836.938 488.192C836.874 488.192 836.794 488.192 836.698 488.192C836.634 488.224 836.57 488.24 836.506 488.24C836.25 488.272 836.026 488.288 835.834 488.288C835.642 488.288 835.466 488.288 835.306 488.288H834.778ZM856.751 480.32C856.751 481.088 856.991 481.808 857.471 482.48C857.983 483.152 858.831 483.488 860.015 483.488H866.015C867.199 483.488 868.031 483.2 868.511 482.624C869.023 482.016 869.279 481.328 869.279 480.56V480.032C869.279 478.528 870.159 477.776 871.919 477.776C873.679 477.776 874.559 478.528 874.559 480.032V480.608C874.559 481.952 874.335 483.056 873.887 483.92C873.471 484.784 872.831 485.536 871.967 486.176C870.271 487.392 868.575 488 866.879 488H858.815C857.119 488 855.471 487.392 853.871 486.176C853.103 485.536 852.511 484.736 852.095 483.776C851.679 482.784 851.471 481.648 851.471 480.368V466.688C851.471 464.096 852.271 462.176 853.871 460.928C854.671 460.352 855.487 459.904 856.319 459.584C857.183 459.232 858.015 459.056 858.815 459.056H866.879C867.647 459.056 868.495 459.216 869.423 459.536C870.351 459.824 871.215 460.224 872.015 460.736C872.783 461.28 873.391 462.032 873.839 462.992C874.319 463.952 874.559 465.088 874.559 466.4V472.88C874.559 473.616 874.335 474.272 873.887 474.848C873.471 475.424 872.687 475.712 871.535 475.712H861.167C860.015 475.712 859.407 474.96 859.343 473.456C859.343 471.952 859.951 471.2 861.167 471.2H869.327L869.279 466.736C869.279 465.936 869.023 465.216 868.511 464.576C868.031 463.904 867.199 463.568 866.015 463.568H860.015C858.831 463.568 857.983 463.904 857.471 464.576C856.991 465.216 856.751 465.936 856.751 466.736V480.32ZM912.872 463.616H903.608C902.296 463.616 901.432 464 901.016 464.768C900.568 465.44 900.344 466.224 900.344 467.12V480.944C900.344 481.776 900.6 482.416 901.112 482.864C901.624 483.28 902.472 483.488 903.656 483.488H908.6C909.752 483.488 910.328 484.24 910.328 485.744C910.328 486.384 910.184 486.928 909.896 487.376C909.64 487.792 909.208 488 908.6 488H902.792C900.776 488 898.984 487.488 897.416 486.464C895.848 485.504 895.064 483.68 895.064 480.992V466.688C895.064 465.376 895.272 464.24 895.688 463.28C896.104 462.32 896.76 461.536 897.656 460.928C899.352 459.712 901.048 459.104 902.744 459.104H912.872V451.904C912.872 450.368 913.752 449.6 915.512 449.6C917.272 449.6 918.152 450.368 918.152 451.904V485.984C918.152 487.52 917.272 488.288 915.512 488.288C914.84 488.288 914.232 488.176 913.688 487.952C913.144 487.696 912.872 487.152 912.872 486.32V463.616ZM931.75 488C930.758 488 929.814 487.872 928.918 487.616C928.022 487.328 927.158 486.928 926.326 486.416V486.464C924.758 485.472 923.974 483.648 923.974 480.992V478.64C923.974 477.328 924.198 476.192 924.646 475.232C925.126 474.24 925.782 473.456 926.614 472.88H926.566C927.366 472.336 928.214 471.936 929.11 471.68C930.006 471.392 930.87 471.248 931.702 471.248H942.31V466.784C942.31 465.984 942.054 465.264 941.542 464.624C941.062 463.952 940.23 463.616 939.046 463.616H933.43C932.214 463.616 931.366 463.92 930.886 464.528C930.438 465.104 930.214 465.792 930.214 466.592V466.976C930.214 468.64 929.318 469.472 927.526 469.472C925.734 469.472 924.838 468.64 924.838 466.976V466.544C924.838 465.232 925.062 464.128 925.51 463.232C925.99 462.336 926.63 461.584 927.43 460.976H927.382C928.214 460.432 929.078 459.984 929.974 459.632C930.902 459.28 931.782 459.104 932.614 459.104H939.91C940.71 459.104 941.558 459.28 942.454 459.632C943.382 459.984 944.246 460.432 945.046 460.976H944.998C945.83 461.584 946.47 462.384 946.918 463.376C947.366 464.336 947.59 465.456 947.59 466.736V485.984C947.59 487.52 946.71 488.288 944.95 488.288C944.598 488.288 944.262 488.272 943.942 488.24C943.654 488.208 943.382 488.128 943.126 488C942.902 487.84 942.71 487.632 942.55 487.376C942.422 487.088 942.358 486.72 942.358 486.272L942.31 475.76H932.614C931.91 475.76 931.366 475.84 930.982 476C930.598 476.16 930.294 476.416 930.07 476.768C929.814 477.312 929.622 477.744 929.494 478.064C929.398 478.352 929.35 478.688 929.35 479.072V480.944C929.35 481.776 929.59 482.416 930.07 482.864C930.582 483.28 931.446 483.488 932.662 483.488H938.038C939.222 483.488 939.814 484.24 939.814 485.744C939.814 486.384 939.67 486.928 939.382 487.376C939.094 487.792 938.646 488 938.038 488H931.75ZM959.079 485.984C959.079 487.52 958.199 488.288 956.439 488.288C954.679 488.288 953.799 487.52 953.799 485.984V451.904C953.799 450.368 954.679 449.6 956.439 449.6C958.199 449.6 959.079 450.368 959.079 451.904V459.104H969.207C970.839 459.104 972.535 459.712 974.295 460.928C976.023 462.144 976.887 464.064 976.887 466.688V485.984C976.887 487.52 976.007 488.288 974.247 488.288C972.487 488.288 971.607 487.52 971.607 485.984V467.12C971.607 466.288 971.351 465.488 970.839 464.72L970.887 464.768C970.471 464 969.623 463.616 968.343 463.616H959.079V485.984ZM990.484 488C989.492 488 988.548 487.872 987.652 487.616C986.756 487.328 985.892 486.928 985.06 486.416V486.464C983.492 485.472 982.708 483.648 982.708 480.992V478.64C982.708 477.328 982.932 476.192 983.38 475.232C983.86 474.24 984.516 473.456 985.348 472.88H985.3C986.1 472.336 986.948 471.936 987.844 471.68C988.74 471.392 989.604 471.248 990.436 471.248H1001.04V466.784C1001.04 465.984 1000.79 465.264 1000.28 464.624C999.796 463.952 998.964 463.616 997.78 463.616H992.164C990.948 463.616 990.1 463.92 989.62 464.528C989.172 465.104 988.948 465.792 988.948 466.592V466.976C988.948 468.64 988.052 469.472 986.26 469.472C984.468 469.472 983.572 468.64 983.572 466.976V466.544C983.572 465.232 983.796 464.128 984.244 463.232C984.724 462.336 985.364 461.584 986.164 460.976H986.116C986.948 460.432 987.812 459.984 988.708 459.632C989.636 459.28 990.516 459.104 991.348 459.104H998.644C999.444 459.104 1000.29 459.28 1001.19 459.632C1002.12 459.984 1002.98 460.432 1003.78 460.976H1003.73C1004.56 461.584 1005.2 462.384 1005.65 463.376C1006.1 464.336 1006.32 465.456 1006.32 466.736V485.984C1006.32 487.52 1005.44 488.288 1003.68 488.288C1003.33 488.288 1003 488.272 1002.68 488.24C1002.39 488.208 1002.12 488.128 1001.86 488C1001.64 487.84 1001.44 487.632 1001.28 487.376C1001.16 487.088 1001.09 486.72 1001.09 486.272L1001.04 475.76H991.348C990.644 475.76 990.1 475.84 989.716 476C989.332 476.16 989.028 476.416 988.804 476.768C988.548 477.312 988.356 477.744 988.228 478.064C988.132 478.352 988.084 478.688 988.084 479.072V480.944C988.084 481.776 988.324 482.416 988.804 482.864C989.316 483.28 990.18 483.488 991.396 483.488H996.772C997.956 483.488 998.548 484.24 998.548 485.744C998.548 486.384 998.404 486.928 998.116 487.376C997.828 487.792 997.38 488 996.772 488H990.484ZM1033.6 485.984C1033.6 487.52 1032.7 488.288 1030.91 488.288C1029.15 488.288 1028.27 487.52 1028.27 485.984V463.616H1025.96C1024.81 463.616 1024.2 462.864 1024.14 461.36C1024.14 459.856 1024.75 459.104 1025.96 459.104H1028.27V456.8C1028.27 455.488 1028.44 454.384 1028.8 453.488C1029.18 452.56 1029.79 451.856 1030.62 451.376V451.424C1031.45 450.912 1032.3 450.512 1033.16 450.224C1034.06 449.936 1035 449.792 1036 449.792H1037.15C1038.33 449.792 1038.92 450.544 1038.92 452.048C1038.99 453.552 1038.4 454.304 1037.15 454.304H1036.38C1035.77 454.304 1035.28 454.368 1034.89 454.496C1034.54 454.592 1034.27 454.752 1034.08 454.976C1033.88 455.2 1033.76 455.472 1033.69 455.792C1033.63 456.112 1033.6 456.464 1033.6 456.848V459.104H1037.2C1038.44 459.104 1039.04 459.856 1038.97 461.36C1038.97 462.864 1038.38 463.616 1037.2 463.616H1033.6V485.984ZM1050.3 488C1049.3 488 1048.36 487.872 1047.46 487.616C1046.57 487.328 1045.7 486.928 1044.87 486.416V486.464C1043.3 485.472 1042.52 483.648 1042.52 480.992V478.64C1042.52 477.328 1042.74 476.192 1043.19 475.232C1043.67 474.24 1044.33 473.456 1045.16 472.88H1045.11C1045.91 472.336 1046.76 471.936 1047.66 471.68C1048.55 471.392 1049.42 471.248 1050.25 471.248H1060.86V466.784C1060.86 465.984 1060.6 465.264 1060.09 464.624C1059.61 463.952 1058.78 463.616 1057.59 463.616H1051.98C1050.76 463.616 1049.91 463.92 1049.43 464.528C1048.98 465.104 1048.76 465.792 1048.76 466.592V466.976C1048.76 468.64 1047.86 469.472 1046.07 469.472C1044.28 469.472 1043.38 468.64 1043.38 466.976V466.544C1043.38 465.232 1043.61 464.128 1044.06 463.232C1044.54 462.336 1045.18 461.584 1045.98 460.976H1045.93C1046.76 460.432 1047.62 459.984 1048.52 459.632C1049.45 459.28 1050.33 459.104 1051.16 459.104H1058.46C1059.26 459.104 1060.1 459.28 1061 459.632C1061.93 459.984 1062.79 460.432 1063.59 460.976H1063.54C1064.38 461.584 1065.02 462.384 1065.46 463.376C1065.91 464.336 1066.14 465.456 1066.14 466.736V485.984C1066.14 487.52 1065.26 488.288 1063.5 488.288C1063.14 488.288 1062.81 488.272 1062.49 488.24C1062.2 488.208 1061.93 488.128 1061.67 488C1061.45 487.84 1061.26 487.632 1061.1 487.376C1060.97 487.088 1060.9 486.72 1060.9 486.272L1060.86 475.76H1051.16C1050.46 475.76 1049.91 475.84 1049.53 476C1049.14 476.16 1048.84 476.416 1048.62 476.768C1048.36 477.312 1048.17 477.744 1048.04 478.064C1047.94 478.352 1047.9 478.688 1047.9 479.072V480.944C1047.9 481.776 1048.14 482.416 1048.62 482.864C1049.13 483.28 1049.99 483.488 1051.21 483.488H1056.58C1057.77 483.488 1058.36 484.24 1058.36 485.744C1058.36 486.384 1058.22 486.928 1057.93 487.376C1057.64 487.792 1057.19 488 1056.58 488H1050.3ZM1072.01 463.616C1070.86 463.616 1070.25 462.864 1070.19 461.36C1070.19 459.856 1070.79 459.104 1072.01 459.104H1088.67C1089.69 459.104 1090.49 459.28 1091.07 459.632C1091.67 459.952 1092.01 460.4 1092.07 460.976C1092.11 461.488 1092.09 462 1092.03 462.512C1091.99 463.024 1091.88 463.408 1091.69 463.664L1076.95 483.488H1090.54C1091.69 483.488 1092.27 484.24 1092.27 485.744C1092.33 486.512 1092.2 487.088 1091.88 487.472C1091.56 487.824 1091.11 488 1090.54 488H1073.31C1071.23 488 1070.11 487.392 1069.95 486.176C1069.85 485.056 1069.96 484.144 1070.28 483.44L1085.07 463.616H1072.01ZM1101.82 486.128C1101.82 487.632 1100.94 488.384 1099.18 488.384C1097.39 488.384 1096.49 487.632 1096.49 486.128V451.712C1096.49 450.208 1097.39 449.456 1099.18 449.456C1100.94 449.456 1101.82 450.208 1101.82 451.712V486.128ZM1115.69 488C1114.7 488 1113.75 487.872 1112.86 487.616C1111.96 487.328 1111.1 486.928 1110.26 486.416V486.464C1108.7 485.472 1107.91 483.648 1107.91 480.992V478.64C1107.91 477.328 1108.14 476.192 1108.58 475.232C1109.06 474.24 1109.72 473.456 1110.55 472.88H1110.5C1111.3 472.336 1112.15 471.936 1113.05 471.68C1113.94 471.392 1114.81 471.248 1115.64 471.248H1126.25V466.784C1126.25 465.984 1125.99 465.264 1125.48 464.624C1125 463.952 1124.17 463.616 1122.98 463.616H1117.37C1116.15 463.616 1115.3 463.92 1114.82 464.528C1114.38 465.104 1114.15 465.792 1114.15 466.592V466.976C1114.15 468.64 1113.26 469.472 1111.46 469.472C1109.67 469.472 1108.78 468.64 1108.78 466.976V466.544C1108.78 465.232 1109 464.128 1109.45 463.232C1109.93 462.336 1110.57 461.584 1111.37 460.976H1111.32C1112.15 460.432 1113.02 459.984 1113.91 459.632C1114.84 459.28 1115.72 459.104 1116.55 459.104H1123.85C1124.65 459.104 1125.5 459.28 1126.39 459.632C1127.32 459.984 1128.18 460.432 1128.98 460.976H1128.94C1129.77 461.584 1130.41 462.384 1130.86 463.376C1131.3 464.336 1131.53 465.456 1131.53 466.736V485.984C1131.53 487.52 1130.65 488.288 1128.89 488.288C1128.54 488.288 1128.2 488.272 1127.88 488.24C1127.59 488.208 1127.32 488.128 1127.06 488C1126.84 487.84 1126.65 487.632 1126.49 487.376C1126.36 487.088 1126.3 486.72 1126.3 486.272L1126.25 475.76H1116.55C1115.85 475.76 1115.3 475.84 1114.92 476C1114.54 476.16 1114.23 476.416 1114.01 476.768C1113.75 477.312 1113.56 477.744 1113.43 478.064C1113.34 478.352 1113.29 478.688 1113.29 479.072V480.944C1113.29 481.776 1113.53 482.416 1114.01 482.864C1114.52 483.28 1115.38 483.488 1116.6 483.488H1121.98C1123.16 483.488 1123.75 484.24 1123.75 485.744C1123.75 486.384 1123.61 486.928 1123.32 487.376C1123.03 487.792 1122.58 488 1121.98 488H1115.69ZM1153.34 471.2C1154.14 471.2 1154.98 471.392 1155.88 471.776C1156.81 472.128 1157.67 472.576 1158.47 473.12H1158.42C1159.26 473.728 1159.9 474.512 1160.34 475.472C1160.79 476.432 1161.02 477.584 1161.02 478.928V480.368C1161.02 482.992 1160.15 484.928 1158.42 486.176C1157.59 486.816 1156.74 487.28 1155.88 487.568C1155.02 487.856 1154.17 488 1153.34 488H1145.18C1144.34 488 1143.5 487.856 1142.63 487.568C1141.77 487.28 1140.92 486.816 1140.09 486.176C1138.36 484.96 1137.5 483.024 1137.5 480.368V479.792C1137.5 478.416 1138.38 477.744 1140.14 477.776C1141.93 477.776 1142.82 478.448 1142.82 479.792V480.32C1142.82 481.088 1143.06 481.808 1143.54 482.48C1144.02 483.152 1144.87 483.488 1146.09 483.488H1152.42C1153.64 483.488 1154.49 483.152 1154.97 482.48C1155.45 481.808 1155.69 481.088 1155.69 480.32V478.976C1155.69 478.56 1155.62 478.16 1155.5 477.776C1155.4 477.392 1155.22 477.056 1154.97 476.768C1154.71 476.448 1154.38 476.192 1153.96 476C1153.54 475.808 1153.03 475.712 1152.42 475.712H1145.42C1143.78 475.712 1142.07 475.136 1140.28 473.984C1138.58 472.896 1137.74 471.024 1137.74 468.368V466.736C1137.74 465.456 1137.96 464.336 1138.41 463.376C1138.86 462.384 1139.5 461.584 1140.33 460.976H1140.28C1141.08 460.432 1141.93 459.984 1142.82 459.632C1143.72 459.28 1144.58 459.104 1145.42 459.104H1153.1C1153.93 459.104 1154.78 459.28 1155.64 459.632C1156.54 459.984 1157.4 460.432 1158.23 460.976H1158.18C1159.02 461.584 1159.66 462.384 1160.1 463.376C1160.55 464.336 1160.78 465.456 1160.78 466.736V467.168C1160.78 467.84 1160.55 468.336 1160.1 468.656C1159.66 468.944 1159 469.104 1158.14 469.136C1156.38 469.168 1155.5 468.512 1155.5 467.168V466.784C1155.5 465.984 1155.24 465.264 1154.73 464.624C1154.25 463.952 1153.42 463.616 1152.23 463.616H1146.28C1145.1 463.616 1144.25 463.952 1143.74 464.624C1143.26 465.264 1143.02 465.984 1143.02 466.784V467.936C1143.02 468.768 1143.26 469.52 1143.74 470.192C1144.25 470.864 1145.1 471.2 1146.28 471.2H1153.34ZM1172.16 488H1167.94V462.272H1172.16V488Z" fill="white"/>
<path d="M8.25118 156.652C8.25118 206.377 218.937 76.2513 157.188 76.2513C95.4396 76.2513 302 206.377 302 156.652C302 40.7024 189.781 89.2085 157.188 188.214C128.309 92.5308 8.25118 47.0148 8.25118 156.652Z" fill="#6922FF"/>
<circle cx="156" cy="148" r="143" stroke="#6922FF" stroke-width="10"/>
<line x1="158" y1="-1.62003e-09" x2="158" y2="296" stroke="#6922FF" stroke-width="4"/>
<line x1="82.3092" y1="22.1034" x2="228.081" y2="274.588" stroke="#6922FF" stroke-width="4"/>
<line x1="28.2209" y1="74.7275" x2="280.705" y2="220.499" stroke="#6922FF" stroke-width="4"/>
<line x1="26.2209" y1="220.499" x2="278.705" y2="74.7275" stroke="#6922FF" stroke-width="4"/>
<line x1="228.081" y1="24.1034" x2="82.3092" y2="276.588" stroke="#6922FF" stroke-width="4"/>
<line x1="299.235" y1="151.345" x2="7.69131" y2="151.345" stroke="#6922FF" stroke-width="4"/>
<path d="M95.0586 179.809C91.9661 179.809 89.3213 178.751 87.124 176.635C85.0081 174.519 83.9502 171.386 83.9502 167.235C83.9502 166.34 83.9909 165.445 84.0723 164.55C84.235 163.573 84.4385 162.719 84.6826 161.986C84.9268 161.173 85.2116 160.521 85.5371 160.033C85.944 159.545 86.3509 159.301 86.7578 159.301C87.1647 159.301 87.5309 159.423 87.8564 159.667C88.2633 159.911 88.7516 160.196 89.3213 160.521C89.9723 160.847 90.8268 161.132 91.8848 161.376C92.9427 161.62 94.4076 161.742 96.2793 161.742C100.755 161.742 105.353 161.05 110.073 159.667C114.793 158.202 119.066 156.168 122.891 153.563C126.797 150.878 129.971 147.663 132.412 143.92C134.935 140.176 136.196 135.945 136.196 131.225C136.196 129.516 135.911 127.847 135.342 126.22C134.772 124.592 133.918 123.168 132.778 121.947C131.639 120.645 130.174 119.587 128.384 118.773C126.675 117.96 124.64 117.553 122.28 117.553C115.77 117.553 109.788 118.977 104.336 121.825C98.9648 124.674 94.082 128.539 89.6875 133.422C85.293 138.223 81.4274 143.798 78.0908 150.146C74.8356 156.493 72.1094 163.207 69.9121 170.287C67.7148 177.286 66.0465 184.407 64.9072 191.649C63.7679 198.892 63.1982 205.769 63.1982 212.279C63.1982 220.092 63.6865 227.335 64.6631 234.008C65.6396 240.6 67.2266 246.296 69.4238 251.098C71.6211 255.899 74.5508 259.683 78.2129 262.45C81.875 265.136 86.3916 266.479 91.7627 266.479C96.6455 266.479 100.959 265.258 104.702 262.816C108.446 260.294 111.701 256.916 114.468 252.685C117.316 248.453 119.717 243.529 121.67 237.914C123.704 232.217 125.454 226.155 126.919 219.726C128.384 213.297 129.645 206.664 130.703 199.828C131.761 192.992 132.697 186.319 133.511 179.809C133.755 178.181 134.935 176.96 137.051 176.146C139.167 175.251 141.405 174.804 143.765 174.804C144.741 174.804 145.758 174.926 146.816 175.17C147.874 175.414 148.77 175.78 149.502 176.269C150.316 176.757 150.885 177.408 151.211 178.222C151.618 179.035 151.699 180.053 151.455 181.273C150.804 184.529 150.112 189.696 149.38 196.776C148.647 203.775 148.281 212.198 148.281 222.045C148.281 230.264 148.322 237.344 148.403 243.285C148.566 249.226 148.77 254.353 149.014 258.666C149.258 262.979 149.502 266.601 149.746 269.53C149.99 272.379 150.234 274.779 150.479 276.732C150.967 277.465 151.211 278.035 151.211 278.441C151.211 279.255 150.804 280.028 149.99 280.761C149.176 281.493 148.159 282.144 146.938 282.714C145.718 283.284 144.334 283.731 142.788 284.057C141.323 284.382 139.899 284.545 138.516 284.545C136.318 284.545 134.65 284.097 133.511 283.202C132.371 282.307 131.517 280.801 130.947 278.686C130.459 276.651 130.133 273.925 129.971 270.507C129.808 267.007 129.645 262.735 129.482 257.689C127.611 261.677 125.291 265.38 122.524 268.798C119.757 272.216 116.665 275.186 113.247 277.709C109.829 280.313 106.086 282.348 102.017 283.812C98.029 285.277 93.8379 286.01 89.4434 286.01C82.6074 286.01 76.3411 284.708 70.6445 282.104C65.0293 279.499 60.1872 275.308 56.1182 269.53C52.0492 263.752 48.8753 256.225 46.5967 246.947C44.3994 237.589 43.3008 226.195 43.3008 212.768C43.3008 203.572 44.1553 194.376 45.8643 185.18C47.6546 175.902 50.1774 167.032 53.4326 158.568C56.7692 150.105 60.7975 142.211 65.5176 134.887C70.319 127.562 75.6901 121.215 81.6309 115.844C87.5716 110.473 94.0413 106.241 101.04 103.148C108.12 100.056 115.607 98.5098 123.501 98.5098C128.628 98.5098 133.185 99.3236 137.173 100.951C141.242 102.579 144.66 104.857 147.427 107.787C150.194 110.635 152.31 114.013 153.774 117.919C155.239 121.744 155.972 125.854 155.972 130.248C155.972 137.491 154.222 144.164 150.723 150.268C147.223 156.29 142.625 161.498 136.929 165.893C131.232 170.287 124.722 173.705 117.397 176.146C110.073 178.588 102.627 179.809 95.0586 179.809ZM198.818 285.521C195.726 285.521 193.203 285.155 191.25 284.423C189.297 283.772 187.791 282.877 186.733 281.737V363.036C186.733 365.315 186.286 367.146 185.391 368.529C184.495 369.994 183.356 371.133 181.973 371.947C180.671 372.761 179.246 373.29 177.7 373.534C176.154 373.86 174.771 374.022 173.55 374.022C171.027 374.022 169.44 373.371 168.789 372.069C168.138 370.767 167.812 369.18 167.812 367.309V192.748C167.812 190.958 167.65 189.534 167.324 188.476C167.08 187.418 166.795 186.604 166.47 186.034C166.226 185.383 165.941 184.895 165.615 184.569C165.371 184.162 165.249 183.715 165.249 183.227C165.249 182.82 165.493 182.453 165.981 182.128C166.47 181.802 167.121 181.518 167.935 181.273C168.748 181.029 169.603 180.867 170.498 180.785C171.475 180.622 172.41 180.541 173.306 180.541C177.293 180.541 180.467 181.64 182.827 183.837C185.269 185.953 186.571 188.435 186.733 191.283C189.338 187.458 192.471 184.285 196.133 181.762C199.795 179.239 204.271 177.978 209.561 177.978C214.443 177.978 218.675 179.117 222.256 181.396C225.918 183.674 228.929 186.807 231.289 190.795C233.73 194.701 235.521 199.34 236.66 204.711C237.881 210.082 238.491 215.86 238.491 222.045C238.491 229.044 237.881 235.757 236.66 242.187C235.439 248.534 233.893 253.987 232.021 258.544C236.172 258.3 239.59 257.73 242.275 256.835C244.961 255.94 247.199 254.719 248.989 253.173C250.861 251.545 252.448 249.592 253.75 247.313C255.133 245.035 256.558 242.431 258.022 239.501C259.162 237.141 260.098 235.432 260.83 234.374C261.644 233.316 262.62 232.787 263.76 232.787C264.818 232.787 265.876 233.113 266.934 233.764C268.073 234.415 269.049 235.229 269.863 236.205C270.758 237.182 271.45 238.24 271.938 239.379C272.508 240.437 272.793 241.413 272.793 242.309C272.793 245.157 271.816 248.412 269.863 252.074C267.91 255.736 264.899 259.195 260.83 262.45C256.842 265.705 251.756 268.472 245.571 270.751C239.468 272.948 232.266 274.047 223.965 274.047C220.547 277.709 216.6 280.517 212.124 282.47C207.648 284.504 203.213 285.521 198.818 285.521ZM203.213 194.701C201.423 194.701 199.673 195.23 197.964 196.288C196.336 197.346 194.79 198.811 193.325 200.683C191.86 202.473 190.558 204.67 189.419 207.274C188.361 209.879 187.466 212.686 186.733 215.697V269.774C188.524 267.17 191.453 265.176 195.522 263.793C199.591 262.41 204.515 261.474 210.293 260.985C211.758 258.788 213.019 256.184 214.077 253.173C215.216 250.08 216.152 246.907 216.885 243.651C217.617 240.396 218.146 237.222 218.472 234.13C218.879 231.037 219.082 228.311 219.082 225.951C219.082 220.255 218.634 215.412 217.739 211.425C216.925 207.437 215.786 204.223 214.321 201.781C212.856 199.258 211.147 197.468 209.194 196.41C207.323 195.271 205.329 194.701 203.213 194.701Z" fill="white"/>
</svg>
